<?xml version="1.0" encoding="UTF-8" standalone="no"?>
<!-- Generator: Adobe Illustrator 19.0.0, SVG Export Plug-In . SVG Version: 6.00 Build 0)  -->

<svg
   xmlns:dc="http://purl.org/dc/elements/1.1/"
   xmlns:cc="http://creativecommons.org/ns#"
   xmlns:rdf="http://www.w3.org/1999/02/22-rdf-syntax-ns#"
   xmlns:svg="http://www.w3.org/2000/svg"
   xmlns="http://www.w3.org/2000/svg"
   xmlns:sodipodi="http://sodipodi.sourceforge.net/DTD/sodipodi-0.dtd"
   xmlns:inkscape="http://www.inkscape.org/namespaces/inkscape"
   version="1.1"
   id="Layer_1"
   x="0px"
   y="0px"
   viewBox="0 0 511.999 511.999"
   style="enable-background:new 0 0 511.999 511.999;"
   xml:space="preserve"
   inkscape:version="0.91 r13725"
   sodipodi:docname="information-icon2.svg"><metadata
     id="metadata4656"><rdf:RDF><cc:Work
         rdf:about=""><dc:format>image/svg+xml</dc:format><dc:type
           rdf:resource="http://purl.org/dc/dcmitype/StillImage" /></cc:Work></rdf:RDF></metadata><defs
     id="defs4654" /><sodipodi:namedview
     pagecolor="#ffffff"
     bordercolor="#666666"
     borderopacity="1"
     objecttolerance="10"
     gridtolerance="10"
     guidetolerance="10"
     inkscape:pageopacity="0"
     inkscape:pageshadow="2"
     inkscape:window-width="1855"
     inkscape:window-height="926"
     id="namedview4652"
     showgrid="false"
     inkscape:zoom="0.32593267"
     inkscape:cx="48.034744"
     inkscape:cy="603.58408"
     inkscape:window-x="65"
     inkscape:window-y="24"
     inkscape:window-maximized="1"
     inkscape:current-layer="Layer_1" /><g
     id="g4592"><g
       id="g4594"><path
         d="M214.685,402.828c-24.829,0-45.029,20.2-45.029,45.029c0,24.829,20.2,45.029,45.029,45.029s45.029-20.2,45.029-45.029    C259.713,423.028,239.513,402.828,214.685,402.828z M214.685,467.742c-10.966,0-19.887-8.922-19.887-19.887    c0-10.966,8.922-19.887,19.887-19.887s19.887,8.922,19.887,19.887C234.572,458.822,225.65,467.742,214.685,467.742z"
         id="path4596" /></g></g><g
     id="g4598"><g
       id="g4600"><path
         d="M372.63,402.828c-24.829,0-45.029,20.2-45.029,45.029c0,24.829,20.2,45.029,45.029,45.029s45.029-20.2,45.029-45.029    C417.658,423.028,397.458,402.828,372.63,402.828z M372.63,467.742c-10.966,0-19.887-8.922-19.887-19.887    c0-10.966,8.922-19.887,19.887-19.887c10.966,0,19.887,8.922,19.887,19.887C392.517,458.822,383.595,467.742,372.63,467.742z"
         id="path4602" /></g></g><g
     id="g4604"><g
       id="g4606"><path
         d="M383.716,165.755H203.567c-6.943,0-12.571,5.628-12.571,12.571c0,6.943,5.629,12.571,12.571,12.571h180.149    c6.943,0,12.571-5.628,12.571-12.571C396.287,171.382,390.659,165.755,383.716,165.755z"
         id="path4608" /></g></g><g
     id="g4610"><g
       id="g4612"><path
         d="M373.911,231.035H213.373c-6.943,0-12.571,5.628-12.571,12.571s5.628,12.571,12.571,12.571h160.537    c6.943,0,12.571-5.628,12.571-12.571C386.481,236.664,380.853,231.035,373.911,231.035z"
         id="path4614" /></g></g><g
     id="g4616"><g
       id="g4618"><path
         d="M506.341,109.744c-4.794-5.884-11.898-9.258-19.489-9.258H95.278L87.37,62.097c-1.651-8.008-7.113-14.732-14.614-17.989    l-55.177-23.95c-6.37-2.767-13.773,0.156-16.536,6.524c-2.766,6.37,0.157,13.774,6.524,16.537L62.745,67.17l60.826,295.261    c2.396,11.628,12.752,20.068,24.625,20.068h301.166c6.943,0,12.571-5.628,12.571-12.571c0-6.943-5.628-12.571-12.571-12.571    H148.197l-7.399-35.916H451.69c11.872,0,22.229-8.44,24.624-20.068l35.163-170.675    C513.008,123.266,511.136,115.627,506.341,109.744z M451.69,296.301H135.619l-35.161-170.674l386.393,0.001L451.69,296.301z"
         id="path4620" /></g></g><g
     id="g4622" /><g
     id="g4624" /><g
     id="g4626" /><g
     id="g4628" /><g
     id="g4630" /><g
     id="g4632" /><g
     id="g4634" /><g
     id="g4636" /><g
     id="g4638" /><g
     id="g4640" /><g
     id="g4642" /><g
     id="g4644" /><g
     id="g4646" /><g
     id="g4648" /><g
     id="g4650" /><path
     style="fill:#29b200;fill-opacity:1"
     d="m 135.37302,378.94712 c -3.22332,-1.99925 -7.35003,-6.61054 -9.17044,-10.24734 -1.82042,-3.6368 -16.57227,-71.53426 -32.781877,-150.88326 C 77.211093,138.46752 63.510781,72.012608 62.975566,70.138929 62.440353,68.265249 56.399002,64.445877 49.550341,61.651435 3.7147868,42.949265 -4.2375574,37.251825 1.2312257,27.03331 6.6516909,16.905078 10.79028,17.139633 38.907099,29.168596 86.84792,49.678683 84.893969,47.765304 91.425484,80.596452 l 3.992332,20.067758 200.480434,0 200.48043,0 7.37626,7.37626 c 6.03502,6.03501 7.37626,9.02464 7.37626,16.44163 0,12.16565 -34.01934,176.82082 -38.20535,184.91568 -6.61066,12.78362 -3.42377,12.55413 -174.33472,12.55413 -147.42094,0 -156.2674,0.215 -156.1781,3.7966 0.0521,2.08813 1.31219,9.65422 2.80027,16.81353 l 2.7056,13.01692 153.07036,1.08475 c 125.35204,0.88831 153.71982,1.62392 156.65705,4.06223 4.76792,3.95812 4.56182,13.90817 -0.38075,18.38113 -3.6156,3.27209 -17.80435,3.58536 -159.99968,3.53275 -142.11878,-0.0525 -156.55485,-0.38185 -161.89286,-3.6927 z m 332.99702,-164.9272 c 9.23388,-45.04398 16.77504,-83.11848 16.7581,-84.61001 -0.0244,-2.14882 -39.89347,-2.71185 -192.03041,-2.71185 -105.59979,0 -191.99962,0.28654 -191.99962,0.63676 0,0.83374 32.18014,157.34215 33.65921,163.7019 l 1.13525,4.88134 157.84429,0 157.84428,0 16.7889,-81.89814 z"
     id="path5264"
     inkscape:connector-curvature="0" /><path
     style="fill:#29b200;fill-opacity:1"
     d="M 131.90256,377.30412 C 127.79338,373.84648 124.578,368.2776 122.94399,361.78838 121.54215,356.22113 107.24225,288.13774 91.166445,210.49195 68.247483,99.793832 61.129953,68.845951 58.195923,67.132128 56.137936,65.930021 43.715168,60.21728 30.58977,54.437147 3.8142782,42.645817 -0.8677949,39.304705 -0.8677949,31.989117 c 0,-6.060663 7.0784618,-13.765424 12.6464689,-13.765424 7.873106,0 64.280707,25.940418 69.983092,32.183439 3.758879,4.115255 6.492412,10.742823 8.275958,20.065414 1.464757,7.656279 3.613921,17.581518 4.775922,22.056086 l 2.112727,8.135578 200.427067,0 200.42706,0 6.50143,6.50142 c 3.57577,3.57578 7.10685,9.25788 7.8468,12.62688 1.34968,6.14508 -33.54388,181.04256 -37.65041,188.71572 -1.09781,2.05125 -4.14019,5.67114 -6.76084,8.04424 -4.64014,4.20177 -8.89887,4.34309 -162.73181,5.39944 -86.88182,0.59661 -158.65447,1.7723 -159.49476,2.61265 -1.79569,1.79581 0.58809,23.31409 3.01833,27.24631 1.29403,2.09377 36.00713,3.02576 154.01671,4.13506 104.1365,0.97892 153.31502,2.17723 155.40786,3.7868 5.63418,4.33316 6.28706,13.46848 1.3177,18.43784 -4.50687,4.50687 -5.22955,4.52698 -162.73309,4.52698 l -158.20612,0 -6.40974,-5.39343 z m 319.33428,-85.18266 c 0.90201,-2.99435 22.52858,-108.73965 31.45288,-153.792 l 1.77857,-8.97873 -65.31246,-1.56482 c -77.2065,-1.84978 -312.67369,-0.68792 -314.9147,1.55387 -0.85604,0.85635 6.07257,38.68678 15.39692,84.06764 l 16.95335,82.51064 156.75087,0 c 147.40456,0 156.81909,-0.22636 157.89457,-3.7966 z"
     id="path5266"
     inkscape:connector-curvature="0" /><path
     style="fill:#29b200;fill-opacity:1"
     d="m 195.37219,186.45757 c -6.45981,-6.45981 -6.71187,-10.64403 -0.98613,-16.36977 4.20702,-4.20702 7.23162,-4.33897 99.46017,-4.33897 89.39664,0 95.33728,0.23876 98.71167,3.96743 4.82776,5.33461 4.52726,12.45168 -0.7485,17.72744 -4.20458,4.20457 -7.23162,4.33897 -97.72554,4.33897 l -93.38657,0 -5.3251,-5.3251 z"
     id="path5268"
     inkscape:connector-curvature="0" /><path
     style="fill:#29b200;fill-opacity:1"
     d="m 194.38606,187.4437 c -5.41462,-5.41462 -5.57834,-13.39231 -0.37155,-18.1044 3.56444,-3.22577 13.60556,-3.59047 98.8543,-3.59047 61.25911,0 96.37404,0.79591 99.08321,2.24581 5.52229,2.95544 5.66198,15.28071 0.22892,20.19756 -3.56424,3.2256 -13.59564,3.59047 -98.71167,3.59047 -91.85159,0 -94.87671,-0.13247 -99.08321,-4.33897 z"
     id="path5270"
     inkscape:connector-curvature="0" /><path
     style="fill:#29b200;fill-opacity:1"
     d="m 205.71622,253.49004 c -5.95318,-4.16977 -6.39591,-14.051 -0.85427,-19.06612 3.5489,-3.21171 12.88843,-3.59048 88.53432,-3.59048 89.58715,0 89.86538,0.0308 92.90508,10.26895 1.04924,3.53402 -0.039,6.32276 -4.0213,10.30506 l -5.45984,5.45984 -83.14114,0 c -71.73799,0 -83.80247,-0.4632 -87.96285,-3.37725 z"
     id="path5272"
     inkscape:connector-curvature="0" /><path
     style="fill:#29b200;fill-opacity:1"
     d="m 204.48499,252.89986 c -4.53515,-5.01129 -4.62457,-14.21393 -0.18128,-18.65722 2.98527,-2.98526 14.16562,-3.4092 89.91071,-3.4092 l 86.50151,0 3.37724,4.8217 c 4.54546,6.48955 4.25072,11.66074 -0.96172,16.87318 -4.19194,4.19193 -7.23162,4.33897 -89.69748,4.33897 -79.9387,0 -85.58648,-0.25191 -88.94898,-3.96743 z"
     id="path5274"
     inkscape:connector-curvature="0" /><path
     style="fill:#29b200;fill-opacity:1"
     d="m 194.66635,487.65103 c -7.4415,-3.70825 -13.4465,-8.75399 -17.2395,-14.4856 -5.03991,-7.61582 -5.82041,-11.01971 -5.82041,-25.38378 0,-14.0639 0.81197,-17.77353 5.33513,-24.37465 15.58928,-22.75107 46.62896,-27.28008 66.627,-9.72157 31.81718,27.93585 11.81293,79.56594 -30.85828,79.64387 -3.64367,0.007 -11.76345,-2.54856 -18.04394,-5.67827 z m 29.93737,-23.51747 c 14.66598,-7.58407 10.9178,-30.92337 -5.63327,-35.07743 -8.31524,-2.08699 -16.20277,1.52136 -20.89768,9.56015 -4.92511,8.43295 -3.68999,15.8683 3.89611,23.4544 5.9661,5.9661 13.72024,6.6728 22.63484,2.06288 z"
     id="path5276"
     inkscape:connector-curvature="0" /><path
     style="fill:#29b200;fill-opacity:1"
     d="m 352.60753,487.37531 c -12.81893,-6.49415 -20.15297,-15.52379 -23.89451,-29.41882 -8.38556,-31.14157 23.90699,-62.41045 55.35923,-53.60437 35.40132,9.91176 45.31176,54.6399 17.23766,77.79754 -15.28522,12.6084 -30.83586,14.27695 -48.70238,5.22565 z m 32.86029,-26.40933 c 8.5261,-8.52611 8.5261,-17.84151 0,-26.36762 -11.76971,-11.7697 -29.26624,-5.4991 -31.96522,11.45605 -1.10512,6.9424 -0.38037,8.93359 5.33008,14.64404 8.80247,8.80247 18.00774,8.89493 26.63514,0.26753 z"
     id="path5278"
     inkscape:connector-curvature="0" /><path
     style="fill:#29b200;fill-opacity:1"
     d="m 215.63982,382.61968 -78.18807,-0.27119 -4.20398,-3.7775 c -5.13698,-4.61587 -7.98076,-8.89206 -9.73442,-14.63762 -1.62009,-5.30795 -5.2255,-22.24025 -26.567618,-124.77103 C 70.067976,110.03753 63.596488,80.675992 59.784677,70.560341 L 58.586914,67.381749 53.360185,64.947807 C 50.485488,63.609139 42.39788,59.956917 35.387724,56.831758 3.8342927,42.765099 -0.97704432,39.493379 -0.93927572,32.129316 -0.90745954,25.925845 6.1480931,18.145821 11.742084,18.145821 c 2.445509,0 9.681799,2.440143 20.00908,6.747245 17.30012,7.215197 43.601032,19.99807 47.52007,23.095894 5.679078,4.489051 8.510763,10.803497 11.66907,26.021158 1.083442,5.220329 2.863029,13.207556 3.954644,17.749399 l 1.984756,8.257893 200.357866,0.14887 200.35788,0.14887 5.50584,5.70528 c 3.69453,3.82835 6.08574,6.84211 7.26855,9.16091 1.60762,3.1516 1.76251,3.89034 1.76048,8.39639 -0.002,3.38069 -0.51737,7.42396 -1.63373,12.80515 -0.89732,4.32541 -3.47295,17.62708 -5.72362,29.55926 -8.8899,47.13081 -21.58337,108.7907 -26.87756,130.56067 -2.95751,12.16142 -3.57669,13.52515 -8.3462,18.38241 -3.01759,3.07311 -8.73959,5.56019 -14.72187,6.3989 -2.18905,0.3069 -43.42614,0.64161 -100.52499,0.81593 -118.32112,0.36125 -207.53418,1.55313 -208.74876,2.78889 -0.62675,0.63768 -0.17228,11.87677 0.68956,17.05285 1.06175,6.3767 1.76948,8.93112 2.68499,9.69093 1.96489,1.63071 24.61354,2.50564 86.05241,3.32426 76.97192,1.02558 134.36572,1.66471 175.45728,1.95388 39.14853,0.27549 40.80024,0.32795 43.93212,1.39537 3.96906,1.35275 6.46272,3.61482 7.57121,6.86806 2.28222,6.69795 -0.42206,12.94093 -6.94176,16.02541 l -2.79894,1.32418 -79.18628,0.18349 c -43.55246,0.10093 -114.37092,0.0615 -157.37436,-0.0877 z m 196.15394,-87.3303 c 29.04853,-0.49797 36.02355,-0.93077 38.21878,-2.37144 0.91868,-0.60291 1.67641,-3.48048 4.53073,-17.20592 3.89275,-18.71897 23.71753,-116.01825 27.36618,-134.3122 l 2.40686,-12.06778 -6.56641,-0.0201 c -3.61153,-0.0111 -19.50199,-0.3919 -35.31213,-0.84628 -72.76109,-2.09117 -335.6799,-1.26094 -338.00817,1.06734 -0.68623,0.68622 5.10873,32.66443 13.08482,72.20571 5.44198,26.97851 18.41897,90.32601 19.02707,92.88117 l 0.29043,1.22034 122.70129,-0.0221 c 67.48571,-0.0121 136.00296,-0.25004 152.26055,-0.52874 z"
     id="path5280"
     inkscape:connector-curvature="0" /><path
     style="fill:#29b200;fill-opacity:1"
     d="m 181.6704,382.80007 -44.36101,-0.18674 -4.80542,-4.63244 c -5.75048,-5.54348 -8.06165,-9.54914 -10.02467,-17.37455 -1.67544,-6.67895 -7.58379,-34.37265 -18.15687,-85.10509 C 70.084866,111.22024 64.124579,83.834766 59.973265,71.731985 L 58.540726,67.55555 50.896421,64.059298 C 46.692053,62.136359 38.004668,58.195458 31.591122,55.301741 3.9728757,42.840711 -0.95118729,39.374189 -0.95118729,32.392078 c 0,-6.840453 6.71158219,-14.246257 12.91080829,-14.246257 5.132567,0 27.865438,9.398023 53.307654,22.037981 20.946356,10.406366 20.306759,9.347029 29.101426,48.199169 l 2.578224,11.389808 200.641765,0.271181 200.64177,0.27119 5.18833,5.71237 c 2.85359,3.14181 5.98156,7.20309 6.95105,9.02506 3.12141,5.8661 2.9462,7.49541 -5.53991,51.5163 -17.38952,90.20644 -27.60547,137.47 -30.94602,143.17022 -3.61805,6.17374 -10.44847,10.4363 -18.51476,11.55424 -2.08832,0.28943 -36.0839,0.65631 -77.74481,0.83902 -130.79903,0.57363 -227.75409,1.73996 -231.18599,2.78107 -0.79714,0.24182 -0.94844,0.95527 -0.9447,4.45477 0.008,7.16615 1.81618,19.50118 3.17969,21.68707 0.64406,1.03252 5.82522,1.61773 19.86666,2.24393 19.61496,0.87476 102.06802,2.07311 227.43431,3.30547 53.04544,0.52144 55.63692,0.59286 58.54018,1.61327 5.32529,1.87169 8.22773,5.83527 8.25031,11.26665 0.0214,5.14825 -2.64729,9.24579 -7.70535,11.83088 l -2.56472,1.31079 -113.23166,0.18027 c -62.27741,0.0992 -133.19411,0.0962 -157.59267,-0.006 l 0,-10e-6 z m 244.49622,-88.05574 c 18.02506,-0.52347 22.87534,-1.02807 23.96648,-2.49339 0.35447,-0.47603 1.26123,-3.46318 2.01502,-6.63811 1.85871,-7.82883 31.7811,-154.42891 31.7811,-155.70654 0,-0.22203 -7.99321,-0.55657 -17.76268,-0.74341 -9.76947,-0.18684 -31.55248,-0.61738 -48.40669,-0.95676 -60.60674,-1.22039 -311.38307,-0.078 -312.8864,1.42538 -1.20005,1.20004 9.29273,55.84902 29.29962,152.59952 l 2.84967,13.78061 135.89399,-0.38164 c 74.74169,-0.20989 143.70414,-0.60844 153.24989,-0.88566 z"
     id="path5282"
     inkscape:connector-curvature="0" /><path
     style="fill:#29b200;fill-opacity:1"
     d="m 224.44063,191.84047 c -18.82065,-0.11628 -24.00663,-0.2982 -24.67792,-0.86567 -0.46744,-0.39516 -1.6529,-1.0364 -2.63437,-1.42498 -2.40961,-0.95402 -5.30577,-4.46053 -6.39656,-7.7446 -1.94203,-5.84692 0.39713,-11.25512 6.19301,-14.31841 l 3.43568,-1.81586 92.9652,0 92.96521,0 3.5197,1.40904 c 4.19598,1.67976 5.52975,3.45453 6.38729,8.49915 1.18189,6.95262 -2.14879,12.88095 -8.28341,14.74378 -5.04621,1.53233 -67.39708,2.11114 -163.47383,1.51755 z"
     id="path5284"
     inkscape:connector-curvature="0" /><path
     style="fill:#29b200;fill-opacity:1"
     d="m 206.23485,191.74875 c -7.11082,-0.41444 -9.39529,-1.28817 -12.57736,-4.81034 -2.67435,-2.96019 -3.8908,-6.41002 -3.58033,-10.15381 0.33635,-4.05596 2.39468,-6.92618 6.66618,-9.29559 l 3.25423,-1.80512 93.55914,-0.006 93.55914,-0.006 3.35981,1.58946 c 4.09689,1.93817 5.50443,4.23749 5.96628,9.74639 0.25251,3.01203 0.10002,4.11229 -0.87565,6.31795 -2.56987,5.80963 -5.36335,7.31778 -14.68772,7.92964 -8.37893,0.54982 -166.03391,0.99532 -174.64372,0.4935 z"
     id="path5286"
     inkscape:connector-curvature="0" /><path
     style="fill:#29b200;fill-opacity:1"
     d="m 238.11773,256.81601 -27.50683,-0.41564 -3.13718,-1.56818 c -4.36213,-2.18051 -6.3078,-5.36558 -6.55813,-10.73569 -0.15658,-3.35898 0.0154,-4.22948 1.34957,-6.83247 1.25198,-2.44255 2.0695,-3.27785 4.51206,-4.61016 l 2.98304,-1.62711 85.52705,-0.14219 85.52704,-0.14219 2.47381,3.46674 c 6.46181,9.05542 5.16704,15.54875 -4.25346,21.33117 l -1.94122,1.19154 -55.73446,0.24991 c -30.65395,0.13745 -68.11253,0.0629 -83.24129,-0.16573 z"
     id="path5288"
     inkscape:connector-curvature="0" /><path
     style="fill:#29b200;fill-opacity:1"
     d="m 227.65853,256.83208 -17.3559,-0.31385 -2.81382,-1.48361 c -4.62859,-2.44048 -6.67768,-6.08941 -6.67768,-11.89134 0,-5.38125 2.27332,-8.90262 7.43068,-11.51012 1.57736,-0.7975 9.54712,-0.87759 87.32616,-0.87759 l 85.5904,0 2.28381,3.38983 c 2.96819,4.40565 3.94485,6.85729 3.94485,9.90247 0,3.16084 -1.43367,5.95906 -4.50242,8.78773 -4.9955,4.60469 2.1426,4.18313 -71.972,4.25046 -36.244,0.0329 -73.70833,-0.0814 -83.25408,-0.25398 z"
     id="path5290"
     inkscape:connector-curvature="0" /><path
     style="fill:#29b200;fill-opacity:1"
     d="m 366.50572,492.66196 c -17.90023,-2.5814 -32.05566,-14.95898 -37.48955,-32.78106 -1.28219,-4.20534 -1.4819,-5.79755 -1.49327,-11.90542 -0.0143,-7.66465 0.66331,-11.13026 3.46603,-17.72765 5.30189,-12.48022 16.24684,-22.07834 29.61574,-25.97138 4.97686,-1.44927 13.624,-1.93485 19.02004,-1.06807 19.15114,3.07629 34.68993,18.59363 37.6585,37.60651 0.8196,5.24934 0.28956,14.32374 -1.12563,19.27101 -3.8243,13.36909 -14.24012,24.77349 -27.57467,30.1918 -6.79472,2.76095 -14.03959,3.54337 -22.07719,2.38426 z m 12.85426,-27.38557 c 3.86388,-1.95798 8.81858,-7.04914 10.61111,-10.90335 2.06012,-4.42957 2.05003,-9.04098 -0.0291,-13.27472 -1.97644,-4.02476 -6.52913,-8.59775 -10.50134,-10.5482 -2.69057,-1.32113 -3.83113,-1.55765 -7.51124,-1.55765 -3.64333,0 -4.82954,0.24091 -7.39877,1.50262 -3.67474,1.80462 -7.14343,5.41589 -8.91145,9.27775 -1.79495,3.92068 -2.71948,10.24239 -1.92348,13.1522 1.25641,4.59289 8.24931,11.34904 13.79929,13.33212 3.6691,1.31101 8.05832,0.9482 11.86495,-0.98077 z"
     id="path5292"
     inkscape:connector-curvature="0" /><path
     style="fill:#29b200;fill-opacity:1"
     d="m 365.60042,492.7086 c -17.5673,-2.96448 -31.27768,-15.26947 -36.87544,-33.09548 -1.10593,-3.52183 -1.26517,-5.09567 -1.2324,-12.18001 0.0343,-7.40758 0.17116,-8.52384 1.52978,-12.47455 5.22558,-15.19539 16.13879,-25.9904 30.9749,-30.6394 5.88476,-1.84403 16.37418,-2.11871 22.77961,-0.5965 16.53179,3.92865 29.85083,17.12728 33.97714,33.66997 0.99218,3.97771 1.10622,5.59984 0.8388,11.93218 -0.17456,4.13342 -0.69894,8.74744 -1.20275,10.58285 -2.20822,8.04474 -7.8679,16.71538 -14.78481,22.65033 -4.48012,3.8441 -14.0102,8.66652 -19.47782,9.85617 -4.07806,0.88732 -12.16039,1.03131 -16.52701,0.29444 z m 14.13735,-27.94143 c 3.23195,-1.75905 8.16635,-6.81235 9.9502,-10.18997 1.76393,-3.33989 1.72051,-9.93286 -0.0896,-13.61074 -1.72361,-3.50206 -6.70143,-8.42869 -10.35666,-10.25017 -2.44041,-1.21611 -3.63103,-1.45263 -7.31223,-1.45263 -3.63616,0 -4.88175,0.24147 -7.19701,1.39521 -3.72771,1.8576 -7.87526,6.46767 -9.35944,10.40319 -1.65099,4.37782 -2.03991,10.73121 -0.81492,13.31268 1.97051,4.15256 8.32437,9.96317 12.67101,11.58767 3.26094,1.21874 9.09823,0.66097 12.50869,-1.19524 z"
     id="path5294"
     inkscape:connector-curvature="0" /><path
     style="fill:#29b200;fill-opacity:1"
     d="m 204.33654,491.88919 c -9.54209,-2.66845 -17.0336,-7.10505 -23.00939,-13.62657 -16.41475,-17.91381 -15.68232,-45.43336 1.66103,-62.40998 4.47839,-4.38369 6.3571,-5.75186 11.43085,-8.32452 7.03827,-3.56878 11.43087,-4.55907 20.22258,-4.55907 8.97879,0 13.39697,1.03466 20.84432,4.88138 8.95697,4.62647 15.76588,11.75238 20.13183,21.06908 10.37776,22.14556 1.08756,48.39483 -21.043,59.45658 -6.39371,3.19584 -11.2815,4.40399 -18.84841,4.65891 -5.71449,0.19251 -7.10394,0.0527 -11.38981,-1.14581 z m 17.89428,-26.81824 c 2.26918,-0.88799 4.16012,-2.18661 6.26473,-4.30234 3.88692,-3.90748 5.1051,-7.40484 4.74513,-13.62318 -0.44153,-7.62699 -4.39826,-13.52885 -11.21196,-16.72372 -4.28651,-2.0099 -10.99893,-2.05314 -14.98032,-0.0965 -3.82164,1.87813 -7.61356,5.88197 -9.65794,10.19768 -2.2777,4.80826 -2.44711,10.33877 -0.44149,14.41257 1.80778,3.67195 6.64396,8.70401 9.98891,10.39349 2.52873,1.27722 3.30204,1.40413 7.43254,1.21973 3.15037,-0.14065 5.63934,-0.60857 7.8604,-1.47773 z"
     id="path5296"
     inkscape:connector-curvature="0" /><path
     style="fill:#29b200;fill-opacity:1"
     d="m 204.81237,492.2279 c -14.48111,-3.93517 -25.50075,-12.94166 -31.35546,-25.62722 -3.06718,-6.64573 -3.7741,-10.10787 -3.80301,-18.6252 -0.0215,-6.33379 0.17832,-8.29853 1.2047,-11.84574 3.67247,-12.69212 12.43441,-23.26156 24.02091,-28.97616 5.91745,-2.91856 9.76509,-3.90154 16.81987,-4.29707 10.95344,-0.61412 19.09368,1.53672 27.98505,7.39428 24.10465,15.87995 27.21845,50.17764 6.35776,70.02909 -4.57177,4.35058 -7.78071,6.57562 -12.86521,8.92057 -5.94085,2.73989 -9.65666,3.55528 -17.45063,3.82932 -5.82811,0.20493 -7.72076,0.0659 -10.91398,-0.80187 z m 17.86745,-27.61113 c 3.5498,-1.57024 7.61425,-5.56775 9.04679,-8.89779 1.61933,-3.76423 1.61593,-10.35009 -0.008,-14.68931 -1.42138,-3.79899 -4.97537,-7.80413 -8.74619,-9.85647 -2.34111,-1.2742 -3.73815,-1.61946 -7.31185,-1.80703 -6.26204,-0.32867 -9.3029,0.77222 -13.37168,4.84099 -3.97626,3.97627 -5.96934,8.12843 -6.26176,13.04503 -0.30955,5.2046 0.85505,8.23729 4.82842,12.57353 3.68312,4.01947 6.3173,5.83566 9.12618,6.29223 3.12532,0.50801 9.99038,-0.30361 12.69768,-1.50118 z"
     id="path5298"
     inkscape:connector-curvature="0" /></svg>