<?xml version="1.0" encoding="UTF-8" standalone="no"?>
<!-- Generator: Adobe Illustrator 19.0.0, SVG Export Plug-In . SVG Version: 6.00 Build 0)  -->

<svg
   xmlns:dc="http://purl.org/dc/elements/1.1/"
   xmlns:cc="http://creativecommons.org/ns#"
   xmlns:rdf="http://www.w3.org/1999/02/22-rdf-syntax-ns#"
   xmlns:svg="http://www.w3.org/2000/svg"
   xmlns="http://www.w3.org/2000/svg"
   xmlns:sodipodi="http://sodipodi.sourceforge.net/DTD/sodipodi-0.dtd"
   xmlns:inkscape="http://www.inkscape.org/namespaces/inkscape"
   version="1.1"
   id="Layer_1"
   x="0px"
   y="0px"
   viewBox="0 0 512.004 512.004"
   style="enable-background:new 0 0 512.004 512.004;"
   xml:space="preserve"
   inkscape:version="0.91 r13725"
   sodipodi:docname="information-icon1.svg"><metadata
     id="metadata3502"><rdf:RDF><cc:Work
         rdf:about=""><dc:format>image/svg+xml</dc:format><dc:type
           rdf:resource="http://purl.org/dc/dcmitype/StillImage" /></cc:Work></rdf:RDF></metadata><defs
     id="defs3500" /><sodipodi:namedview
     pagecolor="#ffffff"
     bordercolor="#666666"
     borderopacity="1"
     objecttolerance="10"
     gridtolerance="10"
     guidetolerance="10"
     inkscape:pageopacity="0"
     inkscape:pageshadow="2"
     inkscape:window-width="1855"
     inkscape:window-height="926"
     id="namedview3498"
     showgrid="false"
     inkscape:zoom="0.5"
     inkscape:cx="-69.45165"
     inkscape:cy="246.10555"
     inkscape:window-x="65"
     inkscape:window-y="24"
     inkscape:window-maximized="1"
     inkscape:current-layer="Layer_1" /><g
     id="g3440"><g
       id="g3442"><g
         id="g3444"><path
           d="M291.057,242.811c1.51,2.953,4.514,4.659,7.62,4.659c1.297,0,2.628-0.299,3.866-0.93     c0.503-0.256,50.731-25.771,75.503-33.596c4.489-1.425,6.98-6.221,5.555-10.709c-1.417-4.489-6.178-6.989-10.709-5.572     c-26.095,8.252-75.981,33.596-78.097,34.671C290.596,233.467,288.924,238.605,291.057,242.811z"
           id="path3446" /><path
           d="M298.677,145.071c1.297,0,2.628-0.299,3.866-0.93c0.503-0.256,50.731-25.771,75.503-33.596     c4.489-1.425,6.98-6.221,5.555-10.709c-1.417-4.489-6.178-6.989-10.709-5.572c-26.095,8.252-75.981,33.596-78.097,34.671     c-4.198,2.133-5.871,7.27-3.738,11.477C292.567,143.364,295.571,145.071,298.677,145.071z"
           id="path3448" /><path
           d="M503.469,128.004c-4.719,0-8.533,3.823-8.533,8.533v332.8c0,14.114-11.486,25.6-25.6,25.6h-204.8v-19.635     c12.442-4.352,44.851-14.498,76.8-14.498c74.334,0,124.809,16.461,125.312,16.631c2.568,0.853,5.436,0.427,7.68-1.178     c2.227-1.604,3.541-4.181,3.541-6.921V93.871c0-4.002-2.773-7.467-6.682-8.329c0,0-6.69-1.493-18.125-3.593     c-4.617-0.853-9.079,2.219-9.933,6.844c-0.853,4.642,2.21,9.088,6.844,9.941c4.361,0.802,8.013,1.51,10.829,2.074v357.188     c-19.337-5.069-62.276-14.259-119.467-14.259c-37.18,0-73.702,12.211-85.001,16.35c-10.044-4.437-40.405-16.35-77.133-16.35     c-58.778,0-107.196,9.694-128,14.618V100.475c17.041-4.19,67.371-15.138,128-15.138c31.113,0,57.796,9.685,68.267,14.063v335.804     c0,3.072,1.655,5.914,4.326,7.424c2.671,1.519,5.965,1.476,8.602-0.111c0.845-0.503,85.393-51.004,160.435-76.015     c3.49-1.169,5.837-4.42,5.837-8.098V8.537c0-2.799-1.374-5.419-3.678-7.014c-2.287-1.596-5.222-1.963-7.859-0.981     C346.856,26.15,277.771,69.141,277.079,69.568c-3.994,2.5-5.214,7.765-2.714,11.759c2.492,3.994,7.757,5.214,11.759,2.714     c0.631-0.401,60.732-37.794,123.477-63.027v331.281c-58.249,20.241-119.066,53.291-145.067,68.087V93.871     c0-3.234-1.826-6.187-4.719-7.637c-1.468-0.725-36.437-17.963-80.614-17.963c-77.107,0-136.388,16.683-138.88,17.399     c-3.661,1.041-6.187,4.395-6.187,8.201v375.467c0,2.671,1.263,5.197,3.388,6.81c1.502,1.135,3.311,1.724,5.146,1.724     c0.785,0,1.57-0.111,2.338-0.333c0.589-0.162,59.597-16.734,134.195-16.734c31.198,0,57.856,9.711,68.267,14.071v20.062h-204.8     c-14.114,0-25.6-11.486-25.6-25.6v-332.8c0-4.71-3.823-8.533-8.533-8.533s-8.533,3.823-8.533,8.533v332.8     c0,23.526,19.14,42.667,42.667,42.667h426.667c23.526,0,42.667-19.14,42.667-42.667v-332.8     C512.002,131.827,508.188,128.004,503.469,128.004z"
           id="path3450" /><path
           d="M291.057,191.611c1.51,2.953,4.514,4.659,7.62,4.659c1.297,0,2.628-0.299,3.866-0.93     c0.503-0.256,50.731-25.771,75.503-33.596c4.489-1.425,6.98-6.221,5.555-10.709c-1.417-4.489-6.178-6.989-10.709-5.572     c-26.095,8.252-75.981,33.596-78.097,34.671C290.596,182.267,288.924,187.405,291.057,191.611z"
           id="path3452" /><path
           d="M291.057,294.011c1.51,2.953,4.514,4.659,7.62,4.659c1.297,0,2.628-0.299,3.866-0.93     c0.503-0.256,50.731-25.771,75.503-33.596c4.489-1.425,6.98-6.221,5.555-10.709c-1.417-4.489-6.178-6.989-10.709-5.572     c-26.095,8.252-75.981,33.596-78.097,34.671C290.596,284.667,288.924,289.805,291.057,294.011z"
           id="path3454" /><path
           d="M206.748,158.366c-52.693-12.365-112.572,3.388-115.089,4.062c-4.548,1.22-7.253,5.896-6.033,10.453     c1.024,3.814,4.471,6.323,8.235,6.323c0.734,0,1.476-0.094,2.219-0.29c0.572-0.162,58.223-15.326,106.778-3.934     c4.565,1.067,9.182-1.775,10.257-6.366C214.189,164.032,211.339,159.441,206.748,158.366z"
           id="path3456" /><path
           d="M206.748,209.566c-52.693-12.356-112.572,3.388-115.089,4.062c-4.548,1.22-7.253,5.897-6.033,10.453     c1.024,3.814,4.471,6.323,8.235,6.323c0.734,0,1.476-0.094,2.219-0.29c0.572-0.162,58.223-15.326,106.778-3.934     c4.565,1.067,9.182-1.775,10.257-6.366C214.189,215.232,211.339,210.641,206.748,209.566z"
           id="path3458" /><path
           d="M291.057,345.211c1.51,2.953,4.514,4.659,7.62,4.659c1.297,0,2.628-0.299,3.866-0.93     c0.503-0.256,50.731-25.771,75.503-33.596c4.489-1.425,6.98-6.221,5.555-10.709c-1.417-4.488-6.178-6.989-10.709-5.572     c-26.095,8.252-75.981,33.596-78.097,34.671C290.596,335.867,288.924,341.005,291.057,345.211z"
           id="path3460" /><path
           d="M206.748,260.766c-52.693-12.356-112.572,3.379-115.089,4.062c-4.548,1.22-7.253,5.897-6.033,10.453     c1.024,3.814,4.471,6.332,8.235,6.332c0.734,0,1.476-0.102,2.219-0.299c0.572-0.162,58.223-15.326,106.778-3.934     c4.565,1.067,9.182-1.775,10.257-6.366C214.189,266.432,211.339,261.841,206.748,260.766z"
           id="path3462" /><path
           d="M206.748,363.166c-52.693-12.365-112.572,3.388-115.089,4.062c-4.548,1.22-7.253,5.897-6.033,10.453     c1.024,3.814,4.471,6.332,8.235,6.332c0.734,0,1.476-0.102,2.219-0.299c0.572-0.162,58.223-15.326,106.778-3.934     c4.565,1.058,9.182-1.775,10.257-6.366C214.189,368.832,211.339,364.241,206.748,363.166z"
           id="path3464" /><path
           d="M206.748,311.966c-52.693-12.365-112.572,3.379-115.089,4.062c-4.548,1.22-7.253,5.897-6.033,10.453     c1.024,3.814,4.471,6.332,8.235,6.332c0.734,0,1.476-0.102,2.219-0.299c0.572-0.162,58.223-15.326,106.778-3.934     c4.565,1.067,9.182-1.775,10.257-6.366C214.189,317.632,211.339,313.041,206.748,311.966z"
           id="path3466" /></g></g></g><g
     id="g3468" /><g
     id="g3470" /><g
     id="g3472" /><g
     id="g3474" /><g
     id="g3476" /><g
     id="g3478" /><g
     id="g3480" /><g
     id="g3482" /><g
     id="g3484" /><g
     id="g3486" /><g
     id="g3488" /><g
     id="g3490" /><g
     id="g3492" /><g
     id="g3494" /><g
     id="g3496" /><path
     style="fill:none"
     d="M 23.60369,507.17176 C 18.440185,504.59867 11.977267,499.55894 9.2416491,495.97237 -0.99012354,482.55782 -0.76688718,486.85383 -0.76688718,303.36649 c 0,-151.51261 0.30388527,-169.65974 2.88427068,-172.24012 3.9871926,-3.9872 11.2711745,-3.62974 13.5701555,0.66595 1.270442,2.37384 1.902298,59.99916 1.906884,173.90841 0.0066,165.62107 0.106309,170.52128 3.583264,176.22366 7.985581,13.09673 1.85485,12.43149 119.854263,13.00501 l 106.17284,0.51604 -0.55217,-10.53608 -0.55216,-10.53608 -12.37283,-4.1209 c -21.25067,-7.07779 -33.92071,-8.74326 -64.71586,-8.50689 -37.6996,0.28938 -78.598202,5.23207 -115.959868,14.01405 -9.910471,2.32949 -11.818761,2.32971 -15.142421,0.002 l -3.802914,-2.66367 0,-191.6576 0,-191.657615 4.129751,-2.697838 c 5.230422,-3.416872 42.81466,-11.034009 73.876662,-14.972467 30.33703,-3.846536 85.84991,-4.408487 100.94947,-1.021902 19.49054,4.371408 45.11992,13.252768 48.76609,16.898929 3.449,3.449005 3.54409,7.949224 3.54409,167.723313 l 0,164.17919 13.30698,-7.55966 c 22.19895,-12.61116 81.63977,-41.07165 105.99695,-50.75173 l 22.94306,-9.11808 0.46861,-165.28406 c 0.44494,-156.935364 0.30587,-165.225265 -2.75317,-164.12012 -13.81415,4.990656 -62.4282,28.963076 -90.29521,44.526109 -34.75736,19.411126 -36.49639,19.931664 -41.27565,12.35494 -3.09247,-4.902558 0.42888,-8.551469 19.29586,-19.994853 32.84302,-19.920273 116.91822,-60.18319994 125.6718,-60.18319994 1.31526,0 3.68932,1.29792184 5.27566,2.88427074 2.5823,2.5823103 2.88427,21.4730072 2.88427,180.4405232 0,139.31884 -0.49408,178.16295 -2.29431,180.37349 -1.26186,1.54948 -8.9019,5.15373 -16.97786,8.00942 -31.46169,11.12502 -77.16585,32.58954 -123.34545,57.92799 -14.5766,7.99809 -27.55544,14.54199 -28.84181,14.54199 -1.28639,0 -3.70584,-1.51044 -5.37653,-3.35655 -2.7803,-3.07219 -3.03765,-17.68262 -3.03765,-172.45197 l 0,-169.095428 -14.76621,-4.664648 c -23.66415,-7.475499 -37.78252,-8.940595 -74.25287,-7.705394 -36.50724,1.236453 -82.35241,7.122207 -104.161499,13.3726 -3.030691,0.86858 -3.212029,10.97849 -3.212029,179.07671 l 0,178.15614 6.882919,-1.02133 c 3.785605,-0.56174 16.794321,-2.70868 28.908258,-4.77097 64.899561,-11.04861 117.776191,-9.97269 156.012821,3.17453 l 14.68356,5.04876 13.76584,-4.32264 c 23.93172,-7.51486 38.69821,-9.9509 66.40139,-10.9543 36.20341,-1.31126 74.48784,2.47502 116.68424,11.53998 l 5.9652,1.28148 0,-178.12174 0,-178.12177 -5.9652,-1.2755 c -7.7997,-1.667765 -10.5538,-4.045387 -10.5538,-9.111118 0,-6.954167 4.15111,-8.777226 16.67582,-7.32358 20.2083,2.345424 18.19763,-19.651676 18.19763,199.085268 l 0,190.84396 -4.12975,2.689 c -3.67113,2.39039 -5.51305,2.30401 -16.58611,-0.77779 -31.21182,-8.68672 -100.60959,-16.29226 -126.11974,-13.82189 -17.39835,1.68484 -40.48077,6.07268 -54.14122,10.29196 l -11.9348,3.68629 0,10.07823 0,10.07822 105.99695,-0.51589 105.99695,-0.51588 6.17286,-4.40261 c 11.78579,-8.40585 11.26386,0.2578 11.26386,-186.97535 0,-130.07693 0.52109,-170.90933 2.20254,-172.59078 2.83117,-2.83118 9.28276,-2.83118 12.11394,0 1.68258,1.6826 2.19302,43.16918 2.16222,175.74385 -0.0384,165.1422 -0.20518,173.89665 -3.44676,180.88311 -1.87355,4.03797 -6.19165,9.98425 -9.59578,13.21395 -13.0053,12.33889 3.23484,11.56455 -242.5424,11.56455 l -222.705129,0 -9.388191,-4.67833 z"
     id="path3504"
     inkscape:connector-curvature="0" /><path
     style="fill:none"
     d="M 23.60369,507.17176 C 18.440185,504.59867 11.977267,499.55894 9.2416491,495.97237 -0.99012354,482.55782 -0.76688718,486.85383 -0.76688718,303.36649 c 0,-151.51261 0.30388527,-169.65974 2.88427068,-172.24012 3.9871926,-3.9872 11.2711745,-3.62974 13.5701555,0.66595 1.270442,2.37384 1.902298,59.99916 1.906884,173.90841 0.0066,165.62107 0.106309,170.52128 3.583264,176.22366 7.985581,13.09673 1.85485,12.43149 119.854263,13.00501 l 106.17284,0.51604 -0.55217,-10.53608 -0.55216,-10.53608 -12.37283,-4.1209 c -21.25067,-7.07779 -33.92071,-8.74326 -64.71586,-8.50689 -37.6996,0.28938 -78.598202,5.23207 -115.959868,14.01405 -9.910471,2.32949 -11.818761,2.32971 -15.142421,0.002 l -3.802914,-2.66367 0,-191.6576 0,-191.657615 4.129751,-2.697838 c 5.230422,-3.416872 42.81466,-11.034009 73.876662,-14.972467 30.33703,-3.846536 85.84991,-4.408487 100.94947,-1.021902 19.49054,4.371408 45.11992,13.252768 48.76609,16.898929 3.449,3.449005 3.54409,7.949224 3.54409,167.723313 l 0,164.17919 13.30698,-7.55966 c 22.19895,-12.61116 81.63977,-41.07165 105.99695,-50.75173 l 22.94306,-9.11808 0.46861,-165.28406 c 0.44494,-156.935364 0.30587,-165.225265 -2.75317,-164.12012 -13.81415,4.990656 -62.4282,28.963076 -90.29521,44.526109 -34.75736,19.411126 -36.49639,19.931664 -41.27565,12.35494 -3.09247,-4.902558 0.42888,-8.551469 19.29586,-19.994853 32.84302,-19.920273 116.91822,-60.18319994 125.6718,-60.18319994 1.31526,0 3.68932,1.29792184 5.27566,2.88427074 2.5823,2.5823103 2.88427,21.4730072 2.88427,180.4405232 0,139.31884 -0.49408,178.16295 -2.29431,180.37349 -1.26186,1.54948 -8.9019,5.15373 -16.97786,8.00942 -31.46169,11.12502 -77.16585,32.58954 -123.34545,57.92799 -14.5766,7.99809 -27.55544,14.54199 -28.84181,14.54199 -1.28639,0 -3.70584,-1.51044 -5.37653,-3.35655 -2.7803,-3.07219 -3.03765,-17.68262 -3.03765,-172.45197 l 0,-169.095428 -14.76621,-4.664648 c -23.66415,-7.475499 -37.78252,-8.940595 -74.25287,-7.705394 -36.50724,1.236453 -82.35241,7.122207 -104.161499,13.3726 -3.030691,0.86858 -3.212029,10.97849 -3.212029,179.07671 l 0,178.15614 6.882919,-1.02133 c 3.785605,-0.56174 16.794321,-2.70868 28.908258,-4.77097 64.899561,-11.04861 117.776191,-9.97269 156.012821,3.17453 l 14.68356,5.04876 13.76584,-4.32264 c 23.93172,-7.51486 38.69821,-9.9509 66.40139,-10.9543 36.20341,-1.31126 74.48784,2.47502 116.68424,11.53998 l 5.9652,1.28148 0,-178.12174 0,-178.12177 -5.9652,-1.2755 c -7.7997,-1.667765 -10.5538,-4.045387 -10.5538,-9.111118 0,-6.954167 4.15111,-8.777226 16.67582,-7.32358 20.2083,2.345424 18.19763,-19.651676 18.19763,199.085268 l 0,190.84396 -4.12975,2.689 c -3.67113,2.39039 -5.51305,2.30401 -16.58611,-0.77779 -31.21182,-8.68672 -100.60959,-16.29226 -126.11974,-13.82189 -17.39835,1.68484 -40.48077,6.07268 -54.14122,10.29196 l -11.9348,3.68629 0,10.07823 0,10.07822 105.99695,-0.51589 105.99695,-0.51588 6.17286,-4.40261 c 11.78579,-8.40585 11.26386,0.2578 11.26386,-186.97535 0,-130.07693 0.52109,-170.90933 2.20254,-172.59078 2.83117,-2.83118 9.28276,-2.83118 12.11394,0 1.68258,1.6826 2.19302,43.16918 2.16222,175.74385 -0.0384,165.1422 -0.20518,173.89665 -3.44676,180.88311 -1.87355,4.03797 -6.19165,9.98425 -9.59578,13.21395 -13.0053,12.33889 3.23484,11.56455 -242.5424,11.56455 l -222.705129,0 -9.388191,-4.67833 z"
     id="path3506"
     inkscape:connector-curvature="0" /><path
     style="fill:#000000"
     d="M 23.60369,507.17176 C 18.440185,504.59867 11.977267,499.55894 9.2416491,495.97237 -0.99012354,482.55782 -0.76688718,486.85383 -0.76688718,303.36649 c 0,-151.51261 0.30388527,-169.65974 2.88427068,-172.24012 3.9871926,-3.9872 11.2711745,-3.62974 13.5701555,0.66595 1.270442,2.37384 1.902298,59.99916 1.906884,173.90841 0.0066,165.62107 0.106309,170.52128 3.583264,176.22366 7.985581,13.09673 1.85485,12.43149 119.854263,13.00501 l 106.17284,0.51604 -0.55217,-10.53608 -0.55216,-10.53608 -12.37283,-4.1209 c -21.25067,-7.07779 -33.92071,-8.74326 -64.71586,-8.50689 -37.6996,0.28938 -78.598202,5.23207 -115.959868,14.01405 -9.910471,2.32949 -11.818761,2.32971 -15.142421,0.002 l -3.802914,-2.66367 0,-191.6576 0,-191.657615 4.129751,-2.697838 c 5.230422,-3.416872 42.81466,-11.034009 73.876662,-14.972467 30.33703,-3.846536 85.84991,-4.408487 100.94947,-1.021902 19.49054,4.371408 45.11992,13.252768 48.76609,16.898929 3.449,3.449005 3.54409,7.949224 3.54409,167.723313 l 0,164.17919 13.30698,-7.55966 c 22.19895,-12.61116 81.63977,-41.07165 105.99695,-50.75173 l 22.94306,-9.11808 0.46861,-165.28406 c 0.44494,-156.935364 0.30587,-165.225265 -2.75317,-164.12012 -13.81415,4.990656 -62.4282,28.963076 -90.29521,44.526109 -34.75736,19.411126 -36.49639,19.931664 -41.27565,12.35494 -3.09247,-4.902558 0.42888,-8.551469 19.29586,-19.994853 32.84302,-19.920273 116.91822,-60.18319994 125.6718,-60.18319994 1.31526,0 3.68932,1.29792184 5.27566,2.88427074 2.5823,2.5823103 2.88427,21.4730072 2.88427,180.4405232 0,139.31884 -0.49408,178.16295 -2.29431,180.37349 -1.26186,1.54948 -8.9019,5.15373 -16.97786,8.00942 -31.46169,11.12502 -77.16585,32.58954 -123.34545,57.92799 -14.5766,7.99809 -27.55544,14.54199 -28.84181,14.54199 -1.28639,0 -3.70584,-1.51044 -5.37653,-3.35655 -2.7803,-3.07219 -3.03765,-17.68262 -3.03765,-172.45197 l 0,-169.095428 -14.76621,-4.664648 c -23.66415,-7.475499 -37.78252,-8.940595 -74.25287,-7.705394 -36.50724,1.236453 -82.35241,7.122207 -104.161499,13.3726 -3.030691,0.86858 -3.212029,10.97849 -3.212029,179.07671 l 0,178.15614 6.882919,-1.02133 c 3.785605,-0.56174 16.794321,-2.70868 28.908258,-4.77097 64.899561,-11.04861 117.776191,-9.97269 156.012821,3.17453 l 14.68356,5.04876 13.76584,-4.32264 c 23.93172,-7.51486 38.69821,-9.9509 66.40139,-10.9543 36.20341,-1.31126 74.48784,2.47502 116.68424,11.53998 l 5.9652,1.28148 0,-178.12174 0,-178.12177 -5.9652,-1.2755 c -7.7997,-1.667765 -10.5538,-4.045387 -10.5538,-9.111118 0,-6.954167 4.15111,-8.777226 16.67582,-7.32358 20.2083,2.345424 18.19763,-19.651676 18.19763,199.085268 l 0,190.84396 -4.12975,2.689 c -3.67113,2.39039 -5.51305,2.30401 -16.58611,-0.77779 -31.21182,-8.68672 -100.60959,-16.29226 -126.11974,-13.82189 -17.39835,1.68484 -40.48077,6.07268 -54.14122,10.29196 l -11.9348,3.68629 0,10.07823 0,10.07822 105.99695,-0.51589 105.99695,-0.51588 6.17286,-4.40261 c 11.78579,-8.40585 11.26386,0.2578 11.26386,-186.97535 0,-130.07693 0.52109,-170.90933 2.20254,-172.59078 2.83117,-2.83118 9.28276,-2.83118 12.11394,0 1.68258,1.6826 2.19302,43.16918 2.16222,175.74385 -0.0384,165.1422 -0.20518,173.89665 -3.44676,180.88311 -1.87355,4.03797 -6.19165,9.98425 -9.59578,13.21395 -13.0053,12.33889 3.23484,11.56455 -242.5424,11.56455 l -222.705129,0 -9.388191,-4.67833 z"
     id="path3508"
     inkscape:connector-curvature="0" /><path
     style="fill:#000000"
     d="M 25.496798,508.62399 C 15.207054,503.35873 7.4399404,495.5637 3.2419455,486.28919 l -3.50272317,-7.73849 -0.4844447,-163.63636 c -0.26644453,-90 -0.0410536,-167.90396 0.50086864,-173.11992 1.05959606,-10.19852 3.48985713,-14.00129 8.94788063,-14.00129 8.5436121,0 8.0667561,-9.56205 8.7689181,175.83684 l 0.645864,170.53382 3.26875,6.73891 c 1.797813,3.7064 4.720524,7.64029 6.494912,8.74196 6.187791,3.84186 30.073315,4.76148 124.365089,4.78821 l 94.93207,0.0269 -0.80203,-9.46969 c -0.4411,-5.20834 -1.22873,-9.92123 -1.75026,-10.4731 -1.59806,-1.69103 -26.08931,-8.6035 -37.14907,-10.48504 -7.07106,-1.20296 -22.48261,-1.50835 -47.72727,-0.94574 -39.279,0.87538 -61.22479,3.33951 -96.374914,10.8213 -21.704145,4.61977 -23.788171,4.7057 -27.037897,1.11479 -2.305385,-2.54743 -2.507558,-18.16496 -2.507558,-193.70456 0,-181.776395 0.130505,-191.051857 2.721058,-193.396277 3.318368,-3.00308 21.533192,-7.436012 50.524955,-12.29623 33.592166,-5.631435 58.195866,-7.353053 93.247016,-6.524862 28.44541,0.67211 32.94844,1.148201 45.93121,4.856162 18.95317,5.413141 35.79653,12.474225 37.37166,15.666965 0.69559,1.409956 1.45281,76.029462 1.68272,165.821132 0.2299,89.79167 0.67576,163.25758 0.99081,163.25758 0.31504,0 4.89966,-2.4572 10.18804,-5.46043 26.97665,-15.31985 81.06521,-41.11206 112.64556,-53.71521 l 18.18182,-7.25604 0,-163.6279 c 0,-89.99535 -0.43471,-164.062485 -0.96603,-164.593635 -2.09942,-2.098744 -64.94995,28.688103 -105.46324,51.660339 -9.36943,5.312747 -18.29785,9.65954 -19.84093,9.65954 -5.58001,0 -9.77198,-8.244953 -6.66115,-13.101455 4.69474,-7.329206 91.81729,-52.901368 129.14347,-67.5525085 15.24158,-5.9825682 15.88079,-6.0742178 19.86458,-2.8481672 l 3.62027,2.9316628 0,178.1220539 c 0,176.16538 -0.0333,178.15326 -3.0303,180.96182 -1.66667,1.56187 -13.25758,6.80253 -25.75758,11.64591 -31.00348,12.01297 -67.4002,29.1958 -107.62644,50.81029 -18.54885,9.96671 -34.47788,18.1213 -35.39785,18.1213 -0.91997,0 -3.03632,-1.36363 -4.70298,-3.0303 -2.99417,-2.99417 -3.0303,-5.0505 -3.0303,-172.47349 l 0,-169.443168 -15.53031,-4.773373 c -8.54166,-2.625354 -20.25338,-5.557863 -26.02603,-6.516686 -13.72868,-2.280297 -70.97787,-0.891389 -96.32245,2.336856 -22.990816,2.928435 -51.090938,8.111967 -54.833556,10.114961 -2.622177,1.40334 -2.742204,9.22456 -2.742204,178.68699 0,113.77696 0.52741,177.21942 1.473262,177.21942 0.810295,0 11.069309,-1.68324 22.79781,-3.74053 36.572858,-6.41521 62.406558,-8.85297 93.910748,-8.86175 32.73635,-0.009 48.93727,2.37127 73.30629,10.77091 l 12.81418,4.41686 17.81845,-5.12186 c 28.55444,-8.2079 43.02205,-10.11128 75.60653,-9.94687 31.31462,0.15799 60.51709,3.00181 90.15152,8.77918 10.41666,2.03079 19.10985,3.69497 19.31818,3.6982 0.20833,0.003 0.37879,-80.03189 0.37879,-177.85582 l 0,-177.86168 -5.68182,-1.054397 c -10.14333,-1.882346 -14.28246,-9.405153 -8.40733,-15.280273 3.83927,-3.839274 23.82827,-2.011909 28.76942,2.630058 l 3.50155,3.289534 0,192.192608 0,192.19262 -3.86685,1.76185 c -3.13505,1.42843 -6.50428,1.13044 -17.80303,-1.57454 -43.21443,-10.34575 -104.51265,-16.14043 -132.118,-12.48944 -17.30078,2.28813 -33.36003,5.52616 -47.34849,9.54686 l -10.98485,3.15738 0,9.61495 0,9.61494 105.0064,0 105.00639,0 7.01732,-4.45024 c 5.1172,-3.24524 7.535,-6.01453 8.92923,-10.22727 1.47998,-4.4719 2.03281,-44.11449 2.44704,-175.474 0.58173,-184.46928 0.18744,-176.51515 8.74976,-176.51515 2.06412,0 5.11659,1.36363 6.78326,3.0303 2.99412,2.99412 3.0303,5.0505 3.0303,172.24909 0,193.15744 0.79339,180.75606 -12.4942,195.2948 -6.24001,6.82758 -9.09871,8.67752 -17.34516,11.22459 -9.70717,2.99825 -13.58464,3.0485 -229.78994,2.97916 l -219.916154,-0.0705 -7.575758,-3.87653 z"
     id="path3510"
     inkscape:connector-curvature="0" /><path
     style="fill:#000000"
     d="m 23.909904,508.24046 c -9.48675,-5.45862 -17.6166468,-14.30342 -21.7628186,-23.67655 -3.1489414,-7.11869 -3.1654388,-8.03889 -3.1654388,-176.56172 0,-168.66382 0.204483,-175.95731 5.0190319,-179.01866 3.1134396,-1.9797 8.0562905,-1.2928 10.5139955,1.46111 2.101651,2.35495 2.484783,21.7168 3.425423,173.10606 0.990728,159.45108 1.235218,170.86199 3.787386,176.76615 1.500559,3.47138 4.467662,7.45129 6.593565,8.84423 5.886238,3.8568 39.761673,5.17511 134.675752,5.24106 l 82.95454,0.0577 0,-8.04374 c 0,-4.42406 -0.85227,-9.16653 -1.89394,-10.53882 -2.30874,-3.04153 -25.02039,-9.74191 -40.5303,-11.95721 -14.12806,-2.01794 -69.18666,-0.46226 -94.69697,2.67565 -9.999999,1.23006 -28.409089,4.24994 -40.909089,6.71083 -26.726834,5.26175 -28.297113,5.34707 -31.583352,1.71581 -2.305385,-2.54743 -2.507558,-18.16496 -2.507558,-193.70456 0,-182.556671 0.120714,-191.042997 2.751347,-193.423688 5.239013,-4.741239 53.538094,-14.367145 88.157742,-17.569653 21.66712,-2.004325 71.56738,-2.058628 85.16032,-0.09268 11.8818,1.718474 36.8208,9.428518 46.81535,14.473253 6.69283,3.3782 7.01482,3.84699 7.94138,11.562124 0.53113,4.422645 0.97163,78.057745 0.97888,163.633555 0.008,97.34531 0.55562,155.92765 1.46219,156.48797 0.79696,0.49254 10.17196,-3.80791 20.83334,-9.55655 25.74641,-13.88256 67.10709,-33.43292 95.14188,-44.9717 l 22.72727,-9.35425 0.38557,-164.03763 0.38556,-164.037598 -4.17343,0.967989 c -5.99861,1.391324 -64.15461,30.159768 -93.5141,46.259282 -13.75175,7.540891 -26.32939,13.710711 -27.95031,13.710711 -4.60729,0 -7.93053,-4.331016 -7.41208,-9.659746 0.41685,-4.284426 2.18796,-5.777315 18.64242,-15.713942 21.93173,-13.244268 87.64314,-46.093025 110.2201,-55.0983908 l 16.28069,-6.4939515 4.17385,3.1170436 4.17385,3.1170438 0,178.2032189 c 0,176.24866 -0.0332,178.23428 -3.0303,181.03654 -1.66667,1.55834 -12.91667,6.78593 -25,11.61687 -32.91752,13.16047 -62.94564,27.28728 -104.62708,49.22212 -20.63521,10.85925 -38.26307,19.7441 -39.17301,19.7441 -0.90996,0 -3.0181,-1.36363 -4.68476,-3.0303 -2.99406,-2.99406 -3.0303,-5.0505 -3.0303,-171.91639 0,-161.20452 -0.12429,-168.9526 -2.7327,-170.348579 C 237.21187,95.138908 206.21721,88.343264 191.40589,87.472268 159.37412,85.588603 80.18456,92.812794 59.815077,99.476846 l -5.5304,1.809314 -1.209774,12.8747 c -1.278181,13.60268 -0.845653,340.13414 0.452198,341.38198 0.416667,0.4006 10.30303,-0.89585 21.969697,-2.881 38.121842,-6.48667 62.052962,-8.6908 94.696972,-8.72194 33.6256,-0.0321 48.35313,2.06198 72.61386,10.32467 6.18764,2.10737 12.51603,3.83159 14.06314,3.83159 1.54709,0 9.43903,-1.96794 17.53763,-4.37319 26.52572,-7.87803 41.85472,-9.85174 75.33082,-9.69934 31.42003,0.14303 60.11953,2.79286 88.63637,8.18383 8.75,1.65415 17.10227,3.36085 18.5606,3.79265 2.51465,0.74458 2.65152,-8.39897 2.65152,-177.14906 l 0,-177.93416 -5.49096,-0.89106 c -9.53891,-1.547949 -13.45616,-7.564787 -9.60725,-14.756554 2.72607,-5.093702 24.10625,-3.783564 30.15056,1.84757 l 3.14101,2.926301 -0.38456,192.702173 -0.38456,192.70218 -4.02955,1.41708 c -2.97233,1.04529 -8.89666,0.33814 -22.58048,-2.69526 -41.66136,-9.23542 -97.77827,-14.47777 -123.38997,-11.52688 -17.53294,2.0201 -31.27405,4.67343 -48.86364,9.43535 l -12.5,3.38405 0,9.49897 0,9.49898 105.0757,0 105.0757,0 6.20918,-4.49791 c 3.41506,-2.47384 7.08804,-6.05339 8.16221,-7.95454 2.34311,-4.14702 3.85515,-95.60135 4.1035,-248.19526 0.14197,-87.23353 0.44786,-99.69281 2.52023,-102.65152 2.95297,-4.21595 8.77513,-4.35487 12.82401,-0.306 3.04094,3.04094 3.0587,4.22028 2.65152,176.13637 -0.40977,173.01104 -0.41112,173.07744 -3.63586,179.89311 -3.92884,8.30378 -14.33776,18.59496 -22.53164,22.27675 -5.73214,2.57565 -18.2138,2.74375 -230.30303,3.10162 l -224.242426,0.37838 -7.6475,-4.40033 z"
     id="path3512"
     inkscape:connector-curvature="0" /><path
     style="fill:#29b200;fill-opacity:1"
     d="m 20.775915,506.32488 c -9.339768,-6.23686 -15.2048601,-13.25807 -19.2999183,-23.1043 -2.06645498,-4.96862 -2.34283498,-25.75886 -2.34283498,-176.23597 0,-125.61565 0.45935091,-171.47552 1.74197576,-173.9123 2.21422512,-4.20669 4.22576662,-5.52996 8.45036822,-5.55901 7.9243543,-0.0545 7.6105593,-6.2155 9.0285603,177.26539 1.296473,167.75581 1.367082,170.56666 4.434087,176.51515 1.714148,3.3246 4.974274,6.95356 7.244724,8.06433 6.448239,3.15467 50.95763,4.68943 137.660893,4.74674 l 78.40909,0.0519 0,-4.35606 c 0,-2.39583 -0.4415,-6.56356 -0.98111,-9.26162 -1.16322,-5.81611 -4.75494,-7.61988 -26.29162,-13.20373 -14.05641,-3.64442 -15.38876,-3.7141 -56.81818,-2.97135 -43.54121,0.78061 -62.854431,2.76455 -98.688528,10.1377 -16.633565,3.42249 -24.919047,3.77476 -27.523594,1.17021 -1.395,-1.395 -1.818181,-46.4798 -1.818181,-193.70456 0,-180.83231 0.152747,-192.023466 2.651515,-194.266013 4.254859,-3.818569 29.983038,-9.685911 65.530298,-14.944266 25.69984,-3.801666 85.76446,-5.55774 104.3611,-3.051145 21.37754,2.881426 54.63428,14.27762 57.23981,19.614552 0.68835,1.409956 1.59838,74.950242 2.02229,163.422862 0.42391,88.47262 1.29726,161.3855 1.94076,162.0286 0.64351,0.64311 17.00715,-6.74428 36.36364,-16.41644 35.33868,-17.65821 69.87374,-33.5056 89.87031,-41.23954 l 10.73732,-4.1528 1.00511,-104.65326 c 0.55282,-57.5593 1.00512,-131.5185 1.00512,-164.353791 l 0,-59.700521 -3.40909,0.992506 c -5.95715,1.734334 -58.37217,27.583784 -89.40588,44.092174 -31.89756,16.967928 -36.53176,18.282538 -39.97461,11.339863 -3.14601,-6.344076 -0.32039,-9.53916 18.51611,-20.937244 21.74279,-13.156694 87.46664,-46.063411 110.09962,-55.1248524 l 16.2807,-6.5182112 4.17385,3.1172105 4.17384,3.1172104 0,176.3506557 c 0,96.99286 -0.50193,178.13636 -1.11542,180.31888 -0.96582,3.436 -4.42059,5.34188 -25.75758,14.20962 -38.52359,16.01059 -62.49207,27.28209 -104.00466,48.90962 -21.1494,11.01856 -39.62326,20.03374 -41.05305,20.03374 -1.4298,0 -3.84553,-1.37671 -5.36832,-3.05936 -2.63543,-2.91214 -2.8108,-11.20597 -3.64392,-172.34849 l -0.87523,-169.289117 -8.33333,-2.685029 c -23.59782,-7.603303 -36.59508,-9.03715 -74.24242,-8.190367 -19.58334,0.440479 -44.81061,1.910093 -56.06061,3.265809 -23.732616,2.859973 -50.104726,7.914235 -52.22884,10.009754 -1.941083,1.91495 -3.036914,204.28286 -1.563617,288.75448 l 1.118834,64.14838 3.543347,0 c 1.94884,0 13.97086,-1.66713 26.7156,-3.70475 35.992936,-5.75453 52.569456,-7.14405 85.293466,-7.1497 33.84777,-0.006 46.48697,1.67762 71.60598,9.53753 l 15.54538,4.86426 17.03038,-4.74805 c 28.02194,-7.81247 40.70089,-9.40535 74.86432,-9.40535 34.54765,0 49.43953,1.24564 84.2516,7.04726 13.14705,2.19103 24.39705,3.49036 25,2.88741 0.60296,-0.60296 1.34147,-80.09862 1.64117,-176.65703 l 0.54489,-175.56077 -4.33277,-1.04076 c -9.46645,-2.273926 -12.6661,-4.913653 -12.6661,-10.449586 0,-7.238129 3.79362,-8.977296 17.14119,-7.858282 8.0017,0.670833 11.40626,1.695013 14.12506,4.249201 l 3.58223,3.365329 0,192.888838 0,192.88885 -4.08617,1.02556 c -2.24739,0.56406 -7.87239,0.31889 -12.5,-0.54482 -93.05084,-17.36724 -131.11101,-18.2887 -181.89868,-4.40388 l -12.87879,3.52092 -0.45109,9.32088 -0.45107,9.32088 105.15744,0 105.15745,0 6.85387,-5.23332 c 4.8728,-3.72066 7.1281,-6.67677 7.80271,-10.22727 0.52186,-2.74667 1.6691,-81.35759 2.54941,-174.69092 1.72766,-183.17286 1.36972,-176.51515 9.49025,-176.51515 1.90485,0 4.78687,0.96784 6.40447,2.15077 2.88182,2.10741 2.94111,5.65841 2.94111,176.13636 0,173.54237 -0.008,174.00296 -3.18014,180.80377 -1.74907,3.75 -6.06595,9.7739 -9.59307,13.38644 -12.37696,12.67675 10.16392,11.56417 -243.4574,12.01647 l -225.927581,0.40293 -9.077844,-6.06196 z"
     id="path3514"
     inkscape:connector-curvature="0" /><path
     style="fill:#29b200;fill-opacity:1"
     d="m 87.845283,176.39838 c -3.437454,-3.80467 -3.372175,-8.3925 0.164961,-11.59356 6.553551,-5.93088 57.631566,-12.48321 85.062316,-10.91187 17.71484,1.01479 35.68071,4.04955 37.85409,6.39426 3.41281,3.68184 3.14982,8.15489 -0.70616,12.01088 -2.17215,2.17214 -4.8748,3.59423 -6.00589,3.16019 -12.31886,-4.72719 -65.85539,-4.90928 -88.7178,-0.30175 -21.551062,4.34325 -24.720842,4.48561 -27.651517,1.24185 z"
     id="path4316"
     inkscape:connector-curvature="0" /><path
     style="fill:#29b200;fill-opacity:1"
     d="m 87.836906,227.8994 c -4.733895,-5.2309 -2.431428,-12.60044 4.562801,-14.60422 6.607879,-1.8931 28.122563,-5.60218 40.521333,-6.98579 24.62512,-2.74796 55.46687,-1.44486 72.15434,3.04861 7.88256,2.12255 10.48369,7.16563 6.68565,12.96217 -2.51262,3.83475 -3.09507,3.99205 -11.19977,3.02479 -33.08255,-3.94825 -60.46627,-3.50999 -86.57961,1.38565 -23.213799,4.35204 -23.261988,4.35419 -26.144744,1.16879 z"
     id="path4318"
     inkscape:connector-curvature="0" /><path
     style="fill:#29b200;fill-opacity:1"
     d="m 88.372356,279.15353 c -6.775011,-6.77501 -2.968011,-13.04336 9.716254,-15.99812 40.15422,-9.3538 105.35143,-8.88976 113.24152,0.80601 3.36733,4.13796 3.33825,6.28428 -0.14342,10.58396 -2.78791,3.44293 -2.83076,3.44621 -17.04546,1.30422 -26.99532,-4.06787 -64.17474,-1.95572 -98.571924,5.59986 -2.884458,0.63359 -4.915328,-0.0143 -7.19697,-2.29593 z"
     id="path4320"
     inkscape:connector-curvature="0" /><path
     style="fill:#29b200;fill-opacity:1"
     d="m 90.16334,332.0064 c -4.060658,-1.6355 -5.849077,-7.6176 -3.557489,-11.89948 3.228041,-6.03165 30.196259,-10.87724 66.216979,-11.89772 33.58345,-0.95144 52.27157,1.165 57.63359,6.52702 4.36739,4.36739 4.45029,7.28336 0.32436,11.40929 -2.55912,2.55912 -4.30584,3.00794 -8.71212,2.23861 -28.28581,-4.93866 -55.94372,-4.78441 -86.60619,0.48301 -9.60222,1.64954 -18.465852,3.33552 -19.696971,3.74663 -1.231119,0.4111 -3.75209,0.13779 -5.602159,-0.60736 z"
     id="path4322"
     inkscape:connector-curvature="0" /><path
     style="fill:#29b200;fill-opacity:1"
     d="m 87.845283,380.94384 c -6.002703,-6.64397 -2.028034,-12.62102 10.227273,-15.37963 35.690764,-8.03383 81.949874,-9.39009 105.685874,-3.0986 6.89893,1.82864 11.16345,7.40625 8.89847,11.63841 -3.36449,6.2866 -5.05859,6.6238 -20.08099,3.99702 -17.00201,-2.97293 -56.83156,-2.11102 -76.32154,1.65159 -22.382636,4.32105 -25.464577,4.45028 -28.409087,1.19121 z"
     id="path4324"
     inkscape:connector-curvature="0" /><path
     style="fill:#29b200;fill-opacity:1"
     d="m 292.76953,347.18707 c -3.96045,-3.96045 -3.83545,-7.82157 0.37878,-11.70069 4.00812,-3.6894 49.15572,-25.07538 68.02939,-32.22486 14.88018,-5.63672 20.33125,-5.42192 21.90874,0.86331 1.8066,7.19807 -0.82711,9.46734 -19.87875,17.12802 -10.00571,4.0233 -28.34572,12.18621 -40.75559,18.13981 -12.40986,5.95359 -23.48339,10.82471 -24.60783,10.82471 -1.12444,0 -3.40808,-1.36364 -5.07474,-3.0303 z"
     id="path4326"
     inkscape:connector-curvature="0" /><path
     style="fill:#29b200;fill-opacity:1"
     d="m 292.09786,295.33478 c -3.09636,-4.42068 -2.98073,-7.72113 0.37698,-10.75982 6.39114,-5.7839 77.00958,-37.38789 83.54244,-37.38789 6.02516,0 10.33656,11.07541 5.7674,14.81567 -1.04167,0.8527 -7.6894,3.76801 -14.77273,6.47847 -7.08333,2.71047 -25.049,10.61902 -39.9237,17.57456 -14.87471,6.95555 -28.30196,12.64645 -29.83833,12.64645 -1.53638,0 -3.8548,-1.51535 -5.15206,-3.36744 z"
     id="path4328"
     inkscape:connector-curvature="0" /><path
     style="fill:#29b200;fill-opacity:1"
     d="m 291.83195,243.33712 c -4.77692,-7.2905 -1.57817,-10.2342 24.79847,-22.82121 13.12651,-6.26401 31.67447,-14.5132 41.2177,-18.33153 16.0393,-6.41746 17.64325,-6.77937 21.21212,-4.78623 2.63087,1.46929 4.00984,3.68011 4.32863,6.93988 0.57336,5.86276 -1.16788,7.09757 -20.92237,14.83729 -7.91667,3.10171 -24.89315,10.67324 -37.72552,16.82561 -12.83237,6.15237 -24.91892,11.18614 -26.85901,11.18614 -2.10582,0 -4.54408,-1.5516 -6.05002,-3.84995 z"
     id="path4330"
     inkscape:connector-curvature="0" /><path
     style="fill:#29b200;fill-opacity:1"
     d="m 292.0672,192.70266 c -1.86803,-2.06415 -2.38227,-4.18392 -1.68699,-6.95412 0.85078,-3.38979 4.89379,-5.86317 27.07351,-16.56268 29.57196,-14.26553 53.01039,-23.89273 58.16934,-23.89273 4.9231,0 8.05556,3.07399 8.05556,7.90523 0,5.40792 -2.97131,7.70205 -16.66667,12.86822 -6.25,2.35763 -23.56035,9.98331 -38.46744,16.94596 -14.9071,6.96266 -28.60824,12.65937 -30.44699,12.65937 -1.83875,0 -4.55239,-1.33616 -6.03032,-2.96925 z"
     id="path4332"
     inkscape:connector-curvature="0" /><path
     style="fill:#29b200;fill-opacity:1"
     d="m 292.76953,142.64161 c -3.46888,-3.46888 -3.87285,-7.39062 -1.13637,-11.03184 3.96851,-5.28058 75.91312,-37.453008 83.75315,-37.453008 6.43892,0 10.57758,7.695528 7.08963,13.182658 -0.63596,1.00045 -8.86082,4.91541 -18.27747,8.6999 -9.41666,3.78449 -27.82402,12.00002 -40.90525,18.25674 -13.08123,6.25672 -24.61866,11.37585 -25.63872,11.37585 -1.02007,0 -3.21831,-1.36363 -4.88497,-3.0303 z"
     id="path4334"
     inkscape:connector-curvature="0" /><path
     style="fill:#29b200;fill-opacity:1"
     d="m 280.43292,85.354927 c -1.17264,-0.08863 -2.13555,-0.405749 -3.2619,-1.074266 -0.19719,-0.11704 -0.48912,-0.28802 -0.64873,-0.379955 -0.73246,-0.421913 -1.42785,-1.171956 -2.05613,-2.217732 -0.27746,-0.46182 -0.71095,-1.319951 -0.93475,-1.850388 -0.24126,-0.571841 -0.59233,-1.619366 -0.67885,-2.025567 -0.18555,-0.871123 -0.01,-2.178498 0.43004,-3.197381 0.0834,-0.19335 0.23188,-0.557154 0.32984,-0.808453 0.17714,-0.454421 0.52731,-1.172967 0.71959,-1.476587 l 0.10071,-0.159032 17.04985,3.17e-4 17.04985,3.17e-4 -0.13392,0.07818 c -0.14306,0.08351 -2.47241,1.302142 -4.5366,2.373385 -3.49305,1.812768 -7.8351,3.991192 -10.02739,5.030781 -1.35156,0.640915 -2.42452,1.181107 -2.86979,1.444821 -0.53085,0.314406 -2.63897,1.596511 -4.01527,2.441985 -0.63794,0.391899 -1.33063,0.798165 -1.53929,0.902814 -0.75708,0.37969 -1.55764,0.643573 -2.3721,0.781903 -0.37311,0.06337 -1.34771,0.142168 -1.59131,0.128659 -0.0552,-0.0031 -0.22097,0.0035 -0.36829,0.01459 -0.14731,0.01109 -0.43781,0.0073 -0.64556,-0.0084 z"
     id="path4336"
     inkscape:connector-curvature="0" /><path
     style="fill:#29b200;fill-opacity:1"
     d="m 245.60584,149.0844 c -7.4e-4,-0.67212 -0.0596,-12.04709 -0.13078,-25.27771 -0.12338,-22.92951 -0.13507,-24.063315 -0.24976,-24.218973 -0.0662,-0.08982 -0.18059,-0.194499 -0.25425,-0.232626 -0.13344,-0.06908 -6.89854,-2.254602 -10.14457,-3.277293 -9.71757,-3.061614 -17.54149,-4.91643 -25.49535,-6.044181 l -1.55684,-0.220739 0,-9.96626 0,-9.966259 0.21762,0.037 c 0.1197,0.02035 0.62441,0.09814 1.1216,0.172858 5.77223,0.867498 13.79278,2.698902 21.7288,4.961534 16.16166,4.607838 29.68794,10.28014 32.46145,13.612844 0.4217,0.506727 0.4922,0.679114 0.54951,1.343572 0.0254,0.294628 0.13125,0.806879 0.2352,1.138335 0.33599,1.07139 0.41067,1.585892 0.47136,3.247602 0.0316,0.865469 0.0874,1.905037 0.12392,2.31015 0.23418,2.59561 0.40584,15.190545 0.65003,47.692875 l 0.0444,5.9093 -9.8855,0 -9.8855,0 -0.001,-1.22203 0,0 z"
     id="path4338"
     inkscape:connector-curvature="0" /><path
     style="fill:#29b200;fill-opacity:1"
     d="m 297.17981,145.59595 c -0.845,-0.22764 -2.00728,-0.92296 -3.40685,-2.03811 -1.20145,-0.9573 -1.65552,-1.44411 -2.41714,-2.59144 -1.40483,-2.11631 -1.81727,-4.08539 -1.2924,-6.1703 0.30943,-1.22915 1.02089,-2.58151 1.83303,-3.48424 0.17072,-0.18976 0.37678,-0.42745 0.45793,-0.52821 0.25651,-0.31849 1.02795,-0.97228 1.56798,-1.32884 0.31461,-0.20771 1.49573,-0.83709 2.98296,-1.58951 1.35416,-0.68509 2.95218,-1.50586 3.55113,-1.82393 6.44716,-3.42362 15.71991,-7.91698 26.13637,-12.66505 3.17546,-1.44745 13.01403,-5.85739 16.00379,-7.17338 3.27815,-1.44293 8.11719,-3.52682 8.18969,-3.52682 0.0139,0 0.0253,4.28385 0.0253,9.51966 l 0,9.51967 -0.24858,0.11168 c -0.13672,0.0614 -1.76137,0.78265 -3.61032,1.60273 -8.29012,3.67698 -15.89863,7.17119 -23.59521,10.83611 -5.58725,2.66051 -9.45995,4.46799 -13.88775,6.48174 -0.85,0.38658 -2.90611,1.38192 -4.56913,2.21187 -3.2835,1.63867 -3.57837,1.76184 -4.72431,1.97349 -0.3418,0.0631 -0.81315,0.18793 -1.04744,0.27734 -0.70869,0.27045 -1.33861,0.45831 -1.52569,0.45502 -0.0973,-0.002 -0.28784,-0.033 -0.42333,-0.0695 z"
     id="path4340"
     inkscape:connector-curvature="0" /><path
     style="fill:#29b200;fill-opacity:1"
     d="m 245.72561,170.75512 c -0.005,-0.0225 -0.1357,-23.60226 -0.20635,-37.25142 -0.039,-7.53907 -0.0848,-15.48118 -0.10181,-17.64915 l -0.0309,-3.94176 9.82395,0 9.82395,0 0.0309,1.92945 c 0.10245,6.38916 0.29028,30.84797 0.3348,43.59611 0.0139,3.98438 0.0386,8.61329 0.0549,10.28646 l 0.0296,3.04214 -9.8782,0 c -5.43302,0 -9.87941,-0.005 -9.88088,-0.0118 z"
     id="path4342"
     inkscape:connector-curvature="0" /><path
     style="fill:#29b200;fill-opacity:1"
     d="m 345.56322,114.47425 0,-9.57341 0.62145,-0.26855 c 1.40473,-0.60704 3.52658,-1.51539 4.12523,-1.76599 0.35157,-0.14716 1.076,-0.45078 1.60985,-0.67472 2.59856,-1.09001 5.62903,-2.323704 7.8758,-3.206201 l 0.93926,-0.368923 11.18949,0 11.1895,0 0.10177,0.218987 c 0.37,0.796113 0.6299,1.727287 0.73843,2.645597 0.0497,0.42038 0.0559,1.35643 0.0117,1.75189 -0.1347,1.20463 -0.45913,2.25299 -1.01471,3.27889 -0.27746,0.51233 -0.48233,0.84371 -0.60629,0.98068 -0.0671,0.0741 -0.21771,0.25132 -0.33474,0.39379 -0.77776,0.94681 -1.8786,1.78598 -3.00691,2.29214 -0.40233,0.18049 -0.68991,0.28416 -1.64536,0.59315 -2.38252,0.77049 -3.57487,1.19269 -4.36789,1.54664 -2.67109,1.19217 -5.24172,2.28091 -8.59375,3.63969 -5.14795,2.08679 -10.12596,4.22116 -17.6965,7.58757 -0.59245,0.26344 -1.09049,0.48421 -1.10677,0.49058 -0.0236,0.009 -0.0296,-1.91268 -0.0296,-9.56181 z"
     id="path4344"
     inkscape:connector-curvature="0" /><path
     style="fill:#29b200;fill-opacity:1"
     d="m 311.00318,130.36339 0,-9.67259 1.81108,-0.87226 c 4.22383,-2.03432 8.69583,-4.12954 13.36411,-6.26134 4.16012,-1.89974 15.33355,-6.89855 18.24364,-8.1619 0.50275,-0.21826 1.02476,-0.44733 1.16003,-0.50904 0.94663,-0.43186 6.66994,-2.85096 9.31318,-3.93644 6.32091,-2.595757 12.63559,-4.96159 16.97444,-6.359571 1.80813,-0.582582 2.18507,-0.663755 3.27427,-0.7051 0.85757,-0.03255 1.56266,0.03573 2.34715,0.227289 3.14943,0.769064 5.59953,3.271516 6.3039,6.438622 0.47762,2.14748 0.14194,4.25766 -0.99257,6.23969 -0.67491,1.17909 -1.9697,2.41732 -3.28597,3.14244 -0.49831,0.27451 -1.01226,0.46836 -2.86459,1.08041 -2.39484,0.79131 -2.93321,0.99157 -4.35606,1.62038 -2.57183,1.13658 -4.48128,1.93956 -9.06723,3.81306 -4.99602,2.04102 -8.58524,3.58741 -17.63731,7.59892 -6.96969,3.08868 -14.5507,6.57963 -22.7983,10.49831 -5.42532,2.57774 -11.67036,5.4917 -11.76947,5.4917 -0.0112,0 -0.0203,-4.35266 -0.0203,-9.67258 z"
     id="path4346"
     inkscape:connector-curvature="0" /><path
     style="fill:#29b200;fill-opacity:1"
     d="m 406.35016,117.84546 c 0.009,-4.0332 0.0229,-10.65429 0.0315,-14.71354 l 0.0158,-7.380442 8.96861,0 8.9686,0 0,14.713542 0,14.71354 -9.00014,0 -9.00014,0 0.0158,-7.3331 z"
     id="path4348"
     inkscape:connector-curvature="0" /><path
     style="fill:#29b200;fill-opacity:1"
     d="m 342.1485,165.15538 6.1e-4,-7.55821 0.82803,-0.36441 c 11.80422,-5.1949 22.16529,-9.29125 29.17958,-11.53642 1.6316,-0.52225 2.12438,-0.61478 3.28747,-0.61725 0.77597,-0.002 1.1006,0.0292 1.76519,0.16777 0.80132,0.16707 1.41891,0.39198 2.33959,0.85203 1.74519,0.87204 2.71168,1.90361 3.6442,3.88957 0.33377,0.71081 0.59554,1.57706 0.72602,2.4025 0.0856,0.54143 0.0863,1.89872 0.001,2.4344 -0.43797,2.75967 -2.07198,5.07059 -4.47945,6.33507 -0.56398,0.29622 -0.87334,0.4138 -2.43001,0.92362 -1.08804,0.35633 -1.5455,0.52409 -2.05583,0.75391 -2.1804,0.98189 -4.17962,1.79436 -7.94809,3.23005 -2.97897,1.13491 -7.85756,3.18365 -14.24086,5.98037 l -1.51829,0.66521 -4.55004,0 -4.55004,0 6.1e-4,-7.55821 z"
     id="path4350"
     inkscape:connector-curvature="0" /><path
     style="fill:#29b200;fill-opacity:1"
     d="m 406.23439,165.6223 c 0.0153,-4.28088 0.0587,-22.26808 0.0587,-24.32528 l -4e-5,-1.37902 10.44034,0 10.44034,0 0,14.71354 0,14.71354 -10.47634,0 -10.47634,0 0.0134,-3.72278 z"
     id="path4352"
     inkscape:connector-curvature="0" /><path
     style="fill:#29b200;fill-opacity:1"
     d="m 373.43597,146.97871 0,-1.66722 0.0283,-0.007 c 0.21455,-0.0525 0.4994,-0.11174 0.66699,-0.13882 0.22343,-0.0361 0.52994,-0.067 0.85547,-0.0862 0.29448,-0.0173 0.69016,-0.0166 0.99805,0.002 0.37837,0.0228 0.59123,0.0468 0.90093,0.10167 0.6013,0.10651 1.10565,0.24434 1.62766,0.44481 0.27143,0.10425 0.47628,0.19457 0.79367,0.34995 0.0956,0.0468 0.2125,0.10307 0.25977,0.12504 0.60199,0.27976 1.17941,0.65617 1.66797,1.08733 0.2174,0.19186 0.45942,0.4368 0.64704,0.65485 0.11146,0.12953 0.22832,0.27672 0.32747,0.41243 l 0.0548,0.075 0,0.15664 0,0.15663 -4.41407,0 -4.41406,0 0,-1.66721 z"
     id="path4354"
     inkscape:connector-curvature="0" /><path
     style="fill:#29b200;fill-opacity:1"
     d="m 297.48344,196.20451 c -1.39655,-0.21694 -3.0612,-0.94933 -4.17623,-1.83741 -1.9307,-1.53774 -3.19815,-4.09775 -3.20266,-6.46879 -0.005,-2.67127 1.18966,-5.19881 3.22177,-6.81576 0.59773,-0.47562 1.54459,-0.98337 5.98919,-3.21169 23.30203,-11.6826 46.61191,-22.32289 61.85173,-28.23354 5.30336,-2.05686 11.65465,-4.26738 12.84316,-4.46995 0.80671,-0.1375 2.86287,-0.0614 3.55288,0.13155 2.0413,0.57071 3.71103,1.643 4.68605,3.00937 0.57834,0.81047 1.25305,2.27602 1.50183,3.26216 0.45609,1.80784 0.24727,3.95337 -0.55013,5.65263 -0.80913,1.72421 -2.25899,3.20784 -3.97795,4.07061 -0.25383,0.1274 -1.16865,0.46647 -2.03293,0.75349 -0.86428,0.28702 -2.2277,0.80845 -3.02982,1.15874 -1.59029,0.69448 -4.46302,1.85377 -6.89429,2.7822 -6.81158,2.60115 -21.58503,9.08094 -37.07891,16.26319 -6.43432,2.98266 -8.05118,3.71988 -12.63954,5.76309 -1.36118,0.60614 -5.51764,2.609 -9.23658,4.4508 -4.99382,2.4732 -6.94658,3.39814 -7.46881,3.53767 -0.69533,0.18579 -2.68994,0.30553 -3.35876,0.20164 z"
     id="path4356"
     inkscape:connector-curvature="0" /><path
     style="fill:#29b200;fill-opacity:1"
     d="m 346.51976,208.03194 0,-1.14458 1.53023,-0.65554 c 4.97117,-2.1296 8.96371,-3.76774 13.15329,-5.3968 6.58597,-2.56086 8.62949,-3.2996 10.8787,-3.93272 0.28335,-0.0798 0.62144,-0.17912 0.75131,-0.2208 0.95907,-0.3078 1.79876,-0.4265 2.84978,-0.40285 0.73358,0.0165 1.15161,0.0706 1.8313,0.23714 2.18672,0.5357 4.08958,1.93706 5.24962,3.86607 0.63997,1.06421 1.03201,2.21916 1.1926,3.51343 0.0386,0.3114 0.0386,1.52267 0,1.83406 -0.14241,1.14779 -0.47241,2.19959 -0.98455,3.13801 l -0.16268,0.29809 -18.1448,0.006 -18.1448,0.006 0,-1.14458 z"
     id="path4358"
     inkscape:connector-curvature="0" /><path
     style="fill:#29b200;fill-opacity:1"
     d="m 298.47385,196.26831 -0.0479,-0.002 0,-1.5155 0,-1.51551 4.16114,2.1e-4 4.16113,2.1e-4 -0.0723,0.0363 c -0.0397,0.02 -0.30429,0.15036 -0.58789,0.28972 -0.69776,0.34287 -2.19325,1.09265 -3.37304,1.6911 -0.41341,0.2097 -0.58928,0.29131 -0.87213,0.4047 -0.22618,0.0907 -0.41381,0.15695 -0.68842,0.24317 -0.058,0.0182 -0.14645,0.0472 -0.19655,0.0644 -0.1222,0.0419 -0.21892,0.0653 -0.41495,0.10027 -0.0434,0.008 -0.11257,0.0211 -0.15365,0.0297 -0.42525,0.0888 -0.89371,0.14658 -1.35985,0.1676 -0.0944,0.004 -0.4737,0.008 -0.55566,0.005 z"
     id="path4360"
     inkscape:connector-curvature="0" /><path
     style="fill:#29b200;fill-opacity:1"
     d="m 298.32709,196.26341 c -0.0634,-0.003 -0.18027,-0.01 -0.25976,-0.015 -0.0795,-0.005 -0.18672,-0.0117 -0.23829,-0.014 -0.21681,-0.01 -0.33579,-0.0244 -0.58789,-0.0727 -0.26196,-0.0501 -0.74672,-0.17042 -1.02734,-0.25496 -0.47359,-0.14266 -0.90717,-0.3143 -1.35352,-0.53578 -1.11463,-0.5531 -2.09115,-1.33985 -2.86771,-2.31042 -0.11941,-0.14926 -0.21898,-0.28271 -0.34462,-0.46192 l -0.009,-0.0127 4.09011,0 4.09012,0 -9.8e-4,1.80371 -9.8e-4,1.80371 -0.0352,0.005 c -0.1791,0.024 -0.43302,0.0477 -0.64063,0.0597 -0.21521,0.0125 -0.60232,0.0151 -0.81445,0.005 z"
     id="path4362"
     inkscape:connector-curvature="0" /><path
     style="fill:#29b200;fill-opacity:1"
     d="m 293.31582,194.38608 c -0.26952,-0.21718 -0.44177,-0.37217 -0.69313,-0.62367 -0.2017,-0.20181 -0.29968,-0.30707 -0.45356,-0.48727 -0.53711,-0.62894 -0.9787,-1.33095 -1.31294,-2.0872 -0.0494,-0.11186 -0.0939,-0.21895 -0.16119,-0.38867 -0.0731,-0.18425 -0.11591,-0.30118 -0.1816,-0.49609 -0.0297,-0.0881 -0.0683,-0.20147 -0.0858,-0.25195 -0.0487,-0.14045 -0.13288,-0.41668 -0.13288,-0.43595 0,-0.005 0.47266,-0.005 3.26562,-0.005 l 3.26563,0 0,2.42773 0,2.42774 -1.70606,-1.1e-4 -1.70605,-1e-4 -0.098,-0.079 0,0 z"
     id="path4364"
     inkscape:connector-curvature="0" /><path
     style="fill:#29b200;fill-opacity:1"
     d="M 22.657858,507.97401 C 13.234988,501.78799 6.490575,494.44216 2.4513362,485.96563 l -3.09738166,-6.5 -0.3044044,-164 c -0.16742254,-90.2 -0.0109775,-168.1885 0.3476555,-173.30777 0.77573989,-11.07322 2.53746856,-13.99329 8.95831186,-14.8484 3.6433595,-0.48522 4.2204465,-0.23552 6.4984365,2.81183 l 2.5,3.34434 0.71563,101 c 0.959019,135.3505 2.515243,238.13979 3.677025,242.86915 1.498652,6.10068 6.006561,10.92966 11.49393,12.31257 9.481807,2.38957 42.112257,3.42523 126.521031,4.01566 l 86.40763,0.60442 -0.67347,-7.24625 c -0.37041,-3.98543 -1.15444,-8.14495 -1.7423,-9.24337 -1.52277,-2.84533 -9.58613,-6.12862 -24.48147,-9.96851 l -12.91801,-3.33016 -31,0.24025 c -49.08554,0.38043 -69.7674,2.11311 -105.102166,8.80524 -26.021006,4.92817 -30.174335,5.23403 -33.64783,2.4779 l -2.75,-2.18206 0,-192.06012 0,-192.060129 2.095739,-1.817625 c 6.06464,-5.259835 46.514685,-13.640095 84.404257,-17.4865 24.58052,-2.49532 79.3777,-2.616626 92.11455,-0.203917 17.03704,3.227285 43.44035,12.156052 49.30371,16.67296 2.17192,1.673162 2.49727,2.919191 3.1938,12.231711 0.42655,5.70283 0.81974,44.34378 0.87376,85.86878 0.1137,87.4046 1.58571,227.90487 2.39624,228.71539 0.87112,0.87112 5.01253,-0.98468 39.61794,-17.75313 34.58278,-16.75749 65.08557,-30.68472 84.18505,-38.43795 6.42678,-2.60888 11.94734,-5.42692 12.26791,-6.26232 0.32057,-0.83539 0.87439,-74.64009 1.23071,-164.01044 l 0.64786,-162.491549 -2.41576,0.724723 c -5.42959,1.62886 -91.62319,44.635989 -116.45366,58.105676 -5.66773,3.074545 -9.0325,2.860482 -12.43443,-0.791067 -2.29442,-2.462768 -2.68873,-8.34755 -0.73157,-10.918128 6.24488,-8.202184 92.47746,-53.166457 133.41642,-69.5673556 l 11.21252,-4.4919441 4.66122,3.3390476 4.66121,3.3390475 -0.42646,178.1244396 c -0.38291,159.93532 -0.58721,178.36701 -2.00075,180.5 -1.14722,1.73112 -10.08513,5.98126 -32.94728,15.66704 -21.60207,9.15194 -47.95433,21.5949 -84.61324,39.95253 l -53.24026,26.66105 -2.75974,-2.04247 c -1.51786,-1.12335 -3.30426,-3.15073 -3.96978,-4.50529 -0.91916,-1.87079 -1.46178,-42.82495 -2.25729,-170.36735 -0.57598,-92.34748 -1.38214,-168.23941 -1.79145,-168.64872 -1.13408,-1.13408 -23.76435,-7.435074 -32.24123,-8.976998 -9.70851,-1.765954 -69.54257,-1.777625 -90,-0.01756 -25.657407,2.207454 -63.84627,8.599593 -66.352996,11.106323 -0.701749,0.70175 -1.385132,13.16225 -1.936852,35.31567 -0.981354,39.40474 -0.304401,312.35229 0.781204,314.98133 1.015992,2.46045 5.168967,2.27938 27.804738,-1.2123 31.983226,-4.93357 43.082036,-6.05646 70.203906,-7.1027 41.34355,-1.59483 59.82674,0.35835 89.81073,9.49063 l 14.59958,4.44662 16.29485,-4.45068 c 32.6587,-8.92022 53.74999,-11.06626 92.8852,-9.45111 25.45939,1.05074 38.91922,2.39538 64.90964,6.48449 8.525,1.34125 18.01387,2.73023 21.08637,3.08662 l 5.58638,0.64799 0.66362,-33.25802 c 0.365,-18.29191 0.66363,-97.50263 0.66363,-176.02382 l 0,-142.7658 -5.60347,-1.62898 c -7.66369,-2.22789 -10.60193,-5.301761 -10.20347,-10.674452 0.42593,-5.742995 3.82422,-8.213838 11.01007,-8.005258 10.87966,0.315798 15.7495,1.349833 19.64421,4.171141 l 3.82553,2.771201 0.66356,28.774908 c 1.09485,47.47688 0.80287,355.32072 -0.33903,357.45438 -1.88408,3.52043 -8.16689,3.42908 -29.05193,-0.42242 -25.84286,-4.76579 -49.30567,-8.15898 -70.2538,-10.1601 -20.25165,-1.93458 -51.37632,-1.46673 -67.19167,1.00999 -10.41296,1.63069 -42.53298,9.30622 -43.62829,10.42558 -0.34556,0.35315 -0.93153,4.57959 -1.30216,9.39209 l -0.67388,8.75 105.0147,0 105.01471,0 5.19259,-4.25 c 10.05993,-8.23379 9.27913,-4.33869 10.13777,-50.57288 0.41549,-22.37242 1.37323,-100.1604 2.12831,-172.86219 l 1.37287,-132.18507 2.20325,-3.56493 c 2.35976,-3.81817 4.44117,-4.36689 9.66151,-2.54707 6.30538,2.19806 5.85017,-10.40659 6.17499,170.98214 0.20114,112.32069 -0.0454,168.49393 -0.76734,174.81746 -1.28713,11.27447 -3.59283,16.23806 -12.07716,25.99897 -8.23191,9.47052 -12.55402,11.02667 -33.95187,12.22414 -8.525,0.47707 -110.02083,0.88811 -225.5463,0.91342 l -210.046289,0.046 -7.603503,-4.99162 z"
     id="path4366"
     inkscape:connector-curvature="0" /><path
     style="fill:#29b200;fill-opacity:1"
     d="M 22.683042,508.41874 C 13.817397,502.41837 6.0842678,493.87818 2.1039545,485.69193 l -3.25,-6.68422 0.043551,-169.27104 C -1.0785413,216.6376 -0.67078986,138.45374 -0.19638006,135.99476 1.5182242,127.10757 10.373257,123.77912 15.178486,130.21563 l 2.426315,3.25 1.169916,132.5 c 1.326359,150.21817 2.458926,209.22981 4.098877,213.56923 1.519234,4.01999 5.690086,8.18431 9.395305,9.3806 6.613951,2.13541 31.866708,3.14734 101.085051,4.05069 39.6,0.51681 81.13485,0.95312 92.29966,0.96957 l 20.29965,0.0299 -0.66547,-6.25 c -0.366,-3.4375 -1.17585,-7.375 -1.79965,-8.75 -1.536,-3.38568 -7.99658,-6.2929 -23.31535,-10.49174 l -12.79929,-3.50825 -24.50977,0.018 c -48.72941,0.0357 -73.65275,2.03364 -113.509776,9.09911 -23.147776,4.10342 -30.806055,4.53365 -33.969354,1.90834 -1.372851,-1.13936 -1.508931,-21.75319 -1.283179,-194.38048 l 0.252533,-193.105977 4,-2.20538 c 7.611358,-4.196483 36.351944,-10.425709 66.162036,-14.339939 33.46617,-4.394295 93.20468,-5.1999 110.82465,-1.494529 21.13307,4.444157 46.0935,14.0167 48.60976,18.642265 1.50275,2.762472 1.4986,2.499016 2.94153,186.65042 0.56581,72.21051 1.30159,132.65601 1.63506,134.32335 0.50853,2.54267 0.97,2.94024 2.86173,2.46545 1.24048,-0.31134 19.145,-8.64631 39.78781,-18.52215 33.59325,-16.07153 48.70957,-22.9939 80.67742,-36.94542 5.225,-2.28032 10.1403,-4.55075 10.9229,-5.04542 1.21106,-0.76549 1.53565,-19.11203 2.1803,-123.23351 0.41657,-67.28377 0.78877,-140.648221 0.8271,-163.03211 l 0.0697,-40.697981 -2.88995,1.007441 c -3.16844,1.104527 -87.0748,42.876671 -107.11005,53.323931 -6.875,3.584927 -13.75795,6.52852 -15.29545,6.541319 -7.28528,0.06064 -10.53816,-10.534514 -4.85869,-15.82552 10.14588,-9.451931 87.91861,-49.805024 129.47018,-67.1767877 l 12.81605,-5.3580958 3.18395,1.74336532 c 1.75118,0.95885089 4.10211,2.50767748 5.22429,3.44183688 l 2.04032,1.6984717 -0.54032,178.0441296 c -0.49226,162.20514 -0.68511,178.26509 -2.16779,180.5278 -1.18888,1.81435 -8.06071,5.27805 -25.5,12.8531 -33.6366,14.61063 -49.68972,22.21909 -100.57541,47.66821 l -44.70288,22.35695 -3.13321,-2.63643 c -1.72327,-1.45003 -3.53541,-3.69426 -4.02697,-4.98717 -0.49156,-1.29291 -1.38276,-66.58281 -1.98045,-145.08867 -0.59768,-78.50585 -1.39425,-154.20626 -1.77016,-168.22312 l -0.68346,-25.4852 -13.5,-3.792043 c -19.31042,-5.424151 -27.61726,-6.066283 -70.5,-5.449764 -42.12924,0.605685 -61.424416,2.458361 -92.330784,8.865377 -9.186065,1.9043 -10.460345,2.43 -11.5,4.74422 -1.365664,3.0399 -1.73402,347.3708 -0.373064,348.73197 1.317939,1.31814 10.471307,0.51796 35.452229,-3.0992 30.019039,-4.34666 41.084469,-5.31338 70.251619,-6.13748 34.78297,-0.98276 51.64696,1.03358 81.24456,9.714 7.83787,2.2987 15.11327,3.88365 16.60328,3.61704 1.45869,-0.26101 10.52716,-2.503 20.15216,-4.98221 27.8609,-7.17641 36.8762,-8.23103 69.5,-8.1302 32.04577,0.099 44.51458,1.07379 81.5,6.37117 14.575,2.08757 26.725,3.58324 27,3.32371 0.74819,-0.70608 1.77357,-136.31785 1.8939,-250.47673 l 0.1061,-100.67055 -3.25,-0.70149 c -4.75561,-1.02647 -10.53025,-4.17829 -11.71656,-6.394945 -1.90562,-3.560672 -1.22667,-8.532321 1.51724,-11.110089 2.31633,-2.176077 3.30666,-2.375271 10.77861,-2.168003 9.46862,0.262656 13.66552,1.269042 18.17331,4.35783 l 3.20593,2.196744 0.64168,12.580523 c 0.35292,6.91929 0.6435,93.69302 0.64573,192.83052 0.004,178.9194 -0.0107,180.26476 -1.99594,182.25 -2.85485,2.85485 -5.6257,2.64633 -39.5,-2.97258 -42.95275,-7.1248 -61.52081,-9.02773 -88,-9.0186 -12.1,0.004 -26.05,0.46711 -31,1.02875 -8.96962,1.01772 -35.37215,6.54742 -45.20726,9.46814 -5.73462,1.70299 -5.1285,0.37436 -6.72632,14.74429 l -0.52816,4.75 104.56532,0 104.56533,0 5.77022,-4.53335 c 3.17363,-2.49333 6.34493,-5.75583 7.04736,-7.25 0.70668,-1.50321 1.6427,-9.41665 2.09557,-17.71665 0.81207,-14.88329 2.34554,-128.4597 3.52393,-261 l 0.61347,-69 2.40446,-3.75 c 1.97102,-3.07401 2.98776,-3.74734 5.64027,-3.73526 4.81159,0.0219 8.08953,2.11165 9.42937,6.01133 0.90577,2.6363 1.19875,43.74093 1.21511,170.47393 0.0233,180.5466 0.10916,177.49963 -5.25929,186.65009 -3.77557,6.4354 -12.35586,15.65952 -16.56304,17.80586 -8.85119,4.51554 -2.70636,4.39395 -238.08634,4.71103 l -223.499996,0.30108 -6.670912,-4.51495 z"
     id="path4368"
     inkscape:connector-curvature="0" /><path
     style="fill:#29b200;fill-opacity:1"
     d="M 21.853954,508.12895 C 13.405126,501.88137 6.1196419,493.8175 2.0851643,486.24805 l -3.2312098,-6.06237 0.023857,-170.36003 C -1.1087067,213.5496 -0.71015606,137.79285 -0.20570066,135.61898 1.7989735,126.98015 10.088268,123.89009 15.14302,129.89732 l 2.466853,2.93169 0.618882,44.81831 c 0.340384,24.65007 0.868007,74.51831 1.172495,110.81831 0.684746,81.63298 2.238662,173.34147 3.117065,183.96179 0.607471,7.34463 0.93669,8.25949 4.247078,11.80221 2.329054,2.49251 4.992475,4.1656 7.588561,4.76691 7.161746,1.65883 48.469519,2.91786 130.395636,3.97437 44.21761,0.57022 80.5033,0.91481 80.63488,0.76574 0.544,-0.61629 -1.59754,-13.02772 -2.55731,-14.82107 -1.56055,-2.91591 -7.38564,-5.49515 -22.6677,-10.03679 l -13.80551,-4.10283 -33.31867,0.61637 c -46.97464,0.869 -61.49197,2.13336 -104.181326,9.07351 -23.929362,3.89028 -29.523986,4.22193 -32.777494,1.94309 l -2.222506,-1.55671 0,-193.22769 0,-193.227685 2.75,-1.614932 C 43.320198,82.837811 68.501197,76.895233 94.910889,73.021796 120.7397,69.233554 133.4468,68.494498 172.35395,68.51764 l 38,0.0226 13.58638,3.641785 c 15.61617,4.185865 32.88809,10.764017 37.50128,14.28267 2.90661,2.216973 3.22088,3.022445 3.78832,9.709235 0.34032,4.01043 1.0632,63.5417 1.60639,132.2917 0.54319,68.75 1.27205,138.20821 1.61969,154.35159 l 0.63207,29.35158 2.65395,-0.53079 c 1.45967,-0.29193 17.49449,-7.58766 35.63293,-16.21273 33.25258,-15.81204 53.28425,-25.02782 78.97899,-36.33511 7.7,-3.38848 14.65639,-6.57478 15.45863,-7.08067 1.72464,-1.08752 2.55223,-55.94997 3.37591,-223.79387 0.40746,-83.029191 0.25954,-102.25 -0.78688,-102.25 -0.70877,0 -28.27845,13.5 -61.26596,30 -39.69564,19.855334 -61.01869,30 -63.05692,30 -5.62364,0 -9.28235,-8.286885 -6.20084,-14.044741 2.59692,-4.852372 30.06493,-20.44729 77.47606,-43.986899 18.7,-9.284543 41.39341,-20.0282946 50.42979,-23.8750038 18.20186,-7.7483692 17.04598,-7.6746653 24.69603,-1.5747296 l 2.59512,2.069277 -0.86814,178.6859364 c -0.85772,176.54019 -0.89207,178.70969 -2.86047,180.66343 -1.09578,1.08762 -11.21733,6.08443 -22.49233,11.10401 -11.275,5.01959 -24.55,10.93377 -29.5,13.14262 -4.95,2.20886 -33.67759,16.22524 -63.83909,31.14752 l -54.8391,27.13142 -3.7895,-4.06254 -3.7895,-4.06255 -0.65198,-51.41887 c -0.3586,-28.28039 -1.08108,-98.89388 -1.60553,-156.91888 -0.93505,-103.45478 -1.52231,-129.59582 -2.93093,-130.4664 -0.38678,-0.23904 -6.89485,-2.03537 -14.46237,-3.991836 -11.08169,-2.865 -16.82257,-3.741849 -29.50179,-4.506034 -19.45728,-1.172702 -75.30331,0.284246 -93.59021,2.441644 -14.715307,1.73604 -38.530813,5.930726 -44.212195,7.787206 l -3.787801,1.23772 -0.631866,13.49885 c -0.833686,17.81043 -1.026199,331.80625 -0.205313,334.87326 0.618653,2.31143 0.83345,2.35648 8.097034,1.69827 4.103837,-0.37188 15.399213,-1.7934 25.100834,-3.15893 30.970967,-4.35926 44.006967,-5.45711 72.139307,-6.07537 37.03271,-0.81386 49.1514,0.57352 80.92046,9.26399 6.83125,1.8687 13.6437,3.39763 15.13877,3.39763 1.49507,0 10.98086,-2.01055 21.07954,-4.46789 31.38791,-7.63771 34.21202,-7.95345 70.86123,-7.92251 34.42866,0.0291 38.27882,0.31439 80.85839,5.99218 14.49712,1.93312 26.56831,3.30486 26.82486,3.0483 0.43056,-0.43056 2.18952,-246.51828 2.27805,-318.71103 l 0.0387,-31.56095 -5.0476,-1.29366 c -2.77618,-0.71151 -6.37618,-2.41159 -8,-3.77794 -2.4482,-2.060032 -2.9524,-3.237597 -2.9524,-6.895394 0,-5.206723 2.24808,-7.993155 7.19422,-8.917026 5.38889,-1.006571 18.24075,1.044477 23.0044,3.671307 3.81556,2.104023 4.37772,2.878069 4.97726,6.853267 0.37173,2.46474 0.70923,89.418846 0.75,193.231346 0.0736,187.46659 0.0605,188.7636 -1.92588,190.75 -2.88894,2.88894 -6.37393,2.63963 -42,-3.00469 -45.77202,-7.25177 -57.14883,-8.33263 -87.5,-8.313 -24.04254,0.0156 -27.11463,0.22335 -40.80506,2.76011 -19.46873,3.60745 -36.75903,8.05173 -37.8167,9.72035 -0.46619,0.73548 -0.89248,2.23723 -0.94731,3.33723 -0.0548,1.1 -0.42294,4.5875 -0.81801,7.75 l -0.71831,5.75 104.21103,0 104.21102,0 5.58142,-4.54659 c 3.06979,-2.50063 6.05743,-5.43603 6.63922,-6.52311 0.58179,-1.08708 1.47069,-5.67861 1.97533,-10.2034 1.05305,-9.44199 2.5548,-99.8212 4.00695,-241.14939 l 1.00617,-97.92248 2.53801,-3.32752 c 2.07519,-2.72071 3.2176,-3.32751 6.26463,-3.32751 4.89177,0 7.85577,2.2016 9.12717,6.77948 1.4707,5.29551 1.43705,332.25301 -0.0353,342.83873 -1.43011,10.28206 -4.66091,16.33948 -13.35407,25.03744 -8.18497,8.18948 -10.03054,8.92916 -25.83551,10.35442 -5.86015,0.52845 -102.93311,0.93052 -227.2307,0.94116 l -216.999996,0.0186 -6.5,-4.8065 2e-5,-1e-5 z"
     id="path4370"
     inkscape:connector-curvature="0" /><path
     style="fill:#29b200;fill-opacity:1"
     d="m 89.843482,178.20699 c -6.982963,-3.48467 -6.192095,-12.58747 1.36807,-15.74631 4.239801,-1.7715 21.544288,-5.07142 37.379378,-7.12815 24.83168,-3.22523 62.84309,-1.86868 78.42148,2.79872 6.05237,1.81334 8.29647,7.12018 5.3887,12.74319 -2.05235,3.96881 -6.30146,5.54021 -11.18951,4.1381 -8.2451,-2.36507 -37.37184,-3.50962 -57.61308,-2.26394 -15.84368,0.97505 -41.09773,4.47154 -48.755038,6.75026 -0.83076,0.24722 -3.080759,-0.33412 -5,-1.29187 z"
     id="path4372"
     inkscape:connector-curvature="0" /><path
     style="fill:#29b200;fill-opacity:1"
     d="m 89.629096,178.45625 c -5.452512,-3.05786 -6.308217,-8.76287 -2.025142,-13.50167 2.395549,-2.65044 4.249297,-3.35806 14.382266,-5.49006 21.01464,-4.42153 34.89785,-5.83254 57.86773,-5.88133 30.11209,-0.064 48.99277,2.67863 52.45337,7.61932 2.28744,3.26578 1.932,8.20357 -0.8209,11.404 -2.75091,3.19813 -5.11055,3.38977 -19.13247,1.55389 -20.30514,-2.65853 -60.3261,-1.0694 -85.5,3.39499 -13.93894,2.47197 -14.382067,2.49514 -17.224854,0.90086 z"
     id="path4374"
     inkscape:connector-curvature="0" /><path
     style="fill:#29b200;fill-opacity:1"
     d="m 87.777031,228.04255 c -5.093938,-5.09394 -2.897162,-12.66104 4.34256,-14.95856 5.26152,-1.66974 23.768199,-4.97586 37.471339,-6.69407 23.38527,-2.93222 60.48522,-1.67281 76.31886,2.59075 5.22911,1.40805 8.2958,5.4306 7.56649,9.92487 -1.19224,7.34686 -4.84441,8.51066 -19.62233,6.25281 -4.125,-0.63025 -15.375,-1.43902 -25,-1.79728 -20.62576,-0.76773 -36.44509,0.4699 -59.70432,4.67098 -8.93294,1.61347 -16.738465,2.93358 -17.345615,2.93358 -0.607149,0 -2.419292,-1.31539 -4.026984,-2.92308 z"
     id="path4376"
     inkscape:connector-curvature="0" /><path
     style="fill:#29b200;fill-opacity:1"
     d="m 87.442848,227.8889 c -3.396613,-4.03664 -3.342517,-8.05163 0.161106,-11.95722 2.440871,-2.7209 4.098926,-3.33399 14.749996,-5.45398 28.02269,-5.57766 63.27379,-7.44404 87,-4.60624 21.31415,2.54931 27.67177,7.03878 23.36216,16.49734 -1.79735,3.94476 -5.90351,4.81795 -15.79748,3.35941 -5.35608,-0.78958 -19.24166,-1.25833 -37.06468,-1.25123 -27.57317,0.011 -29.11093,0.11668 -47.28613,3.25 -10.33237,1.78126 -19.629865,3.23865 -20.661102,3.23865 -1.031237,0 -3.039979,-1.38453 -4.46387,-3.07673 z"
     id="path4378"
     inkscape:connector-curvature="0" /><path
     style="fill:#29b200;fill-opacity:1"
     d="m 87.901702,279.16722 c -3.60388,-3.60388 -3.992731,-7.73052 -1.077651,-11.43645 2.401896,-3.05351 11.913886,-5.62044 33.029899,-8.91352 12.43976,-1.94001 18.40735,-2.26237 42,-2.26882 24.51807,-0.007 28.58434,0.22823 37.5,2.1665 7.94348,1.72692 10.46272,2.70749 12.25,4.76812 3.1726,3.65781 2.92183,7.9646 -0.67308,11.5595 -3.42516,3.42516 -3.2513,3.41141 -15.83769,1.25265 -7.03896,-1.20729 -15.70026,-1.66997 -31.23923,-1.66878 -21.93563,0.002 -32.62576,0.9023 -53,4.46512 -20.218139,3.53552 -19.494794,3.53314 -22.952248,0.0757 z"
     id="path4380"
     inkscape:connector-curvature="0" /><path
     style="fill:#29b200;fill-opacity:1"
     d="m 87.442848,278.8889 c -5.762834,-6.84874 -2.380842,-12.68562 9.143852,-15.78112 19.70361,-5.29233 31.80728,-6.53334 64.26725,-6.58944 26.72081,-0.0462 31.55322,0.18766 39,1.88717 13.38763,3.05533 17.5563,9.18024 11.30477,16.60977 -2.98965,3.55299 -2.13499,3.51541 -22.30477,0.98069 -10.10626,-1.27004 -38.95289,-1.26781 -52.5,0.004 -6.05,0.56801 -17.58621,2.14264 -25.63602,3.49917 -19.085231,3.21619 -20.077188,3.19018 -23.275082,-0.61031 z"
     id="path4382"
     inkscape:connector-curvature="0" /><path
     style="fill:#29b200;fill-opacity:1"
     d="m 88.11606,331.03209 c -4.555354,-4.31907 -3.666956,-11.7715 1.736359,-14.56567 3.415009,-1.76597 18.729291,-4.90086 35.001531,-7.16495 15.46073,-2.15118 56.50675,-2.48146 68,-0.54717 13.19176,2.22014 17.79715,3.91838 19.48678,7.18576 2.13915,4.13667 1.89208,6.42187 -1.07567,9.94884 -2.8362,3.37063 -5.8078,3.80314 -14.41111,2.09747 -2.475,-0.49068 -11.56312,-1.45166 -20.19583,-2.1355 -18.80181,-1.4894 -39.24708,-0.28242 -61.80417,3.64857 -22.569421,3.93315 -24.112759,4.02161 -26.73789,1.53265 z"
     id="path4384"
     inkscape:connector-curvature="0" /><path
     style="fill:#29b200;fill-opacity:1"
     d="m 89.082914,332.29634 c -1.787719,-0.71929 -4.22896,-5.75611 -4.22896,-8.72529 0,-6.66262 7.001168,-9.47636 34.232296,-13.75779 12.1942,-1.91724 18.3369,-2.25083 42.2677,-2.29544 23.43723,-0.0437 29.37346,0.24383 36.42844,1.7644 4.63564,0.99913 9.6848,2.46629 11.22036,3.26035 5.50457,2.84653 6.49756,9.0952 2.16411,13.61834 -3.16992,3.30868 -4.58314,3.39388 -21.81291,1.31499 -14.02733,-1.6925 -41.13929,-1.93095 -54,-0.47493 -4.95,0.56041 -15.83431,2.13172 -24.18737,3.49179 -14.956037,2.4352 -19.576027,2.81252 -22.083666,1.80358 z"
     id="path4386"
     inkscape:connector-curvature="0" /><path
     style="fill:#29b200;fill-opacity:1"
     d="m 89.082914,383.35693 c -1.773282,-0.79801 -4.22896,-5.82269 -4.22896,-8.65308 0,-2.73091 3.146554,-6.46324 6.53492,-7.7515 3.793278,-1.4422 27.068486,-5.70296 38.965076,-7.13296 16.52682,-1.98655 52.56983,-1.68531 65,0.54325 11.76059,2.10852 15.80677,3.78611 17.36144,7.19823 1.72691,3.79016 1.39087,5.95145 -1.45033,9.32803 -3.07131,3.65005 -4.5735,3.76407 -19.48497,1.47901 -16.35241,-2.50587 -57.56682,-1.38881 -76.42614,2.07141 -15.29594,2.80644 -24.296784,3.80605 -26.271036,2.91761 z"
     id="path4388"
     inkscape:connector-curvature="0" /><path
     style="fill:#29b200;fill-opacity:1"
     d="m 87.424196,382.04324 c -0.956854,-1.05731 -1.981261,-3.7231 -2.276461,-5.92398 -0.448959,-3.34724 -0.126853,-4.41147 1.969794,-6.50812 2.925423,-2.92542 5.547151,-3.70231 23.850781,-7.06765 19.92757,-3.66393 38.35247,-4.95404 59.88564,-4.19319 27.80454,0.98243 40.37022,3.86529 42.38848,9.7249 1.15196,3.34449 0.1313,7.37064 -2.54764,10.04959 -2.3182,2.3182 -0.86549,2.3272 -30.18274,-0.18711 -16.69399,-1.43172 -47.53948,0.15516 -68.6581,3.53219 -18.920023,3.02545 -22.142214,3.10108 -24.429754,0.57337 z"
     id="path4390"
     inkscape:connector-curvature="0" /><path
     style="fill:#29b200;fill-opacity:1"
     d="m 292.3085,347.51108 c -2.6477,-2.6477 -3.23759,-7.2138 -1.38029,-10.6842 1.97647,-3.69307 58.51894,-30.31759 78.085,-36.7684 6.13144,-2.0215 6.94015,-2.07815 10.20311,-0.7148 4.31396,1.80248 6.03118,6.38175 4.17072,11.12195 -1.39869,3.56365 -0.73803,3.21195 -26.03309,13.85879 -11,4.62996 -28.15711,12.29331 -38.12692,17.02966 -19.73286,9.37448 -22.96238,10.11316 -26.91853,6.157 z"
     id="path4392"
     inkscape:connector-curvature="0" /><path
     style="fill:#29b200;fill-opacity:1"
     d="m 292.3085,347.51108 c -3.57409,-3.57409 -3.43165,-9.63138 0.29545,-12.56434 8.06499,-6.34655 76.53861,-36.98111 82.65928,-36.98111 2.90358,0 6.7573,2.42144 8.15485,5.12401 1.6569,3.20408 0.96899,8.08355 -1.44798,10.27088 -0.90987,0.82342 -10.19572,5.16715 -20.63522,9.65274 -10.43951,4.4856 -28.24609,12.38489 -39.57017,17.554 -12.33198,5.62917 -21.87509,9.39837 -23.79546,9.39837 -2.07079,0 -4.07544,-0.86923 -5.66075,-2.45455 z"
     id="path4394"
     inkscape:connector-curvature="0" /><path
     style="fill:#29b200;fill-opacity:1"
     d="m 293.7673,297.73264 c -4.00829,-3.20077 -4.99608,-8.77618 -2.24959,-12.69734 3.59592,-5.13391 76.82742,-38.06967 84.64655,-38.06967 6.59953,0 10.70812,10.80539 5.7327,15.07674 -1.01015,0.8672 -8.27766,4.1956 -16.15003,7.39644 -7.87236,3.20084 -25.3563,10.98885 -38.85318,17.30668 -24.56873,11.50052 -30.16087,13.35528 -33.12645,10.98715 z"
     id="path4396"
     inkscape:connector-curvature="0" /><path
     style="fill:#29b200;fill-opacity:1"
     d="m 292.3085,296.51108 c -3.291,-3.29099 -3.39148,-9.32669 -0.20455,-12.28641 6.80168,-6.31675 76.10474,-37.25904 83.45101,-37.25904 7.70885,0 12.01558,10.96655 6.15317,15.66825 -0.7448,0.59733 -6.97918,3.4353 -13.85418,6.30658 -6.875,2.87129 -21.725,9.40964 -33,14.52967 -11.275,5.12003 -23.59974,10.70108 -27.38831,12.40233 -8.3867,3.76601 -11.88246,3.9133 -15.15714,0.63862 z"
     id="path4398"
     inkscape:connector-curvature="0" /><path
     style="fill:#29b200;fill-opacity:1"
     d="m 292.77703,245.04255 c -3.35015,-3.35014 -3.81037,-7.36512 -1.26139,-11.00429 2.93453,-4.18964 65.87309,-33.54875 80.04679,-37.33963 5.8107,-1.55413 9.31279,-0.20081 11.6061,4.48496 1.69694,3.46724 1.709,3.9301 0.18602,7.13953 -1.48145,3.12192 -2.90993,3.95093 -15.81457,9.17783 -13.69275,5.54612 -41.15056,17.89511 -58.63313,26.36989 -4.64591,2.25214 -9.51802,4.09479 -10.82692,4.09479 -1.3089,0 -3.69521,-1.31539 -5.3029,-2.92308 z"
     id="path4400"
     inkscape:connector-curvature="0" /><path
     style="fill:#29b200;fill-opacity:1"
     d="m 292.77703,245.04255 c -3.70737,-3.70737 -3.98083,-8.73458 -0.64557,-11.8679 2.92636,-2.74918 45.00703,-23.20846 63.20268,-30.72864 19.90772,-8.22777 25.27285,-8.31923 28.51743,-0.48614 1.10717,2.67296 1.06803,3.64489 -0.25888,6.42744 -1.41003,2.95686 -3.36123,4.04448 -19.90102,11.09307 -10.08574,4.29814 -28.35944,12.46564 -40.60821,18.15002 -12.24877,5.68438 -23.42089,10.33523 -24.82692,10.33523 -1.4922,0 -3.7733,-1.21687 -5.47951,-2.92308 z"
     id="path4402"
     inkscape:connector-curvature="0" /><path
     style="fill:#29b200;fill-opacity:1"
     d="m 90.758053,383.77458 c -2.745917,-0.40035 -3.999797,-1.73634 -5.247319,-5.59094 -0.801452,-2.47632 -0.853661,-4.77305 -0.144046,-6.3367 0.700666,-1.54394 2.938334,-3.62142 4.918633,-4.56653 2.211322,-1.05537 7.522161,-2.34958 16.705369,-4.07098 20.91574,-3.92067 32.5946,-5.03134 52.75,-5.01658 29.14971,0.0213 46.88015,2.54049 51.85396,7.36742 1.564,1.5178 2.1054,2.91516 2.12767,5.49144 0.0164,1.89952 -0.0678,2.30697 -0.79385,3.83997 -0.97676,2.06239 -2.51305,3.96268 -3.62434,4.48309 -1.73686,0.81335 -4.05415,0.75108 -18.18844,-0.48877 l -13.625,-1.19518 -13,0.006 c -13.00611,0.006 -18.53071,0.23063 -30.375,1.23668 -6.05656,0.51444 -14.83262,1.52084 -19.75,2.26485 -2.26875,0.34326 -6.825,1.00834 -10.125,1.47796 -3.3,0.46962 -6.761465,0.97126 -7.692142,1.11477 -1.936224,0.29856 -3.664713,0.29372 -5.790495,-0.0162 l 0,2e-5 z"
     id="path4404"
     inkscape:connector-curvature="0" /><path
     style="fill:#29b200;fill-opacity:1"
     d="m 90.447288,383.79061 c -2.651373,-0.52425 -3.842254,-1.89761 -5.053434,-5.82774 -0.706119,-2.29126 -0.710187,-4.8773 -0.0099,-6.3238 0.28502,-0.58877 1.156895,-1.6552 1.9375,-2.36984 2.522253,-2.30912 5.201771,-3.23919 15.044284,-5.22189 23.75138,-4.78455 39.32453,-6.26494 62.125,-5.9056 23.20888,0.36578 36.87853,2.01966 43.86414,5.3071 2.44049,1.1485 3.87271,2.35138 4.68896,3.93809 0.57552,1.11877 0.66571,1.60468 0.68019,3.66478 0.0154,2.18449 -0.0478,2.50673 -0.78699,4.01731 -0.91064,1.86081 -2.52357,3.81589 -3.6128,4.37915 -1.49552,0.77336 -4.37732,0.69275 -18.5835,-0.51985 l -13.75,-1.17367 -15,0.12986 c -8.25,0.0714 -16.575,0.25208 -18.5,0.40144 -14.88601,1.15504 -20.55223,1.78673 -36.0984,4.02437 -11.88535,1.71072 -14.586325,1.94668 -16.945002,1.48029 z"
     id="path4406"
     inkscape:connector-curvature="0" /><path
     style="fill:#29b200;fill-opacity:1"
     d="m 89.453589,332.5286 c -2.05095,-0.59415 -4.587901,-5.53256 -4.587901,-8.93076 0,-2.23008 0.439571,-3.25615 2.121149,-4.95131 1.814131,-1.82879 3.068779,-2.49981 6.878851,-3.67899 5.719876,-1.77025 11.322852,-2.96071 22.500002,-4.78055 12.11806,-1.97304 16.27109,-2.2974 36.96023,-2.88664 12.31294,-0.35068 34.48691,0.27802 40.16477,1.1388 5.06934,0.76852 12.49151,2.69252 15.23869,3.95022 5.30076,2.42677 6.74255,8.36298 3.15927,13.00757 -2.20744,2.86126 -4.63466,3.82617 -8.96573,3.5642 -1.41227,-0.0854 -6.08102,-0.54514 -10.375,-1.02159 -10.03929,-1.11393 -13.22606,-1.32588 -25.01985,-1.66407 -10.67556,-0.30612 -23.03047,-0.04 -30.28738,0.65231 -4.47505,0.42694 -14.05752,1.76984 -25.86886,3.62529 -4.33463,0.68093 -9.65732,1.46543 -11.828203,1.74334 -4.084568,0.52289 -8.718447,0.62952 -10.090038,0.23218 z"
     id="path4408"
     inkscape:connector-curvature="0" /><path
     style="fill:#29b200;fill-opacity:1"
     d="m 89.365688,332.52153 c -3.036277,-1.20717 -5.52618,-8.26826 -4.113472,-11.66535 0.465355,-1.11903 2.314208,-3.05593 3.876172,-4.06077 3.221166,-2.07225 14.673832,-4.76671 30.737302,-7.23153 9.13345,-1.40147 14.70955,-1.80216 31.7995,-2.28505 7.67773,-0.21695 12.86171,-0.21669 21.125,0.001 17.26503,0.45494 20.88245,0.79737 28.42709,2.69093 7.77828,1.9522 10.39497,3.38583 11.95346,6.54908 0.47326,0.96056 0.56932,1.55974 0.56625,3.53182 -0.003,2.08044 -0.0858,2.53143 -0.66576,3.63627 -0.99971,1.90455 -2.78336,3.74236 -4.40489,4.53864 -1.3733,0.67438 -1.55876,0.69907 -5.05065,0.67225 -2.16642,-0.0166 -6.49187,-0.34041 -10.75,-0.80467 -13.04612,-1.42238 -20.13113,-1.7871 -34.75,-1.78884 -16.51746,-0.002 -20.68463,0.37302 -44.60753,4.01394 -6.3154,0.96117 -12.89596,1.91292 -14.623471,2.11499 -3.546433,0.41485 -8.578983,0.46097 -9.519001,0.0872 z"
     id="path4410"
     inkscape:connector-curvature="0" /><path
     style="fill:#29b200;fill-opacity:1"
     d="m 89.473478,280.94073 c -2.42761,-1.48036 -4.712052,-5.31955 -4.712052,-7.91898 0,-4.02474 2.322675,-6.75295 7.350785,-8.63421 7.331099,-2.74292 23.899599,-6.05507 34.899219,-6.97659 19.55729,-1.63846 49.00602,-1.86412 63.99907,-0.49042 9.43032,0.86404 17.22053,3.28877 20.36813,6.33966 3.79633,3.6797 3.58511,7.85931 -0.61752,12.21947 -2.25789,2.34252 -2.39009,2.40249 -5.28276,2.39641 -1.63181,-0.003 -6.45442,-0.4737 -10.71692,-1.04505 -6.2043,-0.83162 -11.46573,-1.09116 -26.38026,-1.30131 -25.1741,-0.35469 -33.34449,0.26766 -60.49018,4.60763 -12.555725,2.00737 -16.183613,2.16562 -18.417512,0.80339 z"
     id="path4412"
     inkscape:connector-curvature="0" /><path
     style="fill:#29b200;fill-opacity:1"
     d="m 90.261426,281.53045 c -1.329375,-0.48372 -3.564127,-2.84474 -4.60047,-4.8604 -0.773349,-1.50415 -0.955383,-2.60745 -0.779714,-4.72579 0.209905,-2.53118 0.423414,-2.93939 2.539408,-4.85512 2.632955,-2.38377 7.732669,-4.21058 18.07503,-6.47479 15.93314,-3.48819 28.24124,-4.43894 57.76575,-4.46216 23.94268,-0.0188 30.05655,0.35316 37.75,2.29683 6.33738,1.60108 10.05949,3.59816 11.78902,6.32534 0.80354,1.26705 1.46098,2.9419 1.46098,3.7219 0,2.22178 -1.36087,4.94558 -3.62777,7.26105 -2.02939,2.07286 -2.1607,2.12489 -5.35134,2.12065 -1.79899,-0.002 -6.08339,-0.35295 -9.52089,-0.77902 -8.15265,-1.01051 -34.36161,-1.64596 -48,-1.16379 -12.08612,0.42729 -17.97778,1.05356 -37.00397,3.93339 -12.173067,1.84254 -18.573402,2.36151 -20.496034,1.66191 z"
     id="path4414"
     inkscape:connector-curvature="0" /></svg>