<?xml version="1.0" encoding="UTF-8" standalone="no"?>
<svg
   xmlns:dc="http://purl.org/dc/elements/1.1/"
   xmlns:cc="http://creativecommons.org/ns#"
   xmlns:rdf="http://www.w3.org/1999/02/22-rdf-syntax-ns#"
   xmlns:svg="http://www.w3.org/2000/svg"
   xmlns="http://www.w3.org/2000/svg"
   xmlns:sodipodi="http://sodipodi.sourceforge.net/DTD/sodipodi-0.dtd"
   xmlns:inkscape="http://www.inkscape.org/namespaces/inkscape"
   viewBox="0 0 50 50"
   id="svg5517"
   version="1.1"
   inkscape:version="0.91 r13725"
   sodipodi:docname="information-icon3.svg">
  <metadata
     id="metadata5525">
    <rdf:RDF>
      <cc:Work
         rdf:about="">
        <dc:format>image/svg+xml</dc:format>
        <dc:type
           rdf:resource="http://purl.org/dc/dcmitype/StillImage" />
      </cc:Work>
    </rdf:RDF>
  </metadata>
  <defs
     id="defs5523" />
  <sodipodi:namedview
     pagecolor="#ffffff"
     bordercolor="#666666"
     borderopacity="1"
     objecttolerance="10"
     gridtolerance="10"
     guidetolerance="10"
     inkscape:pageopacity="0"
     inkscape:pageshadow="2"
     inkscape:window-width="1855"
     inkscape:window-height="926"
     id="namedview5521"
     showgrid="false"
     inkscape:zoom="6.675088"
     inkscape:cx="50.76297"
     inkscape:cy="20.695322"
     inkscape:window-x="65"
     inkscape:window-y="24"
     inkscape:window-maximized="1"
     inkscape:current-layer="svg5517" />
  <path
     style="line-height:normal;text-indent:0;text-align:start;text-decoration-line:none;text-decoration-style:solid;text-decoration-color:#000;text-transform:none;block-progression:tb;isolation:auto;mix-blend-mode:normal"
     d="M 13 0 C 5.8324839 0 0 5.8324839 0 13 L 0 37 C 0 44.167516 5.8324839 50 13 50 L 37 50 C 44.167516 50 50 44.167516 50 37 L 50 13 C 50 5.8324839 44.167516 0 37 0 L 13 0 z M 13 2 L 37 2 C 43.086484 2 48 6.9135161 48 13 L 48 37 C 48 43.086484 43.086484 48 37 48 L 13 48 C 12.23919 48 11.496146 47.923585 10.779297 47.777344 C 10.420872 47.704223 10.069304 47.612801 9.7246094 47.505859 C 5.2435765 46.115619 2 41.945268 2 37 L 2 13 C 2 12.619595 2.019167 12.243375 2.0566406 11.873047 C 2.5437977 7.0587801 6.1197752 3.1732268 10.779297 2.2226562 C 11.137722 2.1495354 11.502719 2.0941142 11.873047 2.0566406 C 12.243375 2.019167 12.619595 2 13 2 z M 9.3457031 18.681641 L 9.3457031 31.533203 L 10.876953 31.533203 L 10.876953 28.005859 L 12.314453 26.673828 L 15.501953 31.533203 L 17.445312 31.533203 L 13.484375 25.611328 L 17.175781 22.228516 L 15.121094 22.228516 L 10.875 26.296875 L 10.875 18.681641 L 9.3457031 18.681641 z M 38.738281 18.681641 L 38.738281 31.533203 L 40.269531 31.533203 L 40.269531 18.681641 L 38.738281 18.681641 z M 22.482422 22.011719 C 21.749422 22.011719 21.108641 22.140438 20.556641 22.398438 C 20.003641 22.656438 19.544687 23.010938 19.179688 23.460938 C 18.813688 23.910937 18.541328 24.438922 18.361328 25.044922 C 18.181328 25.650922 18.091797 26.302047 18.091797 26.998047 C 18.091797 27.694047 18.183141 28.332062 18.369141 28.914062 C 18.555141 29.497062 18.831266 29.997969 19.197266 30.417969 C 19.563266 30.837969 20.018453 31.162625 20.564453 31.390625 C 21.110453 31.618625 21.737313 31.732422 22.445312 31.732422 C 23.633313 31.732422 24.573672 31.420875 25.263672 30.796875 C 25.952672 30.172875 26.381781 29.284813 26.550781 28.132812 L 24.984375 28.132812 C 24.889375 28.852813 24.626172 29.410641 24.201172 29.806641 C 23.776172 30.202641 23.185688 30.400391 22.429688 30.400391 C 21.949688 30.400391 21.5355 30.303328 21.1875 30.111328 C 20.8385 29.919328 20.557797 29.665656 20.341797 29.347656 C 20.124797 29.029656 19.965281 28.665813 19.863281 28.257812 C 19.762281 27.850813 19.710938 27.430047 19.710938 26.998047 C 19.710937 26.530047 19.758469 26.076672 19.855469 25.638672 C 19.951469 25.200672 20.110031 24.814516 20.332031 24.478516 C 20.555031 24.143516 20.852609 23.872969 21.224609 23.667969 C 21.595609 23.463969 22.057375 23.361328 22.609375 23.361328 C 23.258375 23.361328 23.774203 23.523656 24.158203 23.847656 C 24.542203 24.171656 24.793109 24.628797 24.912109 25.216797 L 26.496094 25.216797 C 26.436094 24.664797 26.292453 24.187156 26.064453 23.785156 C 25.836453 23.383156 25.545406 23.049156 25.191406 22.785156 C 24.836406 22.521156 24.42975 22.327172 23.96875 22.201172 C 23.50575 22.075172 23.010422 22.011719 22.482422 22.011719 z M 32.419922 22.011719 C 31.891922 22.011719 31.396547 22.065828 30.935547 22.173828 C 30.474547 22.281828 30.062125 22.459078 29.703125 22.705078 C 29.343125 22.951078 29.054844 23.271969 28.839844 23.667969 C 28.624844 24.063969 28.502516 24.550953 28.478516 25.126953 L 30.009766 25.126953 C 30.045766 24.442953 30.277938 23.976469 30.710938 23.730469 C 31.142938 23.484469 31.682078 23.361328 32.330078 23.361328 C 32.570078 23.361328 32.814547 23.380016 33.060547 23.416016 C 33.306547 23.452016 33.528562 23.524812 33.726562 23.632812 C 33.924563 23.740813 34.086891 23.895609 34.212891 24.099609 C 34.338891 24.303609 34.400391 24.574156 34.400391 24.910156 C 34.400391 25.198156 34.316437 25.416406 34.148438 25.566406 C 33.980438 25.716406 33.752844 25.830203 33.464844 25.908203 C 33.176844 25.986203 32.844797 26.047844 32.466797 26.089844 C 32.088797 26.131844 31.689531 26.193344 31.269531 26.277344 C 30.874531 26.349344 30.485422 26.440828 30.107422 26.548828 C 29.729422 26.656828 29.393609 26.815391 29.099609 27.025391 C 28.805609 27.235391 28.568672 27.50775 28.388672 27.84375 C 28.208672 28.17975 28.119141 28.612625 28.119141 29.140625 C 28.119141 29.608625 28.199328 30.007891 28.361328 30.337891 C 28.523328 30.667891 28.741578 30.934672 29.017578 31.138672 C 29.293578 31.342672 29.620047 31.491891 29.998047 31.587891 C 30.376047 31.683891 30.775312 31.732422 31.195312 31.732422 C 31.844313 31.732422 32.446859 31.620438 33.005859 31.398438 C 33.563859 31.176438 34.052656 30.814547 34.472656 30.310547 C 34.472656 30.814547 34.589266 31.176437 34.822266 31.398438 C 35.056266 31.620437 35.371578 31.732422 35.767578 31.732422 C 36.235578 31.732422 36.602187 31.654047 36.867188 31.498047 L 36.867188 30.310547 C 36.686188 30.358547 36.530437 30.382812 36.398438 30.382812 C 36.158437 30.382813 36.016609 30.297859 35.974609 30.130859 C 35.933609 29.962859 35.912109 29.698844 35.912109 29.339844 L 35.912109 24.5625 C 35.912109 24.0235 35.809469 23.586953 35.605469 23.251953 C 35.400469 22.916953 35.132875 22.655703 34.796875 22.470703 C 34.460875 22.285703 34.085875 22.161562 33.671875 22.101562 C 33.257875 22.041563 32.839922 22.011719 32.419922 22.011719 z M 34.382812 26.728516 L 34.382812 28.287109 C 34.382812 28.501109 34.328703 28.731562 34.220703 28.976562 C 34.112703 29.221562 33.944797 29.44725 33.716797 29.65625 C 33.487797 29.86525 33.192984 30.040734 32.833984 30.177734 C 32.473984 30.314734 32.041109 30.382812 31.537109 30.382812 C 31.296109 30.382813 31.068516 30.358547 30.853516 30.310547 C 30.638516 30.262547 30.448109 30.186125 30.287109 30.078125 C 30.125109 29.970125 29.991625 29.83025 29.890625 29.65625 C 29.789625 29.48225 29.738281 29.272484 29.738281 29.021484 C 29.738281 28.639484 29.825 28.336234 30 28.115234 C 30.174 27.895234 30.399781 27.724469 30.675781 27.605469 C 30.951781 27.486469 31.263328 27.399703 31.611328 27.345703 C 31.959328 27.291703 32.304484 27.245125 32.646484 27.203125 C 32.987484 27.161125 33.314953 27.107969 33.626953 27.042969 C 33.938953 26.976969 34.190812 26.872516 34.382812 26.728516 z"
     font-weight="400"
     font-family="sans-serif"
     white-space="normal"
     overflow="visible"
     id="path5519" />
  <path
     style="fill:#29b200;fill-opacity:1"
     d="m 11.059769,49.878547 c -4.047655,-0.61235 -7.785333,-3.34357 -9.5924954,-7.009494 -1.49637116,-3.035466 -1.50228902,-3.105941 -1.50228902,-17.890239 0,-14.527129 0.02214108,-14.819068 1.33319152,-17.578668 C 2.7919055,4.2560294 5.6831977,1.7338368 9.1282824,0.56962314 l 1.7403616,-0.58812856 13.983051,-0.0013411 c 12.925371,-0.0012394 14.087216,0.02806914 15.360169,0.38746977 4.606469,1.30057196 8.269769,5.01657186 9.424782,9.56036316 0.270424,1.0638416 0.320981,3.4231626 0.320981,14.9789796 0,9.072015 -0.0782,14.09639 -0.230951,14.838962 -0.387093,1.881767 -1.75992,4.466388 -3.176894,5.981138 -1.643958,1.757394 -3.220513,2.793875 -5.481102,3.603459 l -1.810205,0.648289 -13.559322,0.03157 c -7.457628,0.01735 -14.04535,-0.04196 -14.639384,-0.131832 z m 28.496784,-2.23867 c 3.695316,-0.871049 6.756483,-3.749784 7.988856,-7.512758 0.346826,-1.059013 0.388443,-2.333909 0.456451,-13.983051 0.0475,-8.136955 -0.0058,-13.419084 -0.146038,-14.464333 C 47.235138,7.0526835 44.152731,3.5586227 39.683023,2.4154638 38.113114,2.0139487 37.340856,1.9917199 25.082636,1.9952042 14.670037,1.998164 11.85996,2.05819 10.708206,2.3022576 6.7205746,3.1472739 3.448057,6.2843877 2.3840589,10.281984 1.919714,12.026596 1.9343413,38.010138 2.4006754,39.800519 c 0.9686678,3.718966 4.2665765,6.956269 8.0120096,7.864775 0.810323,0.196556 4.530398,0.268606 14.43901,0.279657 11.201881,0.0125 13.565657,-0.03655 14.704858,-0.305074 z"
     id="path5527"
     inkscape:connector-curvature="0" />
  <path
     style="fill:#29b200;fill-opacity:1"
     d="M 10.127119,49.75422 C 7.9931123,49.294235 5.8441284,48.123199 4.1178824,46.479631 2.455621,44.896985 1.4661448,43.414453 0.6192411,41.237617 l -0.55568178,-1.428295 0,-14.724576 c 0,-13.833441 0.02400587,-14.795098 0.39665831,-15.8898307 C 1.2095968,6.9934807 2.1337888,5.5297299 3.8741142,3.7879271 5.6335653,2.0269826 6.900365,1.2627403 9.6389896,0.31005962 10.940336,-0.1426374 11.075241,-0.1460503 25.211023,-0.08388998 l 14.259316,0.06270354 1.553941,0.56763011 c 4.132411,1.50950383 7.103853,4.50654913 8.453089,8.52592693 l 0.574531,1.7115274 0.07231,13.029661 c 0.04556,8.209668 -0.0088,13.6325 -0.146878,14.659284 -0.426961,3.17449 -1.583684,5.524988 -3.83326,7.789314 -1.465754,1.475364 -3.004134,2.403976 -5.435462,3.281004 L 39.20721,50.084746 25.355722,50.067903 C 14.324433,50.054489 11.223853,49.990623 10.127119,49.75422 Z M 40.28471,47.325322 c 3.612072,-1.115655 6.76761,-4.634667 7.351218,-8.197979 0.110758,-0.67626 0.20115,-7.094021 0.201828,-14.329813 0.0011,-11.230143 -0.0464,-13.288825 -0.331705,-14.389838 C 46.478242,6.4412428 43.646517,3.5946555 39.645983,2.5063665 37.82532,2.0110807 12.140861,2.0138831 10.282457,2.5095703 6.7569646,3.4499159 3.9331316,6.0999646 2.6815782,9.6426758 2.2042915,10.993708 2.2035642,11.016674 2.2026411,24.766949 c -8.263e-4,12.423523 0.035172,13.905441 0.3679288,15.143083 0.8288884,3.082926 3.3922655,5.930896 6.5260769,7.250623 1.0425112,0.439027 1.5827752,0.489911 6.5389462,0.615834 2.971399,0.0755 9.425265,0.09993 14.341928,0.05429 8.192231,-0.07605 9.053706,-0.118292 10.307189,-0.505453 z"
     id="path5529"
     inkscape:connector-curvature="0" />
  <path
     style="fill:#29b200;fill-opacity:1"
     d="M 21.906905,50.059369 C 10.890419,50.00925 10.825482,50.006796 9.3925951,49.586356 5.9762977,48.583941 2.8519615,45.933977 1.2294194,42.662608 1.0265025,42.253488 0.66673137,41.433966 0.42992798,40.84145 L -6.2363942e-4,39.764148 -0.02555192,26.17056 C -0.04254002,16.906808 -0.02511747,12.34976 0.02914756,11.863633 0.07294284,11.471296 0.14489511,10.830072 0.18904151,10.438692 0.294025,9.5079585 0.5923934,8.617896 1.231103,7.3301183 1.8778646,6.0261056 2.6791784,4.9368071 3.8498227,3.7702553 5.5662291,2.0598493 6.9630474,1.2154127 9.5447879,0.32740413 10.336992,0.05491971 10.586458,0.00471383 11.480245,-0.06211281 c 0.678714,-0.05074605 5.593148,-0.06140316 14.517912,-0.03148256 l 13.491877,0.04523202 1.105632,0.41097964 c 1.499219,0.5572817 2.538292,1.06511051 3.520684,1.72067321 2.712803,1.8102881 4.393968,4.0702161 5.546931,7.4565375 l 0.420808,1.235939 0.03955,12.209577 c 0.04789,14.785468 0.02715,15.456 -0.542838,17.54823 -0.514124,1.887179 -1.440629,3.554826 -2.860158,5.1481 -1.633173,1.833063 -3.336323,2.909284 -6.330137,4.000014 l -1.253969,0.456856 -3.539975,-0.0165 c -1.946987,-0.0091 -8.107332,-0.03728 -13.689655,-0.06267 z m 12.584104,-2.316975 c 3.782876,-0.07539 4.719923,-0.14549 5.692809,-0.425852 3.599074,-1.037162 6.924349,-4.729576 7.411354,-8.229632 0.289435,-2.080134 0.291592,-25.998315 0.0025,-28.011523 C 47.408881,9.7603634 46.661727,7.9641578 45.790762,6.731402 44.127994,4.3779345 41.264272,2.6468776 38.669706,2.4268807 36.838894,2.2716437 32.435519,2.1977537 25.015478,2.1977586 17.588456,2.1977635 13.127502,2.2726169 11.270341,2.4283973 9.4677664,2.579599 7.6782027,3.392755 5.9751686,4.8344599 4.0550888,6.4599046 2.566815,9.1207126 2.354247,11.308119 c -0.048025,0.494196 -0.095707,4.449013 -0.1209211,10.029305 -0.044579,9.866293 0.042356,16.713702 0.2268155,17.864933 0.1965362,1.226606 0.7672507,2.564399 1.645698,3.857627 0.5743974,0.845614 1.963556,2.242022 2.8574424,2.872355 0.8513551,0.600341 2.2929346,1.31561 2.9550405,1.466203 1.2786087,0.290813 4.8086827,0.390686 14.2731967,0.403815 3.749014,0.0052 8.383785,-0.02178 10.29949,-0.05996 z"
     id="path5531"
     inkscape:connector-curvature="0" />
  <path
     style="fill:#29b200;fill-opacity:1"
     d="m 18.236541,50.058439 c -4.015239,-0.03029 -6.841273,-0.08203 -7.29523,-0.133562 C 8.4127316,49.63782 5.6159154,48.135974 3.5321137,45.946256 2.1052187,44.446833 1.3810848,43.252062 0.34392686,40.685968 l -0.384298,-0.950815 0,-13.752948 c 0,-14.53759 0.0051962,-14.784229 0.34325406,-16.2925673 C 0.54735967,8.5988371 1.2806239,7.0089171 2.0723158,5.8530159 3.0982852,4.3550606 4.7068768,2.7730833 6.1247259,1.8676533 7.201661,1.1799289 9.5261342,0.209113 10.567843,0.01198593 10.980171,-0.0660409 13.925592,-0.08452129 25.3151,-0.08054246 l 14.232022,0.0049718 1.180765,0.45938671 c 2.35411,0.9158866 3.86565,1.8352048 5.324709,3.2384859 1.698154,1.6332349 2.679536,3.2326064 3.654002,5.9549776 l 0.402182,1.1235804 0,13.482969 c 0,10.655228 -0.02055,13.647919 -0.09799,14.269474 -0.328384,2.635814 -1.292882,4.877362 -2.949088,6.853843 -1.769491,2.111672 -3.476069,3.225872 -6.821341,4.453551 l -1.02958,0.377846 -7.210012,-0.01533 c -3.965505,-0.0084 -10.15941,-0.03758 -13.764232,-0.06477 z m 18.127102,-2.394338 c 3.139249,-0.110411 3.944348,-0.266755 5.483729,-1.064898 2.731516,-1.416246 5.089438,-4.362836 5.635358,-7.042256 0.198603,-0.974759 0.263865,-4.589619 0.263344,-14.586612 C 47.745549,15.118194 47.682891,11.588671 47.492652,10.697636 47.2276,9.4561891 46.621693,8.0440826 45.875208,6.9280753 44.352898,4.6521976 41.626568,2.8835552 39.060237,2.507024 37.421932,2.2666524 25.617106,2.1338916 17.712204,2.2669372 11.170841,2.3770333 10.600355,2.4223051 9.1630146,2.9453729 5.8762119,4.1414845 3.0511925,7.5011984 2.4213586,10.963029 2.2807755,11.735733 2.2699772,36.817186 2.4095555,38.378398 c 0.185645,2.076478 0.9803802,3.880006 2.4509741,5.562106 0.6832697,0.781541 1.5251867,1.54459 2.2766189,2.063352 0.6783273,0.468294 2.0519272,1.155214 2.6350851,1.317772 0.5990454,0.166987 1.7895144,0.27554 3.7258644,0.339741 2.591802,0.08593 20.439283,0.08807 22.865545,0.0027 l 0,-2e-6 z"
     id="path5533"
     inkscape:connector-curvature="0" />
  <path
     style="fill:#29b200;fill-opacity:1"
     d="m 9.3228013,25.120146 0,-6.441863 0.7858197,0 0.78582,0 0.01941,3.775614 0.01941,3.775615 2.097351,-2.012437 2.09735,-2.012437 0.998739,-0.0029 c 0.549306,-0.0016 0.987502,0.02615 0.973769,0.06166 -0.01373,0.03551 -0.699116,0.679941 -1.523076,1.432075 -0.823959,0.752133 -1.627812,1.493724 -1.78634,1.647978 l -0.288233,0.280463 1.954877,2.930882 c 1.075183,1.611985 1.954878,2.948057 1.954878,2.969049 0,0.02099 -0.429769,0.03757 -0.955043,0.03684 l -0.955044,-0.0013 -0.49988,-0.766456 c -0.274934,-0.421552 -0.992364,-1.518075 -1.594289,-2.436718 l -1.09441,-1.670261 -0.709051,0.652103 -0.709051,0.652101 0,1.785939 0,1.785939 -0.786506,0 -0.7865067,0 0,-6.441863 z"
     id="path5535"
     inkscape:connector-curvature="0" />
  <path
     style="fill:#29b200;fill-opacity:1"
     d="m 9.3228013,25.120146 0,-6.441863 0.7865067,0 0.786506,0 0.01066,0.842686 c 0.0059,0.463477 0.03114,2.138715 0.05618,3.722751 l 0.04552,2.880067 2.038846,-1.962476 2.038846,-1.962475 1.051001,0 c 0.578051,0 1.051001,0.01287 1.051001,0.0286 0,0.01573 -0.808978,0.775343 -1.797729,1.688027 -0.988751,0.912685 -1.797729,1.690405 -1.797729,1.728269 0,0.03786 0.876751,1.376538 1.948336,2.974833 l 1.948337,2.90599 -0.951879,0.02107 c -0.523533,0.01159 -0.987369,0.0069 -1.030746,-0.01046 -0.04338,-0.01735 -0.769868,-1.095096 -1.614427,-2.394998 -0.844558,-1.299904 -1.564491,-2.355762 -1.599852,-2.346352 -0.03536,0.0094 -0.361322,0.285552 -0.724359,0.613648 l -0.660068,0.596539 -0.006,1.779003 -0.006,1.779003 -0.786506,0 -0.7865067,0 0,-6.441863 z"
     id="path5537"
     inkscape:connector-curvature="0" />
  <path
     style="fill:#29b200;fill-opacity:1"
     d="m 21.157851,31.59327 c -1.434645,-0.378497 -2.422943,-1.386477 -2.858195,-2.915119 -0.226724,-0.796274 -0.245601,-2.397602 -0.03866,-3.279872 0.199312,-0.849762 0.630482,-1.65815 1.174652,-2.20232 0.827806,-0.827806 1.72526,-1.169684 3.070504,-1.169684 1.263631,0 2.231263,0.320858 2.925224,0.969978 0.453608,0.424297 0.710849,0.839661 0.903639,1.4591 0.238364,0.765864 0.260988,0.739698 -0.639575,0.739698 l -0.780698,0 -0.08799,-0.280895 c -0.21641,-0.690822 -0.8036,-1.275369 -1.458485,-1.451921 -0.505116,-0.136176 -1.588205,-0.05115 -2.021191,0.158672 -1.048266,0.507979 -1.607923,1.668607 -1.611118,3.341165 -0.0015,0.784946 0.198728,1.682786 0.483734,2.169112 0.272954,0.465761 0.85937,0.959416 1.314188,1.106306 0.481882,0.155631 1.344416,0.163156 1.839772,0.01605 0.729241,-0.216561 1.267852,-0.811797 1.495472,-1.652693 l 0.131145,-0.484486 0.775389,0 c 0.516386,0 0.775389,0.02766 0.775389,0.08282 0,0.04555 -0.05329,0.289929 -0.118428,0.543064 -0.304526,1.18347 -1.009272,2.114186 -1.932591,2.552252 -0.293269,0.139141 -0.71184,0.28996 -0.930157,0.335153 -0.553727,0.114625 -1.917616,0.09405 -2.412012,-0.03638 z"
     id="path5539"
     inkscape:connector-curvature="0" />
  <path
     style="fill:#29b200;fill-opacity:1"
     d="m 21.682189,31.709141 c -1.661003,-0.227103 -2.76578,-1.154293 -3.344623,-2.806992 -0.197601,-0.564188 -0.209698,-0.671577 -0.210852,-1.871916 -0.0014,-1.425785 0.07838,-1.848283 0.52315,-2.771499 0.477196,-0.990523 1.354667,-1.754994 2.386638,-2.079285 0.445911,-0.140125 0.692939,-0.166306 1.507099,-0.159728 0.837527,0.0068 1.059297,0.03573 1.585059,0.206998 0.750073,0.24434 1.382654,0.692349 1.765401,1.2503 0.293322,0.427592 0.552104,1.082899 0.594447,1.505307 l 0.02508,0.250178 -0.798394,0.02119 -0.798395,0.02119 -0.125503,-0.377856 c -0.169302,-0.50972 -0.756001,-1.146921 -1.220592,-1.325659 -0.449312,-0.17286 -1.383998,-0.169338 -1.992322,0.0075 -0.794716,0.231031 -1.469903,1.097238 -1.697669,2.177965 -0.199903,0.948518 -0.09594,2.314309 0.23491,3.086155 0.20246,0.472322 0.823741,1.097986 1.289284,1.29838 0.487656,0.209913 1.553101,0.232897 2.063052,0.0445 0.675757,-0.249647 1.185124,-0.865956 1.39422,-1.686938 l 0.0879,-0.345128 0.800479,-0.02126 0.800481,-0.02126 0,0.195317 c 0,0.36103 -0.381256,1.335285 -0.72471,1.851914 -0.500534,0.752911 -1.205573,1.238372 -2.121695,1.460912 -0.502587,0.122086 -1.471347,0.165055 -2.022445,0.0897 z"
     id="path5541"
     inkscape:connector-curvature="0" />
  <path
     style="fill:#29b200;fill-opacity:1"
     d="m 30.013925,31.595686 c -0.766466,-0.206352 -1.316918,-0.628031 -1.651123,-1.264863 -0.180114,-0.343209 -0.19915,-0.457641 -0.200171,-1.203239 -9.87e-4,-0.721857 0.02136,-0.869654 0.180362,-1.192712 0.510552,-1.037348 1.273199,-1.390384 3.963275,-1.834637 1.505378,-0.248606 1.867706,-0.403691 2.018745,-0.864073 0.203826,-0.621281 -0.06624,-1.280915 -0.660862,-1.614124 -0.308735,-0.173007 -0.408308,-0.187263 -1.307946,-0.187263 -0.857686,0 -1.018306,0.02053 -1.347363,0.172196 -0.60309,0.277974 -0.810454,0.557152 -0.970935,1.307185 l -0.04407,0.20599 -0.747627,0 -0.747627,0 0,-0.248574 c 0,-0.63621 0.492804,-1.635714 0.995297,-2.018658 0.390415,-0.297532 0.990438,-0.57255 1.532091,-0.702228 0.598798,-0.143359 2.088285,-0.163796 2.745515,-0.03767 0.932621,0.178974 1.626509,0.661175 1.946274,1.352516 0.151971,0.328566 0.160659,0.483236 0.196456,3.497145 0.04266,3.591623 0.01509,3.440048 0.615062,3.382398 l 0.358708,-0.03447 0,0.592069 0,0.592069 -0.259763,0.108537 c -0.14287,0.05969 -0.488371,0.108483 -0.76778,0.108419 -0.833011,-2.25e-4 -1.273818,-0.327064 -1.349769,-1.0009 l -0.03877,-0.343981 -0.383697,0.347355 c -0.429006,0.388372 -1.22909,0.788254 -1.829313,0.914291 -0.543403,0.114106 -1.76566,0.09626 -2.244962,-0.03278 z M 32.506016,30.2617 c 0.802223,-0.214292 1.422503,-0.682093 1.692381,-1.276353 0.112249,-0.247167 0.139832,-0.492996 0.141156,-1.258027 l 0.0016,-0.950832 -0.318348,0.139471 c -0.175091,0.07671 -0.904941,0.226379 -1.621889,0.332601 -1.63553,0.242317 -2.117125,0.441034 -2.469419,1.018936 -0.192549,0.315859 -0.217213,1.018232 -0.04729,1.346821 0.141305,0.273253 0.520525,0.564305 0.861491,0.661195 0.383254,0.108908 1.328635,0.101489 1.760276,-0.01381 z"
     id="path5543"
     inkscape:connector-curvature="0" />
  <path
     style="fill:#29b200;fill-opacity:1"
     d="m 30.442418,31.711256 c -0.997863,-0.156519 -1.664682,-0.57224 -2.058584,-1.283405 -0.211851,-0.382484 -0.22233,-0.443768 -0.22233,-1.300267 0,-0.80726 0.01878,-0.935635 0.184312,-1.259666 0.211512,-0.414046 0.675917,-0.869967 1.113602,-1.093257 0.438499,-0.223706 1.22491,-0.421378 2.709524,-0.681068 1.915651,-0.335087 2.204326,-0.517402 2.152409,-1.359377 -0.01996,-0.323637 -0.076,-0.488793 -0.237876,-0.701028 -0.345082,-0.452425 -0.677114,-0.557523 -1.764722,-0.558584 -0.826467,-8.06e-4 -0.980617,0.01972 -1.313905,0.174915 -0.563696,0.262491 -0.931088,0.79006 -0.932839,1.339542 -3.72e-4,0.116855 -0.08966,0.131085 -0.822504,0.131085 l -0.822087,0 0.04014,-0.243443 c 0.20415,-1.238075 0.666855,-1.940795 1.583896,-2.405495 0.802949,-0.406885 2.138452,-0.582187 3.319739,-0.435758 0.926683,0.114868 1.449079,0.333071 1.916534,0.800525 0.569322,0.569323 0.625028,0.816105 0.632801,2.803378 0.01021,2.611309 0.09401,4.461927 0.208256,4.599591 0.07568,0.09119 0.178054,0.108964 0.429288,0.07453 l 0.329907,-0.04522 0,0.641068 0,0.641069 -0.243443,0.07441 c -1.077623,0.32937 -2.006509,0.0026 -2.126551,-0.748106 -0.02566,-0.160475 -0.07009,-0.306257 -0.09873,-0.323958 -0.02864,-0.0177 -0.218033,0.106119 -0.420867,0.275158 -0.400861,0.334073 -1.071899,0.665639 -1.604728,0.792911 -0.499546,0.119323 -1.478013,0.164681 -1.95124,0.09045 z m 2.553901,-1.656401 c 0.543848,-0.253158 0.921842,-0.5925 1.123109,-1.008262 0.131096,-0.270808 0.170916,-0.521413 0.203785,-1.282501 0.03922,-0.908167 0.03516,-0.943629 -0.101666,-0.88841 -0.368316,0.148641 -0.606745,0.201704 -1.865342,0.415137 -1.544875,0.26198 -2.035486,0.450064 -2.319186,0.889099 -0.351993,0.544721 -0.311667,1.297894 0.08956,1.672661 0.424636,0.396636 0.585571,0.439766 1.555481,0.416865 0.782562,-0.01848 0.952612,-0.04624 1.314262,-0.214589 z"
     id="path5545"
     inkscape:connector-curvature="0" />
  <path
     style="fill:#29b200;fill-opacity:1"
     d="m 38.760615,25.120146 0,-6.441863 0.749054,0 0.749054,0 0,6.441863 0,6.441863 -0.749054,0 -0.749054,0 0,-6.441863 z"
     id="path5547"
     inkscape:connector-curvature="0" />
  <path
     style="fill:#29b200;fill-opacity:1"
     d="m 38.68571,25.12268 0,-6.444397 0.824377,0 0.824378,0 -0.01915,6.423137 -0.01914,6.423136 -0.805233,0.02126 -0.805233,0.02126 0,-6.444397 z"
     id="path5549"
     inkscape:connector-curvature="0" />
  <path
     style="fill:#29b200;fill-opacity:1"
     d="m 18.184214,25.677749 c 0.0048,-0.04579 0.03296,-0.214804 0.0471,-0.282488 0.06725,-0.321803 0.170983,-0.613116 0.368254,-1.034208 0.09152,-0.195356 0.169296,-0.340298 0.261839,-0.487955 0.267997,-0.427602 0.621355,-0.809295 1.024694,-1.10686 0.339622,-0.250558 0.697475,-0.437059 1.089616,-0.567871 0.3114,-0.103879 0.541708,-0.150173 0.839197,-0.168685 0.225363,-0.01402 0.754112,-0.02238 0.919932,-0.01454 0.0618,0.0029 0.163973,0.0073 0.227057,0.0098 0.463799,0.01813 0.667452,0.04842 1.004625,0.149411 0.432202,0.129457 0.763568,0.280014 1.088893,0.494743 0.303471,0.200305 0.561956,0.438137 0.765294,0.704149 0.301114,0.393925 0.584139,1.051206 0.659195,1.530878 0.01093,0.06986 0.0356,0.32467 0.03176,0.327969 -0.0019,0.0016 -0.145666,0.0066 -0.31947,0.01093 -0.317696,0.008 -0.675406,0.01742 -0.992496,0.02614 -0.09398,0.0026 -0.196158,0.005 -0.227057,0.0054 l -0.05618,7.45e-4 -0.07509,-0.221893 c -0.0836,-0.247028 -0.09483,-0.275822 -0.146836,-0.376386 -0.08185,-0.158286 -0.197811,-0.32731 -0.335981,-0.489737 -0.062,-0.07288 -0.248497,-0.258573 -0.319886,-0.318499 -0.193626,-0.162536 -0.362312,-0.263497 -0.529435,-0.316873 -0.483846,-0.154532 -1.388911,-0.137453 -1.95685,0.03693 -0.562185,0.172613 -1.080341,0.678168 -1.403742,1.369607 -0.101554,0.217125 -0.198158,0.496041 -0.246872,0.712778 l -0.0086,0.03809 -0.856148,0 -0.856147,0 0.0033,-0.0316 z"
     id="path5551"
     inkscape:connector-curvature="0" />
  <path
     style="fill:#29b200;fill-opacity:1"
     d="m 21.749823,31.725392 c -0.0824,-0.01 -0.250933,-0.03852 -0.374527,-0.06348 -1.493309,-0.301608 -2.471354,-1.182069 -3.031528,-2.729059 -0.163403,-0.451258 -0.178872,-0.538756 -0.236074,-1.335348 -0.02324,-0.323671 -0.02348,-0.92778 -4.62e-4,-1.179131 0.0094,-0.102995 0.02642,-0.288386 0.03775,-0.41198 0.06094,-0.664762 0.146284,-0.985208 0.424565,-1.594053 0.231158,-0.505745 0.485219,-0.878237 0.848848,-1.24454 0.46109,-0.464481 0.973546,-0.782245 1.587154,-0.984162 0.454879,-0.149686 0.575447,-0.163438 1.43715,-0.16393 0.944173,-5.38e-4 1.137678,0.02148 1.647919,0.187517 0.699505,0.227623 1.302246,0.619983 1.682492,1.095231 0.376637,0.470737 0.686706,1.226045 0.734128,1.788284 l 0.0128,0.151748 -0.540561,0.01227 c -0.297309,0.0068 -0.659084,0.01747 -0.803944,0.02382 l -0.263383,0.01154 -0.08941,-0.263525 c -0.161724,-0.476654 -0.44064,-0.872347 -0.84029,-1.192106 -0.364302,-0.291478 -0.655093,-0.372714 -1.333759,-0.372601 -0.909491,1.52e-4 -1.425844,0.172879 -1.887364,0.63135 -0.376452,0.373965 -0.6521,0.862671 -0.817234,1.448904 -0.121853,0.432583 -0.160288,0.821463 -0.145522,1.472373 0.01482,0.653438 0.08488,1.120255 0.238799,1.591201 0.122304,0.374217 0.29964,0.649335 0.635737,0.986277 0.528226,0.529552 0.890089,0.678562 1.713415,0.705557 0.705844,0.02314 1.112963,-0.07129 1.519753,-0.3525 0.290513,-0.200831 0.537883,-0.489632 0.713005,-0.832422 0.115786,-0.226642 0.17688,-0.393631 0.258443,-0.706393 0.04018,-0.154077 0.07492,-0.249805 0.09661,-0.266255 0.02741,-0.02078 0.181867,-0.0258 0.808743,-0.02628 l 0.774867,-5.95e-4 -0.0098,0.201308 c -0.01159,0.238831 -0.07435,0.475186 -0.232073,0.87411 -0.310967,0.7865 -0.654179,1.302881 -1.129962,1.700086 -0.557546,0.465465 -1.169088,0.718322 -1.985019,0.820756 -0.214945,0.02698 -1.264575,0.03857 -1.451291,0.01602 z"
     id="path5553"
     inkscape:connector-curvature="0" />
  <path
     style="fill:#29b200;fill-opacity:1"
     d="m 35.596188,31.745388 c -0.198005,-0.02315 -0.35157,-0.06851 -0.532284,-0.157227 -0.296607,-0.145615 -0.475973,-0.368987 -0.542395,-0.675463 -0.05357,-0.247161 -0.08843,-0.346438 -0.121671,-0.346438 -0.03604,0 -0.239094,0.136676 -0.424505,0.285738 -0.454552,0.365437 -1.152362,0.692172 -1.710668,0.800983 -0.345255,0.06729 -0.795551,0.09742 -1.310844,0.08771 -0.425288,-0.008 -0.503127,-0.01446 -0.711601,-0.05891 -0.932412,-0.198816 -1.542652,-0.6258 -1.905401,-1.333206 -0.115689,-0.225608 -0.142574,-0.319087 -0.185139,-0.643723 -0.04763,-0.363264 -0.04333,-0.843439 0.01091,-1.217212 0.04696,-0.323609 0.06761,-0.396392 0.170065,-0.599243 0.158334,-0.313487 0.446271,-0.645616 0.773667,-0.892407 0.496222,-0.374054 1.059238,-0.542496 2.999173,-0.897291 1.353689,-0.247576 1.743874,-0.365427 1.998536,-0.603633 0.181483,-0.169756 0.241126,-0.403917 0.204443,-0.802643 -0.03469,-0.377099 -0.112731,-0.545048 -0.37716,-0.811703 -0.33566,-0.338485 -0.64048,-0.403676 -1.816455,-0.38848 -0.72931,0.0094 -0.80026,0.01996 -1.100349,0.163415 -0.268746,0.128469 -0.439483,0.260006 -0.608442,0.468747 -0.186137,0.229963 -0.295596,0.495173 -0.324207,0.785522 -0.0073,0.07399 -0.02419,0.140771 -0.03865,0.152778 -0.01413,0.01173 -0.0257,0.03294 -0.0257,0.04712 0,0.02151 -0.132355,0.0258 -0.79587,0.0258 -0.759882,0 -0.795869,-0.0016 -0.795869,-0.0344 0,-0.06225 0.09314,-0.54011 0.141799,-0.727533 0.240944,-0.928006 0.703067,-1.5161 1.506119,-1.916678 0.824293,-0.411173 2.218205,-0.57958 3.408195,-0.411764 0.840775,0.118568 1.322817,0.324086 1.776089,0.757233 0.311845,0.298 0.471962,0.545758 0.545705,0.844402 0.09346,0.378492 0.09589,0.413063 0.113401,1.610465 0.04632,3.168355 0.07918,4.141688 0.159642,4.728402 0.03093,0.225542 0.05912,0.277304 0.172908,0.317506 0.07605,0.02687 0.209299,0.01968 0.560863,-0.03024 l 0.07959,-0.0113 0,0.647392 0,0.647391 -0.155459,0.04742 c -0.451996,0.137867 -0.799693,0.181078 -1.138425,0.14148 z M 32.068001,30.24763 c 0.175071,-0.01016 0.368888,-0.02726 0.430706,-0.038 0.489318,-0.08498 1.120815,-0.46756 1.425642,-0.863706 0.188605,-0.245106 0.300755,-0.533136 0.341483,-0.877015 0.05571,-0.470428 0.08145,-1.5428 0.03807,-1.586183 -0.01506,-0.01506 -0.07468,-0.0014 -0.220034,0.05033 -0.269471,0.09595 -0.576528,0.163321 -1.407224,0.308758 -1.400882,0.245265 -1.797499,0.343353 -2.181619,0.53954 -0.205302,0.104855 -0.422055,0.322207 -0.517605,0.519034 -0.113654,0.234117 -0.15004,0.376414 -0.160971,0.629512 -0.01772,0.410212 0.07765,0.677382 0.330851,0.926868 0.246167,0.242556 0.4202,0.337122 0.703525,0.382284 0.183454,0.02924 0.78786,0.0335 1.217175,0.0086 z"
     id="path5555"
     inkscape:connector-curvature="0" />
</svg>
