<?xml version="1.0" encoding="UTF-8" standalone="no"?>
<!-- Generator: Adobe Illustrator 16.0.0, SVG Export Plug-In . SVG Version: 6.00 Build 0)  -->

<svg
   xmlns:dc="http://purl.org/dc/elements/1.1/"
   xmlns:cc="http://creativecommons.org/ns#"
   xmlns:rdf="http://www.w3.org/1999/02/22-rdf-syntax-ns#"
   xmlns:svg="http://www.w3.org/2000/svg"
   xmlns="http://www.w3.org/2000/svg"
   xmlns:sodipodi="http://sodipodi.sourceforge.net/DTD/sodipodi-0.dtd"
   xmlns:inkscape="http://www.inkscape.org/namespaces/inkscape"
   version="1.1"
   id="Capa_1"
   x="0px"
   y="0px"
   width="612px"
   height="612px"
   viewBox="0 0 612 612"
   style="enable-background:new 0 0 612 612;"
   xml:space="preserve"
   inkscape:version="0.91 r13725"
   sodipodi:docname="information-icon8.svg"><metadata
     id="metadata7593"><rdf:RDF><cc:Work
         rdf:about=""><dc:format>image/svg+xml</dc:format><dc:type
           rdf:resource="http://purl.org/dc/dcmitype/StillImage" /></cc:Work></rdf:RDF></metadata><defs
     id="defs7591" /><sodipodi:namedview
     pagecolor="#ffffff"
     bordercolor="#666666"
     borderopacity="1"
     objecttolerance="10"
     gridtolerance="10"
     guidetolerance="10"
     inkscape:pageopacity="0"
     inkscape:pageshadow="2"
     inkscape:window-width="1855"
     inkscape:window-height="926"
     id="namedview7589"
     showgrid="false"
     inkscape:zoom="0.77124183"
     inkscape:cx="348.32978"
     inkscape:cy="198.26685"
     inkscape:window-x="65"
     inkscape:window-y="24"
     inkscape:window-maximized="1"
     inkscape:current-layer="Capa_1" /><g
     id="g7552"><g
       id="_x34__25_"><g
         id="g7555"><path
           d="M535.5,0h-459C34.253,0,0,34.253,0,76.5v459C0,577.747,34.253,612,76.5,612h459c42.247,0,76.5-34.253,76.5-76.5v-459     C612,34.253,577.747,0,535.5,0z M573.75,535.5c0,21.133-17.117,38.25-38.25,38.25h-459c-21.133,0-38.25-17.117-38.25-38.25v-459     c0-21.133,17.117-38.25,38.25-38.25h459c21.133,0,38.25,17.136,38.25,38.25V535.5z M421.267,173.425     c-9.142-5.278-20.847-2.142-26.125,7L272.837,392.272l-68.429-63.112c-7.229-7.707-19.316-8.108-27.043-0.88     c-7.708,7.229-8.109,19.316-0.88,27.024l87.439,80.649c7.229,7.708,19.316,8.109,27.043,0.88     c2.333-2.18,137.317-237.284,137.317-237.284C433.545,190.409,430.408,178.704,421.267,173.425z"
           id="path7557" /></g></g></g><g
     id="g7559" /><g
     id="g7561" /><g
     id="g7563" /><g
     id="g7565" /><g
     id="g7567" /><g
     id="g7569" /><g
     id="g7571" /><g
     id="g7573" /><g
     id="g7575" /><g
     id="g7577" /><g
     id="g7579" /><g
     id="g7581" /><g
     id="g7583" /><g
     id="g7585" /><g
     id="g7587" /><path
     style="fill:#29b200;fill-opacity:1"
     d="M 60.422034,610.65702 C 37.322613,604.97318 16.028357,587.68011 6.3512266,566.74615 l -5.5732605,-12.05632 0,-248.94915 0,-248.949155 5.8775935,-11.92844 C 14.65728,28.623777 29.067067,14.636 46.159322,6.5162456 l 14.262712,-6.77556763 243.762716,0 c 227.22481,0 244.66162,0.313803 257.01222,4.62534763 18.23807,6.3668284 32.88694,19.7351414 42.3275,38.6273534 l 7.95689,15.923148 0,245.479773 c 0,274.29659 1.0009,259.03725 -18.43951,281.12272 -5.7292,6.5087 -16.82266,14.88532 -25.08915,18.94469 l -14.8188,7.27697 -242.4661,0.4153 C 177.31144,612.38444 64.700847,611.70987 60.422034,610.65702 Z M 556.41456,566.80318 c 17.13716,-12.22317 16.16948,3.44213 16.15879,-261.58203 -0.0104,-234.105876 -0.14729,-240.875724 -5.07177,-248.952031 -2.78413,-4.56614 -8.90626,-10.400886 -13.6047,-12.966102 -8.0497,-4.394897 -22.41093,-4.664034 -248.87367,-4.664034 -238.687436,0 -240.379997,0.03656 -247.492308,5.346673 -3.938708,2.940668 -9.56729,8.568892 -12.507958,12.507162 -5.297964,7.095258 -5.352941,9.346106 -6.034763,247.068442 l -0.68809,239.90797 5.676696,10.1003 c 3.535003,6.2897 9.664798,12.08532 16.247413,15.3617 10.42112,5.18693 13.947023,5.25184 249.14699,4.58626 l 238.57627,-0.67512 8.4671,-6.03919 z"
     id="path7595"
     inkscape:connector-curvature="0" /><path
     style="fill:#29b200;fill-opacity:1"
     d="M 56.532203,610.61229 C 33.875455,603.69545 13.520762,585.71584 4.4863464,564.63939 -0.34165211,553.37613 -0.51864407,544.21003 -0.51864407,305.43948 l 0,-247.52376 L 5.9595821,45.131554 C 15.701509,25.906787 26.754755,14.865859 44.954831,6.1797644 l 16.423647,-7.8382842 245.877702,0.69959878 245.87772,0.69959899 13.52043,6.11366143 c 16.83972,7.6145666 34.61884,26.2920136 41.15132,43.2305656 4.77425,12.37944 4.97232,22.603816 4.97232,256.655775 0,227.48081 -0.30982,244.65032 -4.63842,257.05156 -5.81981,16.6735 -23.2198,34.74649 -42.01149,43.63638 l -13.9696,6.60867 -244.57159,-0.22289 C 173.07247,612.69179 60.097881,611.70085 56.532203,610.61229 Z m 502.190627,-47.68336 9.4026,-8.61685 2.44754,-52.97213 c 1.34614,-29.13468 1.95907,-138.7639 1.36206,-243.62047 C 570.75576,50.5909 571.29653,57.837975 556.1855,46.651865 548.88138,41.24491 548.29321,41.232203 305.33484,41.232203 l -243.52939,0 -9.767979,9.766302 -9.767979,9.766298 -1.961092,239.182857 -1.961089,239.18285 5.850919,11.36352 c 11.650997,22.62831 -8.15907,21.05173 264.52227,21.05173 l 240.59973,0 9.4026,-8.61683 z"
     id="path7597"
     inkscape:connector-curvature="0" /><path
     style="fill:#29b200;fill-opacity:1"
     d="m 222.35656,397.94598 c -26.30805,-24.16632 -48.91678,-46.87482 -50.2416,-50.46332 -4.85206,-13.14259 8.59719,-27.57792 22.315,-23.9511 3.31428,0.87626 21.77979,16.16255 41.03445,33.96955 19.25466,17.807 35.76817,32.4085 36.69669,32.44779 0.92852,0.0393 28.74861,-46.89826 61.82243,-104.30568 33.07381,-57.40741 62.29823,-106.61377 64.94314,-109.34746 6.08373,-6.28794 18.9973,-6.41121 25.80936,-0.24639 10.87113,9.83824 8.25514,15.79641 -55.71209,126.89044 -33.51259,58.20245 -65.03149,112.57115 -70.04201,120.81934 -16.83694,27.7166 -19.22861,26.91091 -76.62537,-25.81317 z"
     id="path7599"
     inkscape:connector-curvature="0" /><path
     style="fill:#29b200;fill-opacity:1"
     d="m 254.45319,428.66347 c -8.30442,-7.43158 -30.56103,-28.02501 -49.45912,-45.76318 -30.35538,-28.49222 -34.36017,-33.22883 -34.36017,-40.63897 0,-10.70729 9.10724,-19.66471 19.99364,-19.66471 6.59397,0 14.22776,5.66321 43.69449,32.41525 19.63754,17.82839 36.4817,32.41526 37.43145,32.41526 0.94976,0 29.74212,-48.07331 63.98302,-106.82958 51.29743,-88.02469 63.49492,-107.24247 69.29332,-109.17528 9.92701,-3.309 21.11781,1.94638 25.21679,11.84222 3.99477,9.64423 8.5264,0.74608 -68.31751,134.14569 -71.10583,123.4384 -70.79213,122.96895 -82.84031,123.97159 -8.34284,0.69431 -11.42674,-0.89777 -24.6356,-12.71829 z"
     id="path7601"
     inkscape:connector-curvature="0" /><path
     style="fill:#29b200;fill-opacity:1"
     d="m 271.50762,441.22127 c -5.2884,-1.69667 -10.92534,-6.39295 -40.96179,-34.12631 -32.88333,-30.36194 -56.01327,-53.16379 -58.14208,-57.31734 -6.10089,-11.90353 3.9308,-27.36311 17.71001,-27.29244 7.74392,0.0397 11.06225,2.46238 45.18391,32.98805 26.35836,23.58052 35.45264,31.27214 36.54461,30.90816 1.17201,-0.39068 26.61757,-42.76124 64.01362,-106.59202 63.60015,-108.5582 63.556,-108.49257 73.54384,-109.32084 6.27725,-0.52056 10.84918,0.99849 15.412,5.12073 4.52145,4.08485 7.1485,9.13768 7.1485,13.74927 0,6.40068 -4.95511,15.59532 -59.3911,110.20547 -64.71144,112.46894 -79.50051,136.87083 -85.01944,140.28172 -4.00802,2.4771 -10.82309,3.06995 -16.04208,1.39555 z"
     id="path7603"
     inkscape:connector-curvature="0" /><path
     style="fill:#29b200;fill-opacity:1"
     d="M 116.56665,612.17738 C 50.860625,611.56517 56.352236,612.10608 42.458761,604.8779 24.543447,595.55733 10.524273,580.18132 2.7284968,561.30235 L -0.30026858,553.96762 -0.57633562,305.64015 -0.85240275,57.312692 4.3529653,47.549174 C 17.310243,23.245686 26.191828,14.684998 50.207731,3.3511774 l 11.455999,-5.4064273 245.9904,0.7641956 245.9904,0.76419548 9.69646,4.63189802 c 11.70316,5.5904757 16.68187,8.9030088 24.3606,16.2080568 10.22817,9.730421 16.58426,19.06995 21.42412,31.480237 l 2.761,7.079687 0.85203,119.64786 c 1.09875,154.29333 -0.17656,365.46148 -2.2714,376.10195 -2.42823,12.33391 -8.23312,22.66855 -18.79924,33.46893 -8.02388,8.20178 -15.7765,13.63793 -28.38358,19.90261 l -10.28248,5.10954 -188.64955,-0.18776 c -103.75725,-0.10328 -215.26088,-0.43572 -247.78584,-0.73877 z m 442.18836,-49.74744 8.98059,-8.46232 0.85159,-16.50316 C 571.00156,490.6759 571.42218,457.5294 571.3853,316.964 571.34663,169.58208 570.45879,93.587458 568.5575,74.917752 567.13287,60.928493 565.30998,55.140824 561.01609,50.973748 554.66163,44.806951 551.48705,43.846657 534.1221,42.838447 524.71881,42.292492 428.62447,41.934848 290.30818,41.93102 l -228.293621,-0.0063 -9.335422,8.932579 c -5.476933,5.240602 -9.528988,9.879954 -9.803745,11.224693 -0.257577,1.260658 -1.314319,109.059124 -2.348315,239.552164 l -1.879993,237.26005 5.1359,10.28725 c 2.824745,5.65797 5.813244,11.05315 6.641107,11.98927 4.458697,5.04173 16.198508,7.56851 40.535028,8.72443 8.789377,0.41747 115.618481,0.81261 237.397991,0.87809 l 221.41731,0.11905 8.98059,-8.46233 z"
     id="path7605"
     inkscape:connector-curvature="0" /><path
     style="fill:#29b200;fill-opacity:1"
     d="m 271.27857,441.2621 c -6.40946,-2.28723 -14.87208,-9.54736 -55.23458,-47.38602 -25.04408,-23.47808 -43.18724,-41.91545 -44.40913,-45.12926 -0.536,-1.40979 -0.97454,-4.61572 -0.97454,-7.1243 0,-13.83747 15.36958,-23.51494 27.5097,-17.32151 4.46096,2.2758 14.40023,10.52475 38.04449,31.57444 24.30765,21.64027 34.35039,30.01489 35.52427,29.6236 1.33497,-0.44499 20.84171,-32.8247 65.57375,-108.84746 37.71396,-64.09542 56.92237,-96.06714 59.72546,-99.41099 0.80164,-0.95628 3.0666,-2.91603 5.03325,-4.35499 8.61928,-6.30661 23.21134,-1.28342 28.47124,9.80099 2.8031,5.9071 1.94651,10.02461 -4.86589,23.38941 -9.09728,17.84738 -86.32815,152.47249 -112.52852,196.15428 -17.8524,29.76387 -22.14462,35.86465 -26.93074,38.27815 -4.61082,2.3251 -9.80134,2.58696 -14.93876,0.75366 z"
     id="path7607"
     inkscape:connector-curvature="0" /></svg>