<?xml version="1.0" encoding="UTF-8" standalone="no"?>
<!-- Generator: Adobe Illustrator 19.0.0, SVG Export Plug-In . SVG Version: 6.00 Build 0)  -->

<svg
   xmlns:dc="http://purl.org/dc/elements/1.1/"
   xmlns:cc="http://creativecommons.org/ns#"
   xmlns:rdf="http://www.w3.org/1999/02/22-rdf-syntax-ns#"
   xmlns:svg="http://www.w3.org/2000/svg"
   xmlns="http://www.w3.org/2000/svg"
   xmlns:sodipodi="http://sodipodi.sourceforge.net/DTD/sodipodi-0.dtd"
   xmlns:inkscape="http://www.inkscape.org/namespaces/inkscape"
   version="1.1"
   id="Capa_1"
   x="0px"
   y="0px"
   viewBox="0 0 512 512"
   style="enable-background:new 0 0 512 512;"
   xml:space="preserve"
   inkscape:version="0.91 r13725"
   sodipodi:docname="information-icon7.svg"><metadata
     id="metadata7367"><rdf:RDF><cc:Work
         rdf:about=""><dc:format>image/svg+xml</dc:format><dc:type
           rdf:resource="http://purl.org/dc/dcmitype/StillImage" /></cc:Work></rdf:RDF></metadata><defs
     id="defs7365" /><sodipodi:namedview
     pagecolor="#ffffff"
     bordercolor="#666666"
     borderopacity="1"
     objecttolerance="10"
     gridtolerance="10"
     guidetolerance="10"
     inkscape:pageopacity="0"
     inkscape:pageshadow="2"
     inkscape:window-width="1855"
     inkscape:window-height="926"
     id="namedview7363"
     showgrid="false"
     inkscape:zoom="1.3037281"
     inkscape:cx="417.55073"
     inkscape:cy="300.21726"
     inkscape:window-x="65"
     inkscape:window-y="24"
     inkscape:window-maximized="1"
     inkscape:current-layer="Capa_1" /><g
     id="g7297"><g
       id="g7299"><path
         d="M412.109,413.938c-1.859-1.86-4.439-2.92-7.069-2.92c-2.63,0-5.21,1.061-7.07,2.92c-1.86,1.87-2.93,4.45-2.93,7.08    s1.069,5.21,2.93,7.07s4.44,2.93,7.07,2.93c2.63,0,5.21-1.069,7.069-2.93c1.86-1.86,2.931-4.44,2.931-7.07    C415.04,418.388,413.97,415.808,412.109,413.938z"
         id="path7301" /></g></g><g
     id="g7303"><g
       id="g7305"><path
         d="M82.082,445.958c-1.86-1.86-4.44-2.92-7.07-2.92c-2.63,0-5.21,1.06-7.07,2.92c-1.859,1.87-2.93,4.439-2.93,7.08    c0,2.63,1.07,5.2,2.93,7.069c1.86,1.861,4.44,2.931,7.07,2.931c2.63,0,5.2-1.07,7.07-2.931c1.859-1.869,2.93-4.439,2.93-7.069    C85.012,450.396,83.942,447.827,82.082,445.958z"
         id="path7307" /></g></g><g
     id="g7309"><g
       id="g7311"><path
         d="M426.289,177.969c-24.433-42.83-65.595-74.912-112.933-88.021c-5.324-1.472-10.831,1.646-12.307,6.969    c-1.474,5.322,1.646,10.832,6.969,12.307c42.287,11.71,79.062,40.38,100.899,78.656c1.845,3.234,5.221,5.047,8.694,5.047    c1.68,0,3.383-0.424,4.946-1.316C427.356,188.872,429.026,182.766,426.289,177.969z"
         id="path7313" /></g></g><g
     id="g7315"><g
       id="g7317"><path
         d="M264.225,83.158l-1.069-0.003c-5.522,0-10,4.478-10,10s4.477,10,9.999,10l0.954,0.003c0.02,0,0.039,0,0.059,0    c5.496,0,9.967-4.439,9.999-9.942C274.199,87.694,269.748,83.191,264.225,83.158z"
         id="path7319" /></g></g><g
     id="g7321"><g
       id="g7323"><path
         d="M511.999,278c0-5.522-4.478-10-10-10h-12.223c-2.454-58.748-26.482-113.63-68.313-155.461    c-34.026-34.027-76.69-56.268-123.044-64.708v-5.413C298.419,19.028,279.391,0,256.001,0s-42.418,19.028-42.418,42.418v5.413    c-46.354,8.441-89.018,30.682-123.044,64.708C48.708,154.37,24.68,209.251,22.226,268H10.003c-5.522,0-10,4.478-10,10    c0,29.441,19.988,54.287,47.103,61.719L5.644,359.802c-4.971,2.408-7.048,8.389-4.641,13.359    c2.409,4.973,8.393,7.046,13.359,4.641L64.76,353.39l55.799,115.197l-50.398,24.411c-4.971,2.407-7.048,8.389-4.641,13.359    c1.728,3.566,5.294,5.643,9.007,5.643c1.463,0,2.948-0.322,4.353-1.002l59.398-28.771c2.387-1.156,4.217-3.213,5.087-5.719    c0.87-2.505,0.71-5.254-0.446-7.641l-4.722-9.748l143.412,29.157c6.709,1.364,13.496,2.031,20.261,2.031    c24.687,0,49.034-8.897,67.861-25.324l18.736-16.348c4.162-3.631,4.592-9.948,0.961-14.109c-3.632-4.163-9.948-4.592-14.109-0.961    l-18.736,16.348c-19.323,16.858-45.862,23.872-70.989,18.764l-158.362-32.196l-29.947-61.826l69.341-27.906    c14.965-6.023,31.509-6.177,46.582-0.432l71.465,27.235c3.836,1.462,6.788,4.366,8.313,8.177    c1.525,3.813,1.391,7.952-0.378,11.656c-3.089,6.467-10.32,9.699-17.199,7.678L217.604,384.1    c-5.296-1.549-10.856,1.479-12.412,6.779c-1.555,5.3,1.48,10.856,6.779,12.412l57.804,16.964c3.27,0.959,6.57,1.42,9.822,1.419    c9.755,0,19.045-4.148,25.559-11.412l3.517,0.218c2.414,0.15,4.823,0.225,7.231,0.225c25.257-0.001,49.973-8.183,70.281-23.393    l52.606-39.395c4.255-3.188,10.268-2.981,14.296,0.488c2.548,2.193,3.957,5.253,3.969,8.615c0.011,3.362-1.379,6.432-3.912,8.643    l-29.155,25.438c-4.161,3.631-4.592,9.948-0.961,14.109c3.631,4.162,9.947,4.591,14.109,0.961l29.155-25.438    c6.87-5.995,10.793-14.662,10.763-23.779c-0.022-6.962-2.355-13.642-6.53-19.061C494.732,328.761,511.999,305.364,511.999,278z     M233.583,42.418L233.583,42.418C233.583,30.057,243.64,20,256.001,20s22.418,10.057,22.418,22.418v2.646    c-7.406-0.699-14.884-1.062-22.418-1.062s-15.012,0.362-22.418,1.062V42.418z M256.001,64.003    c114.646,0,208.515,90.624,213.757,203.997H42.244C47.486,154.627,141.355,64.003,256.001,64.003z M88.545,356.614l-7.079-14.615    h43.395L88.545,356.614z M374.197,371.306c-17.403,13.031-38.701,19.836-60.375,19.37c0.567-5.512-0.177-11.143-2.27-16.374    c-3.572-8.928-10.774-16.012-19.76-19.437l-33.761-12.866h155.299L374.197,371.306z M448,321.999H64.003    c-20.823,0-38.314-14.539-42.854-34h469.703C486.314,307.461,468.822,321.999,448,321.999z"
         id="path7325" /></g></g><g
     id="g7327"><g
       id="g7329"><path
         d="M274.764,139.52c-6.658,0-13.163,1.933-18.763,5.462c-5.6-3.529-12.104-5.462-18.763-5.462    c-19.756,0-35.828,16.515-35.828,36.814c0,29.468,44.027,59.645,49.047,62.987c1.679,1.118,3.611,1.678,5.544,1.678    s3.865-0.56,5.544-1.678c5.02-3.344,49.047-33.521,49.047-62.987C310.592,156.035,294.52,139.52,274.764,139.52z M256.015,218.755    c-13.947-10.418-34.604-29.471-34.604-42.421c0-9.271,7.101-16.814,15.828-16.814c4.321,0,8.36,1.819,11.372,5.124    c1.895,2.079,4.578,3.264,7.391,3.264c2.813,0,5.496-1.185,7.391-3.264c3.012-3.305,7.051-5.124,11.372-5.124    c8.728,0,15.828,7.543,15.828,16.814C290.592,188.367,271.883,206.983,256.015,218.755z"
         id="path7331" /></g></g><g
     id="g7333" /><g
     id="g7335" /><g
     id="g7337" /><g
     id="g7339" /><g
     id="g7341" /><g
     id="g7343" /><g
     id="g7345" /><g
     id="g7347" /><g
     id="g7349" /><g
     id="g7351" /><g
     id="g7353" /><g
     id="g7355" /><g
     id="g7357" /><g
     id="g7359" /><g
     id="g7361" /><path
     style="fill:#29b200;fill-opacity:1"
     d="m 250.9701,239.38975 c -6.75088,-3.39727 -26.3104,-20.31682 -33.90149,-29.32576 -3.77035,-4.47458 -8.66799,-11.77423 -10.88363,-16.22146 -3.75528,-7.53758 -4.02844,-8.75122 -4.02844,-17.8983 0,-8.55146 0.39037,-10.60738 3.03768,-15.99833 3.83804,-7.81571 11.95812,-15.20897 20.06563,-18.26956 7.81224,-2.94913 19.30459,-2.55365 26.2949,0.90488 l 4.61143,2.28156 4.45281,-2.37467 c 3.634,-1.938 6.24801,-2.37426 14.21551,-2.37245 8.48032,0.002 10.47516,0.38074 15.18644,2.88395 14.40631,7.65437 22.85869,24.14468 20.02758,39.0731 -2.9057,15.32168 -18.55309,35.08273 -41.33621,52.20338 -9.72513,7.30807 -12.05005,7.97816 -17.74221,5.11366 z m 23.48612,-37.11211 c 9.95849,-10.05969 16.10852,-20.09699 16.10541,-26.28521 -0.004,-8.56204 -7.4758,-15.82674 -16.27726,-15.82674 -4.20515,0 -5.95453,0.67081 -9.87348,3.78608 -6.18139,4.91373 -9.71864,4.91597 -16.61825,0.0105 -10.98714,-7.81157 -22.86261,-3.52749 -25.94612,9.36007 -0.88186,3.68575 1.46066,11.39317 5.08285,16.72369 3.70116,5.44676 14.53654,16.63039 22.67248,23.40119 l 6.41955,5.34241 4.5252,-3.51611 c 2.48885,-1.93387 8.74818,-7.78202 13.90962,-12.99591 z"
     id="path7369"
     inkscape:connector-curvature="0" /><path
     style="fill:#29b200;fill-opacity:1"
     d="m 245.21745,236.10007 c -10.64833,-7.47803 -27.673,-23.98917 -33.9669,-32.94232 -7.1693,-10.1984 -9.91435,-17.78939 -9.85895,-27.26325 0.0244,-4.17627 0.80343,-9.69155 1.73111,-12.25617 3.61939,-10.00594 12.61352,-19.0184 22.43946,-22.48519 6.81243,-2.40357 18.4921,-2.06649 24.97102,0.72066 5.34143,2.29783 5.42914,2.30022 9.93599,0.27119 3.43131,-1.54481 7.08237,-2.0471 14.87989,-2.0471 9.40404,0 10.85004,0.28649 16.0859,3.18707 7.1959,3.9864 12.6571,9.96212 16.29962,17.83529 2.28406,4.93686 2.8277,7.76165 2.85849,14.8528 0.0355,8.1611 -0.27323,9.37814 -4.5395,17.89831 -2.51765,5.02798 -7.71941,12.81 -11.55948,17.29337 -11.8654,13.85313 -32.84054,30.35689 -38.58153,30.35689 -1.81707,0 -5.98009,-2.11031 -10.69512,-5.42155 z m 18.60106,-24.38628 c 16.08995,-13.65008 25.79808,-27.10105 25.93154,-35.92907 0.19423,-12.84812 -14.4064,-19.48392 -25.27827,-11.48866 -6.10491,4.4896 -10.75763,4.54781 -17.15205,0.21458 -6.43092,-4.35795 -10.94823,-5.0765 -16.08476,-2.55852 -6.02655,2.95427 -9.31632,8.40162 -8.74764,14.48475 0.62613,6.69767 3.11313,11.47629 10.46649,20.1107 5.84138,6.85901 21.41288,21.07789 23.10709,21.09988 0.41351,0.005 3.90443,-2.66478 7.7576,-5.93366 z"
     id="path7371"
     inkscape:connector-curvature="0" /><path
     style="fill:#29b200;fill-opacity:1"
     d="m 67.598756,508.96075 c -3.607544,-3.60754 -3.721136,-10.6606 -0.221879,-13.77678 1.83966,-1.63827 46.891403,-24.21332 52.168723,-26.14131 0.50297,-0.18375 -11.64499,-26.28285 -26.995452,-57.99799 l -27.909945,-57.66392 -11.513018,5.73361 c -6.332161,3.15349 -18.451329,9.02547 -26.931484,13.04884 -14.654061,6.95256 -15.609567,7.25216 -19.2731034,6.04309 -6.24280515,-2.06031 -9.0041978,-9.78111 -5.3594048,-14.98478 0.9995619,-1.42708 10.7014952,-6.78719 23.3188792,-12.88319 l 21.607141,-10.43933 -5.928884,-2.40968 C 31.567823,333.83448 24.494486,328.86772 17.244298,321.11725 7.2881154,310.47406 1.6257561,298.0212 0.26017917,283.76519 -0.91476841,271.49926 2.9838814,267.55552 16.284509,267.55552 l 6.346605,0 0,-5.5557 c 0,-13.83588 5.413127,-40.95957 11.989973,-60.07845 C 60.316613,127.2245 122.10862,70.499676 198.9023,51.111876 l 14.1017,-3.560199 0.7017,-7.421809 c 1.53912,-16.279096 9.69171,-28.466654 23.74511,-35.4972831 27.05109,-13.5331061 58.46266,4.5965994 60.6667,35.0147851 l 0.5814,8.024055 10.84746,2.454481 c 66.11585,14.960201 124.67582,61.259744 155.64294,123.056734 14.14164,28.22058 19.81036,48.93591 24.56344,89.76271 l 0.53672,4.61017 6.49587,0 c 6.99205,0 12.13754,1.97851 13.94922,5.36364 1.61913,3.02539 1.36974,12.70708 -0.51961,20.17116 -4.34616,17.17009 -16.62032,33.02498 -31.7017,40.95002 l -7.71298,4.05306 2.89847,5.13783 c 2.47178,4.38147 2.89848,6.41537 2.89848,13.81581 0,13.07751 -2.58157,17.0126 -22.77966,34.72322 -17.60994,15.4412 -19.54399,16.80221 -23.87654,16.80221 -4.30527,0 -9.20821,-5.41035 -9.20821,-10.16115 0,-4.64298 0.92562,-5.68876 17.8983,-20.22183 16.72815,-14.3237 17.88619,-15.69936 17.89292,-21.25524 0.009,-7.57225 -7.34605,-13.07227 -14.08165,-10.52987 -1.57134,0.59312 -14.54288,9.84943 -28.82564,20.56958 -14.28278,10.72015 -28.89749,21.46894 -32.47715,23.8862 -18.46689,12.47025 -37.37884,18.51442 -61.25446,19.57665 -14.48556,0.64446 -14.65477,0.6819 -19.80716,4.38353 -6.17969,4.43966 -13.2901,6.76908 -20.66226,6.76908 -4.67893,0 -57.8687,-14.49823 -68.35322,-18.63142 -6.84841,-2.69976 -8.36721,-10.81997 -3.02329,-16.16389 1.76851,-1.76851 4.33905,-3.1708 5.81243,-3.1708 1.45289,0 15.89916,3.90509 32.10282,8.67797 34.15976,10.06196 37.61254,10.46751 43.02629,5.05376 4.1651,-4.16509 5.37375,-7.8176 4.36547,-13.19221 -1.39639,-7.44347 -3.0578,-8.34817 -44.00323,-23.96151 -21.17966,-8.07624 -41.43729,-15.37757 -45.01695,-16.22518 -7.85307,-1.85947 -18.98075,-2.00898 -26.79407,-0.35999 -5.41325,1.14247 -77.645139,29.57966 -79.106377,31.14364 -0.65802,0.70429 27.210917,59.1805 29.054807,60.96448 1.19346,1.15469 154.28132,32.30848 166.48013,33.87916 17.0352,2.19339 38.30303,-3.0557 53.79066,-13.27601 3.44837,-2.27558 11.59663,-8.82595 18.10723,-14.55635 10.62,-9.34739 12.27062,-10.41894 16.0493,-10.41894 5.79309,0 9.53696,3.76596 9.53696,9.59323 0,5.12999 -0.64077,5.92394 -14.64406,18.14467 -18.96287,16.54897 -33.54701,24.53675 -52.41918,28.71018 -12.72803,2.81469 -31.27526,2.81811 -45.39939,0.009 -24.61445,-4.89694 -128.20145,-26.02858 -132.68991,-27.06893 -7.6454,-1.77206 -7.67164,-1.74258 -4.66049,5.23611 3.10703,7.20089 2.82365,10.94489 -1.08758,14.36937 -1.31314,1.14972 -15.96178,8.65758 -32.55254,16.68414 -32.699166,15.81975 -35.636552,16.68739 -40.392764,11.93117 z M 342.08874,386.93338 c 13.63996,-3.99072 24.25436,-10.08374 47.54525,-27.29257 l 22.59612,-16.69546 -37.43185,-0.28515 c -20.58751,-0.15683 -54.67439,-0.15683 -75.74864,0 l -38.31681,0.28515 18.44068,6.9927 c 17.32196,6.56848 18.80853,7.35882 24.50427,13.02767 6.39758,6.36736 8.96575,11.85844 10.36556,22.16288 l 0.72023,5.30191 9.86599,-0.63777 c 5.42629,-0.35077 13.28293,-1.63748 17.4592,-2.85936 z M 102.65803,342.64909 c -10.775924,-0.16295 -19.798545,-0.0904 -20.050269,0.16142 -0.251724,0.25172 1.024698,3.39425 2.836493,6.9834 l 3.294172,6.52571 16.756094,-6.68713 16.7561,-6.68714 -19.59259,-0.29626 z m 361.77331,-23.93131 c 8.45996,-3.41463 18.16865,-12.52238 22.42206,-21.03421 1.81672,-3.63559 3.30314,-7.2644 3.30314,-8.06402 0,-1.21084 -39.16701,-1.45386 -234.30509,-1.45386 -164.589111,0 -234.305081,0.34274 -234.305081,1.15192 0,2.68735 5.786694,13.05668 9.884101,17.71158 4.927568,5.59801 11.731662,9.9737 19.932243,12.81835 5.099672,1.76899 17.919447,1.87129 206.115857,1.64461 l 200.67797,-0.24172 6.2748,-2.53265 z m 4.65938,-59.02667 C 460.40753,166.9045 394.17227,90.608806 304.07244,69.608287 281.88444,64.436698 248.44227,63.046344 225.91395,66.35886 178.56062,73.321592 136.66807,94.686009 103.36401,128.85705 67.37103,165.787 48.135173,207.83324 42.763963,261.31823 l -0.626377,6.23729 213.844544,0 213.84456,0 -0.73597,-7.86441 z M 278.63144,42.93884 c -1.7e-4,-0.935782 -0.73532,-4.176419 -1.63365,-7.201415 -4.13829,-13.935156 -21.48673,-19.927704 -33.4168,-11.542933 -5.63289,3.958937 -9.38321,10.380882 -9.40614,16.106787 l -0.0174,4.338983 22.23715,0 c 19.47495,0 22.23711,-0.211343 22.23682,-1.701422 l -2e-5,0 z"
     id="path7373"
     inkscape:connector-curvature="0" /><path
     style="fill:#29b200;fill-opacity:1"
     d="m 70.902301,511.72364 c -5.910527,-2.53097 -8.607099,-11.33731 -4.856703,-15.86078 1.267017,-1.52819 47.178782,-25.10397 52.049642,-26.72758 0.71639,-0.2388 -1.61099,-6.50556 -5.78096,-15.56602 -7.27059,-15.79744 -47.050778,-98.18361 -47.741498,-98.87434 -0.217311,-0.2173 -12.049421,5.22641 -26.293577,12.09715 -14.428448,6.95963 -27.26868,12.49226 -28.9923131,12.49226 -1.9731886,0 -4.2423794,-1.14853 -6.2646434,-3.1708 -4.0857625,-4.08576 -4.4222624,-10.4851 -0.7301173,-13.8849 1.3423729,-1.23607 11.6818818,-6.85955 22.9766868,-12.4966 18.724791,-9.34525 20.255535,-10.3184 17.355932,-11.03373 -6.246933,-1.54113 -17.267749,-8.68107 -24.38422,-15.79754 -11.1899887,-11.18999 -18.38907675,-27.88287 -18.38907675,-42.63964 0,-5.58758 0.386848,-6.75086 3.17079525,-9.5348 2.9019495,-2.90196 3.8160497,-3.1708 10.7809925,-3.1708 l 7.610196,0 0.560531,-4.61017 c 0.308291,-2.5356 0.851199,-8.01507 1.206462,-12.17662 1.548424,-18.13825 8.862631,-45.44335 17.570076,-65.59192 12.781515,-29.57573 28.584191,-52.22169 53.083923,-76.07167 29.395011,-28.615442 64.636081,-48.174227 105.481251,-58.542083 6.79006,-1.723543 12.52928,-3.317424 12.75381,-3.541958 0.22453,-0.224534 0.85054,-3.78089 1.39111,-7.903015 1.27116,-9.693155 3.50576,-15.714893 8.20939,-22.122526 13.07976,-17.81820515 38.50965,-22.5769298 57.17506,-10.6992328 11.09484,7.0601878 17.64866,17.8275028 19.59912,32.1995248 0.62056,4.572647 1.19569,8.415138 1.27807,8.538868 0.0823,0.123731 6.71972,1.915966 14.74966,3.982745 83.61601,21.521431 149.14817,87.950717 169.20469,171.521107 2.97996,12.41668 6.47995,35.00385 6.47995,41.81827 l 0,3.19868 7.5761,0 c 6.77226,0 7.93823,0.32354 10.98893,3.04935 3.28272,2.93311 3.40654,3.35509 3.24797,11.06937 -0.42772,20.80779 -14.27486,42.67852 -33.50783,52.92358 l -6.72949,3.58467 2.42472,4.55092 c 3.46969,6.51221 3.50238,22.05597 0.06,28.50971 -2.53292,4.74866 -13.76778,15.77638 -29.63941,29.09295 -8.16543,6.85094 -10.46115,8.2364 -13.64777,8.2364 -5.18955,0 -7.92723,-1.66474 -9.69486,-5.89527 -2.67067,-6.39182 -1.10294,-8.70203 16.38066,-24.13853 17.62765,-15.5637 19.83984,-18.65339 17.79403,-24.85227 -1.50939,-4.57344 -4.76328,-6.94444 -9.53035,-6.94444 -4.25799,0 -2.76394,-0.98533 -37.13474,24.49016 -30.55195,22.64496 -34.69144,25.33585 -46.89757,30.48593 -12.78745,5.39537 -24.14086,7.86609 -41.38948,9.00716 -12.72566,0.84186 -15.6158,1.3649 -18.23264,3.29962 -6.87245,5.08102 -14.05365,7.54381 -21.96657,7.53343 -6.27857,-0.009 -12.99833,-1.57535 -38.81241,-9.05142 -35.12593,-10.1729 -36.57742,-10.9197 -36.57742,-18.81932 0,-5.84787 3.83123,-10.06421 9.14494,-10.06421 1.87242,0 15.34691,3.47099 29.9433,7.71332 17.00474,4.94229 29.28337,7.91108 34.17834,8.26381 l 7.63947,0.55049 3.47918,-3.96257 c 2.93605,-3.34398 3.47918,-4.8201 3.47918,-9.45572 0,-9.5629 -2.5409,-10.90804 -63.1306,-33.42088 -34.71888,-12.90022 -41.85126,-13.33931 -66.49652,-4.09375 -13.25741,4.97346 -62.30611,24.47439 -63.658674,25.30961 -0.982153,0.60648 1.379854,5.92112 15.921804,35.82485 l 12.20692,25.10204 7.4599,1.68905 c 9.73199,2.20349 65.72836,13.74101 114.30734,23.55194 51.97355,10.49649 62.11424,10.87018 82.59736,3.04378 10.5625,-4.03583 18.28005,-9.10823 31.84332,-20.92923 15.26233,-13.30181 19.7868,-14.81845 25.63519,-8.59313 3.23722,3.44587 3.42037,10.04712 0.37405,13.48208 -4.39405,4.9546 -25.01191,22.0704 -32.14391,26.68407 -16.95486,10.96804 -34.34583,15.92474 -55.69584,15.87419 -13.70635,-0.0324 -15.89596,-0.40061 -78.1017,-13.13193 -35.2,-7.20421 -67.57089,-13.86051 -71.93532,-14.79181 -4.36442,-0.93129 -8.86233,-1.69326 -9.99535,-1.69326 -2.01322,0 -2.01161,0.11296 0.0709,4.97129 2.60592,6.07935 2.70086,10.0035 0.32412,13.39676 -1.90495,2.71971 -61.218091,32.35146 -66.441296,33.19285 -1.541523,0.24832 -3.779023,0.0334 -4.972243,-0.47752 z M 338.15797,387.29935 c 15.17297,-3.37581 25.29501,-9.04695 54.72511,-30.66119 l 17.16722,-12.60807 -32.89603,-0.57986 c -18.09283,-0.31891 -50.85579,-0.36512 -72.80661,-0.10272 l -39.91057,0.47718 14.41904,5.59537 c 7.93048,3.07746 15.99776,6.42712 17.92728,7.44368 8.45653,4.4553 15.79491,15.43435 17.15601,25.66734 1.07682,8.09583 0.69521,7.8117 9.42894,7.02041 4.33011,-0.39232 10.98544,-1.4058 14.78961,-2.25218 l 0,4e-5 z m -232.8216,-38.07152 c 7.00654,-2.76658 12.59336,-5.17596 12.41516,-5.35416 -0.55594,-0.55593 -33.440692,-0.59675 -33.99525,-0.0422 -0.288895,0.2889 0.756934,3.05556 2.324066,6.14815 2.175547,4.29323 3.282961,5.46391 4.6831,4.95061 1.008574,-0.36975 7.566391,-2.93584 14.572924,-5.70241 z m 358.24072,-30.78124 c 7.36898,-2.75709 17.84634,-12.10067 22.32532,-19.90947 5.67552,-9.89485 12.64145,-8.91881 -70.32214,-9.85324 -78.13637,-0.88007 -391.627528,-0.0319 -392.721946,1.06251 -1.178267,1.17826 5.112977,12.47883 9.744509,17.50346 5.076544,5.50739 11.680284,9.74008 18.541951,11.88451 3.708124,1.15888 42.499639,1.44227 205.479536,1.50113 l 200.90846,0.0726 6.04431,-2.26147 z M 468.8536,261.8606 C 461.63466,192.24588 427.97105,135.74661 371.91925,99.170979 318.44358,64.276352 251.69269,55.466679 190.26937,75.197124 159.46917,85.090789 132.78333,101.30405 108.48139,124.88826 77.324978,155.1245 58.871732,186.99211 48.795364,227.9623 c -2.647663,10.76532 -5.55408,29.13947 -5.55408,35.11249 l 0,4.48073 213.101436,0 213.10143,0 -0.59055,-5.69492 z M 277.52255,41.114839 c -0.0338,-4.230769 -3.46893,-11.12318 -7.36957,-14.786616 -4.50924,-4.23502 -12.44556,-6.227575 -19.12784,-4.802384 -6.56,1.399112 -13.95519,8.214551 -15.66449,14.436457 -2.38977,8.698865 -3.80846,8.135593 20.4908,8.135593 l 21.69492,0 -0.0239,-2.98305 5e-5,0 z"
     id="path7375"
     inkscape:connector-curvature="0" /><path
     style="fill:#29b200;fill-opacity:1"
     d="m 411.2634,190.26738 c -1.2399,-1.34237 -5.20499,-6.8339 -8.81132,-12.20339 -20.94351,-31.18299 -52.46134,-55.21703 -86.93961,-66.29611 -5.07119,-1.62955 -10.29332,-3.91544 -11.60475,-5.07975 -6.53803,-5.8046 -2.19384,-17.030919 6.59036,-17.030919 4.30116,0 21.90008,6.222305 33.76015,11.936299 30.20371,14.55166 56.9153,37.91718 75.52181,66.06147 8.58077,12.97931 9.57426,17.61494 4.79868,22.39052 -3.57061,3.57062 -10.12138,3.67978 -13.31532,0.22188 z"
     id="path7377"
     inkscape:connector-curvature="0" /><path
     style="fill:#29b200;fill-opacity:1"
     d="m 413.9441,192.50203 c -2.03664,-0.72529 -5.40784,-4.61451 -10.55735,-12.17965 -22.29105,-32.74771 -50.49427,-54.96785 -85.24506,-67.16099 -14.98705,-5.25857 -14.46764,-4.98987 -16.22866,-8.39532 -2.33745,-4.52013 -1.94734,-8.005693 1.33224,-11.903249 2.78,-3.303841 3.20685,-3.443085 8.94915,-2.919308 11.91332,1.086659 38.09725,12.966297 57.55534,26.112827 16.57156,11.19629 38.14512,33.02802 49.40202,49.99322 6.97076,10.50557 8.58258,13.71409 8.58258,17.08474 0,7.02609 -7.00451,11.78426 -13.79026,9.36773 z"
     id="path7379"
     inkscape:connector-curvature="0" /><path
     style="fill:#29b200;fill-opacity:1"
     d="m 259.64764,102.22923 c -10.99694,-4.703797 -7.29635,-19.080493 4.91135,-19.080493 4.58073,0 9.73314,5.11484 9.73314,9.662156 0,3.924709 -4.61474,9.366017 -8.67796,10.232307 -1.49153,0.31799 -4.17646,-0.0483 -5.96653,-0.81397 z"
     id="path7381"
     inkscape:connector-curvature="0" /><path
     style="fill:#29b200;fill-opacity:1"
     d="m 257.89951,102.13218 c -5.97206,-3.245759 -6.67885,-12.550942 -1.27611,-16.800733 6.81614,-5.361577 17.66873,-0.904225 17.66873,7.256862 0,4.856556 -1.50884,7.519011 -5.40202,9.532251 -3.90604,2.01989 -7.28887,2.02347 -10.9906,0.0116 z"
     id="path7383"
     inkscape:connector-curvature="0" /><path
     style="fill:#29b200;fill-opacity:1"
     d="m 398.38705,427.66399 c -4.02645,-4.02644 -4.52723,-6.72917 -2.11218,-11.39938 2.9947,-5.79111 11.09311,-6.95528 15.77997,-2.26842 4.68687,4.68687 3.5227,12.78527 -2.26841,15.77997 -4.67021,2.41506 -7.37294,1.91428 -11.39938,-2.11217 z"
     id="path7385"
     inkscape:connector-curvature="0" /><path
     style="fill:#29b200;fill-opacity:1"
     d="m 397.86971,428.18133 c -4.37621,-4.37621 -4.37621,-9.89237 0,-14.26858 4.3762,-4.37621 9.89237,-4.37621 14.26858,0 4.3762,4.37621 4.3762,9.89237 0,14.26858 -2.34751,2.3475 -4.19992,3.1708 -7.13429,3.1708 -2.93438,0 -4.78679,-0.8233 -7.13429,-3.1708 z"
     id="path7387"
     inkscape:connector-curvature="0" /><path
     style="fill:#29b200;fill-opacity:1"
     d="m 68.106994,459.63896 c -2.164064,-2.16407 -3.170795,-4.25701 -3.170795,-6.59192 0,-4.65983 5.096537,-9.76271 9.750582,-9.76271 4.818911,0 7.548974,1.76962 9.338859,6.05341 1.343293,3.21496 1.343293,4.20364 0,7.4186 -2.870164,6.86927 -10.542632,8.25863 -15.918646,2.88262 z"
     id="path7389"
     inkscape:connector-curvature="0" /><path
     style="fill:#29b200;fill-opacity:1"
     d="m 70.716524,462.28689 c -4.083054,-1.74487 -5.780325,-4.52541 -5.780325,-9.46954 0,-4.72202 2.377818,-7.99078 6.897962,-9.48256 4.498172,-1.48453 8.210822,-0.24329 11.400264,3.81143 3.191295,4.05707 2.951831,8.44153 -0.671107,12.28761 -3.669298,3.8953 -7.339567,4.77921 -11.846794,2.85306 z"
     id="path7391"
     inkscape:connector-curvature="0" /><path
     style="fill:#29b200;fill-opacity:1"
     d="m 203.31456,188.49634 c -0.90701,-2.82592 -1.46941,-5.43501 -1.73539,-8.05085 -0.4471,-4.39715 -0.13543,-9.61572 0.85638,-14.33898 0.3999,-1.9044 1.00598,-3.58227 2.09388,-5.79661 2.68894,-5.47317 6.87765,-10.47588 11.89483,-14.20636 1.94986,-1.4498 3.46056,-2.38299 5.52954,-3.41569 4.28473,-2.13868 7.79609,-2.94463 13.72469,-3.15019 3.64961,-0.12654 7.78358,0.28788 11.15255,1.11802 1.64521,0.40539 2.52803,0.70592 4.49768,1.53109 2.72887,1.14325 3.60728,1.41245 4.60115,1.41009 0.955,-0.002 1.73468,-0.24203 3.9378,-1.21087 2.22217,-0.97722 3.7327,-1.43984 5.77693,-1.76926 0.48474,-0.0781 1.29322,-0.23065 1.79661,-0.33896 2.80589,-0.60373 5.7416,-0.85462 8.6796,-0.74178 1.65725,0.0637 2.98409,0.19761 4.40514,0.44471 0.54068,0.094 1.25763,0.19852 1.59322,0.23222 2.96266,0.29754 4.17798,0.58222 6.16717,1.44461 1.04389,0.45256 2.92847,1.44961 4.34131,2.29681 6.7969,4.07572 12.04273,10.14611 15.45212,17.88098 1.44628,3.28115 2.04636,5.53991 2.34149,8.81356 0.23512,2.60794 0.2565,8.87856 0.0379,11.11865 -0.22123,2.26715 -0.70098,4.10226 -1.67495,6.40678 l -0.22922,0.54237 -11.81685,0.0171 c -6.49926,0.009 -11.80665,-0.006 -11.79419,-0.0339 0.0125,-0.0281 0.27138,-0.46548 0.57535,-0.97202 2.22055,-3.70022 3.59195,-7.13987 4.06587,-10.19766 0.15571,-1.00471 0.15491,-3.03224 -0.002,-4.1256 -0.16634,-1.16175 -0.52053,-2.49324 -0.93668,-3.52115 -2.75353,-6.80143 -10.40413,-10.43225 -17.95881,-8.5229 -1.9572,0.49466 -3.87996,1.36829 -5.58582,2.53798 -4.26484,2.92435 -5.19951,3.42516 -7.17939,3.84682 -0.54631,0.11635 -0.92527,0.14667 -1.87146,0.1497 -1.93494,0.006 -2.93322,-0.25423 -5.22034,-1.36191 -1.45148,-0.70296 -2.28556,-1.1799 -3.59387,-2.05504 -3.10762,-2.0787 -5.86625,-3.34329 -8.20275,-3.76024 -0.89337,-0.15942 -2.4862,-0.20886 -3.37722,-0.10483 -2.00806,0.23446 -4.3273,1.14141 -6.39821,2.50204 -3.75794,2.46906 -6.02901,5.87824 -6.66874,10.01066 -0.41168,2.65936 0.21412,6.89575 1.49848,10.14403 0.59559,1.50631 1.85756,3.91845 2.76986,5.29434 l 0.12362,0.18644 -11.79303,0 -11.79303,0 -0.0816,-0.25424 z"
     id="path7393"
     inkscape:connector-curvature="0" /><path
     style="fill:#29b200;fill-opacity:1"
     d="m 323.31335,115.08348 c -1.59272,-0.62949 -3.47953,-1.31546 -7.59322,-2.76061 -7.10503,-2.49603 -8.94904,-3.1929 -10.48362,-3.96188 -1.36975,-0.68638 -2.01627,-1.24396 -2.6224,-2.26164 -0.28855,-0.48448 -1.06519,-2.02354 -1.28118,-2.53893 -0.58844,-1.40407 -0.86848,-2.59255 -0.90655,-3.847458 -0.0671,-2.211641 0.72491,-4.254681 2.51654,-6.491526 0.94929,-1.185194 2.01541,-2.310989 2.54371,-2.686094 0.85004,-0.603544 1.74966,-0.838627 3.213,-0.839603 0.22568,-1.5e-4 0.58576,-0.0249 0.80016,-0.05501 0.26369,-0.03702 0.64211,-0.05516 1.16949,-0.05605 1.13001,-0.0019 1.68887,0.0804 3.05085,0.449317 0.41017,0.111102 1.13475,0.277735 1.61017,0.370298 11.25923,2.192105 30.67593,10.858061 47.58475,21.237761 l 0.92373,0.56704 0,1.47227 0,1.47227 -20.17797,-0.002 c -20.01506,-0.002 -20.17934,-0.002 -20.34746,-0.0686 l 0,0 z"
     id="path7395"
     inkscape:connector-curvature="0" /><path
     style="fill:#29b200;fill-opacity:1"
     d="m 416.47028,193.10719 c -1.11296,-0.12549 -2.38158,-0.47753 -3.07201,-0.85249 -0.65037,-0.35319 -2.4207,-1.76803 -3.08267,-2.46364 -0.32379,-0.34026 -0.81044,-0.94996 -1.08142,-1.35489 -0.27099,-0.40493 -0.80151,-1.1285 -1.17893,-1.60792 -1.28152,-1.62785 -2.6233,-3.49807 -5.41647,-7.54964 -10.68499,-15.4989 -23.02328,-28.92831 -36.25174,-39.45763 l -1.0647,-0.84746 15.64003,-0.0171 15.64003,-0.0171 0.49887,0.49167 c 1.40517,1.38487 4.9925,5.2337 7.03005,7.54251 6.95297,7.87862 11.09241,13.1499 15.35581,19.55453 5.52141,8.29446 7.49461,11.90598 8.11472,14.85225 0.18234,0.86634 0.16493,2.77767 -0.0337,3.70197 -0.29661,1.38009 -0.74666,2.46644 -1.48411,3.58238 -0.57414,0.86883 -1.8454,2.14944 -2.68244,2.70216 -1.18354,0.78153 -2.54989,1.34683 -3.872,1.60197 -0.82553,0.15931 -2.28734,0.22545 -3.0593,0.13841 z"
     id="path7397"
     inkscape:connector-curvature="0" /></svg>