<?xml version="1.0" encoding="UTF-8" standalone="no"?>
<!-- Generator: Adobe Illustrator 19.0.0, SVG Export Plug-In . SVG Version: 6.00 Build 0)  -->

<svg
   xmlns:dc="http://purl.org/dc/elements/1.1/"
   xmlns:cc="http://creativecommons.org/ns#"
   xmlns:rdf="http://www.w3.org/1999/02/22-rdf-syntax-ns#"
   xmlns:svg="http://www.w3.org/2000/svg"
   xmlns="http://www.w3.org/2000/svg"
   xmlns:sodipodi="http://sodipodi.sourceforge.net/DTD/sodipodi-0.dtd"
   xmlns:inkscape="http://www.inkscape.org/namespaces/inkscape"
   version="1.1"
   id="Capa_1"
   x="0px"
   y="0px"
   viewBox="0 0 311.6 311.6"
   style="enable-background:new 0 0 311.6 311.6;"
   xml:space="preserve"
   inkscape:version="0.91 r13725"
   sodipodi:docname="information-icon6.svg"><metadata
     id="metadata7105"><rdf:RDF><cc:Work
         rdf:about=""><dc:format>image/svg+xml</dc:format><dc:type
           rdf:resource="http://purl.org/dc/dcmitype/StillImage" /></cc:Work></rdf:RDF></metadata><defs
     id="defs7103" /><sodipodi:namedview
     pagecolor="#ffffff"
     bordercolor="#666666"
     borderopacity="1"
     objecttolerance="10"
     gridtolerance="10"
     guidetolerance="10"
     inkscape:pageopacity="0"
     inkscape:pageshadow="2"
     inkscape:window-width="1855"
     inkscape:window-height="926"
     id="namedview7101"
     showgrid="false"
     inkscape:zoom="0.75738124"
     inkscape:cx="206.55832"
     inkscape:cy="195.90063"
     inkscape:window-x="65"
     inkscape:window-y="24"
     inkscape:window-maximized="1"
     inkscape:current-layer="Capa_1" /><g
     id="g7047"><g
       id="g7049"><path
         d="M129.601,285.6c0,14.4,11.6,26,26,26c14.4,0,26-11.6,26-26H129.601z"
         id="path7051" /></g></g><g
     id="g7053"><g
       id="g7055"><path
         d="M155.601,0c-54.8,0-99.6,44.8-99.2,99.6c0,21.2,6.8,41.6,19.2,58.8l-0.4,0.4l5.2,6c0,0.4,21.6,24.4,26,57.6    c-2.8,3.6-4.4,8-4.4,12.4c0,11.2,10.4,20.8,23.2,20.8h60.8c12.8,0,23.6-9.2,23.2-20.8c0-4-0.8-7.2-2.8-10.4c2-13.6,8-41.2,22-57.2    l0.8-0.8c0.4-0.4,1.2-1.2,1.6-1.6c0.4-0.4,0.8-0.8,1.2-1.2l-5.6-4.4l6,4l0.4-0.8c0.4,0,0.4-0.4,0.8-0.8c14-18,21.6-39.2,21.6-62    C255.201,44.8,210.401,0,155.601,0z M222.401,152.8l-0.8,0.8l5.6,4.4l-6-4l-0.4,0.8c-0.4,0.8-1.2,1.6-2,2.4l-0.8,0.8    c-17.2,19.6-23.6,50.4-26,67.2l-0.4,3.2l2.8,2.8c1.2,1.2,1.6,2.4,1.6,3.6c0,4-4.4,7.2-9.6,7.2h-60.8c-5.2,0-9.6-3.6-9.6-7.2    c0-2.4,1.6-4,2.4-4.8l2.8-2.4l-0.4-3.6c-3.2-28.8-17.6-52-25.2-62.4l-4.8-6.8c-13.6-15.2-20.8-35.2-20.8-55.6    c0-47.2,38.4-85.6,85.6-85.6s85.6,38.4,85.6,85.6C241.201,118.8,234.801,137.6,222.401,152.8z"
         id="path7057" /></g></g><g
     id="g7059"><g
       id="g7061"><path
         d="M209.201,267.2c0-11.2-10.4-20.8-23.2-20.8h-60.8c-12.8,0-23.2,9.2-23.2,20.8c0,11.2,10.4,20.8,23.2,20.8h60.8    C198.801,288,209.601,278.8,209.201,267.2z M186.001,274h-60.8c-5.2,0-9.6-3.2-9.6-6.8c0-4,4.4-7.2,9.6-7.2h60.8    c5.2,0,9.6,3.6,9.6,7.2C195.601,270.8,191.201,274,186.001,274z"
         id="path7063" /></g></g><g
     id="g7065"><g
       id="g7067"><path
         d="M227.601,119.2c-0.8-68.4-58.8-90.4-59.2-90.8c-3.6-1.6-7.6,0.4-8.8,4c-1.6,3.6,0.4,7.6,4,8.8c2,0.8,49.2,19.6,50.4,78.4    c0,3.6,2.8,6.8,6.8,6.8C224.801,126,228.001,122.8,227.601,119.2z"
         id="path7069" /></g></g><g
     id="g7071" /><g
     id="g7073" /><g
     id="g7075" /><g
     id="g7077" /><g
     id="g7079" /><g
     id="g7081" /><g
     id="g7083" /><g
     id="g7085" /><g
     id="g7087" /><g
     id="g7089" /><g
     id="g7091" /><g
     id="g7093" /><g
     id="g7095" /><g
     id="g7097" /><g
     id="g7099" /><path
     style="fill:#29b200;fill-opacity:1"
     d="m 147.05143,310.16538 c -6.6418,-2.36638 -13.62563,-9.3592 -15.87147,-15.89192 -1.65516,-4.81455 -2.1974,-5.20363 -9.20135,-6.60216 -9.37372,-1.87173 -13.82215,-5.0887 -17.68813,-12.79151 -3.76435,-7.50031 -2.96131,-13.88654 2.53304,-20.14426 l 3.74932,-4.27024 -3.2799,-3.08132 c -5.82798,-5.4751 -6.74496,-15.06759 -2.21429,-23.16344 3.90682,-6.9811 -10.928072,-42.73455 -24.257019,-58.46165 C 60.270162,141.50978 51.828437,106.61713 59.137414,76.130302 74.645787,11.442578 148.63281,-19.773734 206.36899,14.010944 c 11.08031,6.483711 28.51582,23.744538 34.8877,34.538151 22.2391,37.67187 17.32423,85.632835 -12.10121,118.087815 -6.83008,7.53327 -14.65137,24.23712 -18.97482,40.52428 -3.17305,11.95343 -3.35936,13.91661 -1.96808,20.73719 1.79719,8.81053 0.99903,13.28854 -3.42834,19.23434 l -3.21854,4.32238 3.33936,3.96861 c 8.78218,10.43703 4.04494,25.00139 -10.04663,30.88778 -2.69988,1.1278 -6.62969,2.05055 -8.73291,2.05055 -3.3077,0 -4.12611,0.79094 -6.06108,5.85758 -3.76385,9.8555 -15.30708,18.03251 -25.18867,17.8432 -1.45238,-0.0279 -4.97333,-0.88167 -7.82434,-1.89744 z m 45.16021,-38.38244 c 3.48836,-2.44334 3.74411,-5.42426 0.74932,-8.73346 -2.01228,-2.22355 -4.95486,-2.41456 -37.19561,-2.41456 -30.72475,0 -35.30604,0.26749 -37.42503,2.18515 -3.24815,2.93953 -3.04354,6.46693 0.51991,8.96287 2.47007,1.73009 8.27417,2.05537 36.67571,2.05537 28.40153,0 34.20564,-0.32528 36.6757,-2.05537 z m 0,-31.68814 c 3.41507,-2.392 3.80337,-6.67912 0.89594,-9.89178 -1.84161,-2.03496 -1.77702,-3.53579 0.66859,-15.53663 3.1176,-15.29829 9.38022,-33.8928 14.31203,-42.49418 1.87369,-3.26784 7.18606,-10.69475 11.80526,-16.50424 14.64371,-18.41715 20.66815,-34.74149 20.70884,-56.114409 0.0293,-15.368717 -1.89593,-23.740602 -8.80513,-38.289831 C 221.31078,39.181691 197.74762,20.813746 173.36051,15.711179 144.91379,9.7592114 116.83232,18.100858 96.109567,38.658693 78.596949,56.031942 70.486732,75.167553 70.580385,98.893392 c 0.08367,21.196768 5.048216,35.402168 18.918873,54.133898 16.313282,22.03039 25.635352,41.1279 29.713712,60.87253 2.55322,12.36093 2.52005,13.20072 -0.64653,16.3673 -3.53977,3.53978 -3.32614,5.87085 0.83823,9.14655 3.31,2.60364 5.09065,2.7365 36.67571,2.7365 27.90877,0 33.66425,-0.3274 36.13126,-2.05537 z"
     id="path7107"
     inkscape:connector-curvature="0" /><path
     style="fill:#29b200;fill-opacity:1"
     d="m 143.92186,309.3928 c -6.16512,-3.13273 -11.31965,-9.00658 -13.57101,-15.46484 -1.25588,-3.60263 -2.31631,-4.2856 -8.71721,-5.61443 -17.29905,-3.59127 -25.603002,-21.28507 -15.76053,-33.58204 l 3.13991,-3.92294 -3.20842,-4.20646 c -4.43579,-5.81561 -5.21204,-12.18073 -2.42923,-19.91945 2.15031,-5.97981 2.15798,-6.91426 0.12258,-14.93076 C 100.30748,199.18611 89.707384,178.45821 79.543527,164.91034 63.23807,143.17606 56.51051,123.95297 56.51051,99.096628 c 0,-17.82702 2.293645,-27.944643 9.923578,-43.774424 C 81.928825,23.175353 113.29187,2.3655585 150.1064,-0.19548913 192.38335,-3.1365364 233.69369,23.705174 248.84182,63.958613 c 6.05735,16.096294 7.98108,31.052777 6.00574,46.692667 -2.6703,21.14203 -9.57716,37.09072 -23.49782,54.25906 -8.69606,10.72483 -14.88577,23.18525 -19.74169,39.74169 -3.03464,10.34673 -3.34471,13.17213 -2.59391,23.63524 0.81798,11.39926 0.70819,12.0967 -2.69296,17.10857 -3.08087,4.53992 -3.32158,5.57838 -1.83613,7.92139 6.2783,9.90282 6.66209,18.16503 1.20008,25.8357 -3.31179,4.65098 -11.81946,9.13475 -17.41874,9.18011 -4.13385,0.0335 -5.26748,1.14851 -9.42609,9.27137 -6.52558,12.74619 -22.45216,18.12296 -34.91844,11.78839 z m 47.94683,-38.21462 c 2.58712,-2.14711 2.48434,-5.82119 -0.22576,-8.071 -1.71969,-1.42762 -9.0733,-1.81209 -34.65889,-1.81209 -17.86184,0 -34.10999,0.45693 -36.107,1.01541 -2.64766,0.74043 -3.63094,1.8587 -3.63094,4.12944 0,6.63912 4.29681,7.27823 45.24505,6.72976 19.28178,-0.25827 28.00134,-0.84937 29.37754,-1.99152 z m 1.12598,-33.14567 c 1.73649,-2.47917 1.72717,-3.28414 -0.082,-7.07795 -1.85204,-3.88377 -1.83631,-5.29229 0.16961,-15.19197 5.1786,-25.55739 12.8366,-43.54046 25.02875,-58.77428 8.1153,-10.1399 15.63879,-23.49872 18.7536,-33.29918 3.19463,-10.0516 3.85519,-32.323897 1.28257,-43.244001 -3.8962,-16.53838 -10.29602,-27.729757 -23.15819,-40.496809 -9.29928,-9.230514 -13.62124,-12.423716 -22.60219,-16.699215 -14.21055,-6.765132 -22.46929,-8.60713 -38.10264,-8.49826 -23.14914,0.161209 -40.57706,7.757195 -58.193555,25.363754 -8.373767,8.369044 -12.518632,13.780246 -16.199783,21.149131 -8.411409,16.837861 -10.92063,36.917757 -6.952672,55.63834 2.750771,12.97797 6.603474,20.85437 18.209784,37.22778 12.993576,18.33048 23.844976,40.13593 27.376426,55.01185 3.18298,13.40803 3.36603,18.91467 0.70223,21.12542 -2.58673,2.14681 -2.51139,5.14699 0.20464,8.14816 2.01137,2.22254 4.94546,2.41456 36.89462,2.41456 33.86059,0 34.75739,-0.0684 36.6688,-2.79733 z"
     id="path7109"
     inkscape:connector-curvature="0" /><path
     style="fill:#29b200;fill-opacity:1"
     d="m 214.99765,123.40646 c -0.75174,-1.40463 -1.3668,-4.69752 -1.3668,-7.31752 0,-2.62001 -0.92977,-9.26496 -2.06615,-14.76655 -5.19398,-25.145674 -19.65191,-44.55905 -42.4489,-56.998231 -7.37198,-4.022526 -9.03404,-5.541786 -9.38417,-8.57794 -1.54691,-13.414101 16.22255,-7.566283 37.05807,12.195577 17.65051,16.740976 26.91672,35.358393 30.1511,60.578794 1.43547,11.1932 1.36869,12.43946 -0.79467,14.82995 -3.07155,3.39402 -9.34515,3.42549 -11.14848,0.0559 z"
     id="path7111"
     inkscape:connector-curvature="0" /><path
     style="fill:#29b200;fill-opacity:1"
     d="m 216.5741,124.97009 c -1.96538,-1.72626 -3.02805,-5.31395 -4.20205,-14.18649 -2.96124,-22.379828 -9.72238,-36.884209 -23.74651,-50.942362 -4.76483,-4.776397 -12.87197,-11.131942 -18.01585,-14.123434 -5.14389,-2.991492 -10.07123,-6.305068 -10.94965,-7.363501 -2.29626,-2.766821 -0.41288,-8.721509 3.29246,-10.409773 6.45723,-2.942112 30.43872,13.004844 42.99432,28.589903 12.46691,15.474984 20.01229,34.586726 21.71483,55.001707 0.76594,9.18424 0.58483,10.37129 -1.97253,12.92864 -3.42044,3.42044 -5.65505,3.54432 -9.11502,0.50531 z"
     id="path7113"
     inkscape:connector-curvature="0" /></svg>