<?xml version="1.0" encoding="UTF-8" standalone="no"?>
<!-- Generator: Adobe Illustrator 19.0.0, SVG Export Plug-In . SVG Version: 6.00 Build 0)  -->

<svg
   xmlns:dc="http://purl.org/dc/elements/1.1/"
   xmlns:cc="http://creativecommons.org/ns#"
   xmlns:rdf="http://www.w3.org/1999/02/22-rdf-syntax-ns#"
   xmlns:svg="http://www.w3.org/2000/svg"
   xmlns="http://www.w3.org/2000/svg"
   xmlns:sodipodi="http://sodipodi.sourceforge.net/DTD/sodipodi-0.dtd"
   xmlns:inkscape="http://www.inkscape.org/namespaces/inkscape"
   version="1.1"
   id="Layer_1"
   x="0px"
   y="0px"
   viewBox="0 0 512 512"
   style="enable-background:new 0 0 512 512;"
   xml:space="preserve"
   inkscape:version="0.91 r13725"
   sodipodi:docname="information-icon5.svg"><metadata
     id="metadata6849"><rdf:RDF><cc:Work
         rdf:about=""><dc:format>image/svg+xml</dc:format><dc:type
           rdf:resource="http://purl.org/dc/dcmitype/StillImage" /></cc:Work></rdf:RDF></metadata><defs
     id="defs6847" /><sodipodi:namedview
     pagecolor="#ffffff"
     bordercolor="#666666"
     borderopacity="1"
     objecttolerance="10"
     gridtolerance="10"
     guidetolerance="10"
     inkscape:pageopacity="0"
     inkscape:pageshadow="2"
     inkscape:window-width="1855"
     inkscape:window-height="926"
     id="namedview6845"
     showgrid="false"
     inkscape:zoom="0.65186406"
     inkscape:cx="459.56711"
     inkscape:cy="144.51241"
     inkscape:window-x="65"
     inkscape:window-y="24"
     inkscape:window-maximized="1"
     inkscape:current-layer="Layer_1" /><g
     id="g6799"><g
       id="g6801"><g
         id="g6803"><path
           d="M418.133,0H93.867C70.34,0,51.2,19.14,51.2,42.667V179.2c0,4.71,3.823,8.533,8.533,8.533h358.4     c4.71,0,8.533-3.823,8.533-8.533s-3.823-8.533-8.533-8.533H68.267v-128c0-14.114,11.486-25.6,25.6-25.6h324.267     c14.114,0,25.6,11.486,25.6,25.6V435.2c0,14.114-11.486,25.6-25.6,25.6c-4.71,0-8.533,3.823-8.533,8.533v25.6H102.4v-17.067H384     c4.71,0,8.533-3.823,8.533-8.533S388.71,460.8,384,460.8H93.867c-14.114,0-25.6-11.486-25.6-25.6V213.333     c0-4.71-3.823-8.533-8.533-8.533c-4.71,0-8.533,3.823-8.533,8.533V435.2c0,20.608,14.686,37.837,34.133,41.805v26.462     c0,4.71,3.823,8.533,8.533,8.533h324.267c4.71,0,8.533-3.823,8.533-8.533v-26.462c19.447-3.959,34.133-21.197,34.133-41.805     V42.667C460.8,19.14,441.66,0,418.133,0z"
           id="path6805" /><path
           d="M85.333,93.867V128c0,14.114,11.486,25.6,25.6,25.6s25.6-11.486,25.6-25.6V93.867c0-14.114-11.486-25.6-25.6-25.6     S85.333,79.753,85.333,93.867z M119.467,93.867V128c0,4.702-3.831,8.533-8.533,8.533c-4.702,0-8.533-3.831-8.533-8.533V93.867     c0-4.702,3.831-8.533,8.533-8.533C115.635,85.333,119.467,89.165,119.467,93.867z"
           id="path6807" /><path
           d="M418.133,119.467c4.71,0,8.533-3.823,8.533-8.533V76.8c0-4.71-3.823-8.533-8.533-8.533c-4.71,0-8.533,3.823-8.533,8.533     v34.133C409.6,115.644,413.423,119.467,418.133,119.467z"
           id="path6809" /><path
           d="M418.133,59.733c4.71,0,8.533-3.823,8.533-8.533c0-9.412-7.654-17.067-17.067-17.067c-4.71,0-8.533,3.814-8.533,8.533     c0,4.71,3.823,8.525,8.533,8.525V51.2C409.6,55.91,413.423,59.733,418.133,59.733z"
           id="path6811" /><path
           d="M136.533,315.733V230.4c0-14.114-11.486-25.6-25.6-25.6s-25.6,11.486-25.6,25.6v85.333c0,14.114,11.486,25.6,25.6,25.6     S136.533,329.847,136.533,315.733z M102.4,315.733V230.4c0-4.702,3.831-8.533,8.533-8.533c4.702,0,8.533,3.831,8.533,8.533     v85.333c0,4.702-3.831,8.533-8.533,8.533C106.231,324.267,102.4,320.435,102.4,315.733z"
           id="path6813" /></g></g></g><g
     id="g6815" /><g
     id="g6817" /><g
     id="g6819" /><g
     id="g6821" /><g
     id="g6823" /><g
     id="g6825" /><g
     id="g6827" /><g
     id="g6829" /><g
     id="g6831" /><g
     id="g6833" /><g
     id="g6835" /><g
     id="g6837" /><g
     id="g6839" /><g
     id="g6841" /><g
     id="g6843" /><path
     style="fill:#29b200;fill-opacity:1"
     d="m 88.209686,509.46878 -2.870783,-2.62945 -0.249095,-14.91324 -0.249095,-14.91323 -3.202545,-0.94601 C 67.693446,471.94768 56.114223,459.6568 52.373149,445.00321 c -1.0193,-3.99254 -1.166766,-19.0998 -1.164262,-119.27333 0.0028,-111.73253 0.04097,-114.76424 1.474698,-117.11553 2.907129,-4.76763 10.283006,-5.03143 13.851062,-0.49538 1.5342,1.95042 1.546056,2.83405 1.546056,115.2215 0,125.33227 -0.270901,118.41296 4.945077,126.30632 1.420027,2.14893 4.238038,5.00415 6.262247,6.34493 7.59616,5.03149 -3.427035,4.70503 158.867373,4.70503 162.17205,0 150.67136,-0.34357 153.21592,4.57708 2.61543,5.05768 0.0393,10.70537 -5.59729,12.27088 -1.8806,0.52232 -49.75591,0.78662 -143.002,0.78947 l -140.17493,0.004 0,8.43734 0,8.43734 153.40622,0 153.40622,0 0,-13.44768 c 0,-18.48155 0.93752,-20.30738 10.93247,-21.29108 11.70712,-1.15221 20.56591,-9.38511 22.80547,-21.19425 0.5141,-2.71085 0.77439,-70.94591 0.76647,-200.93533 -0.01,-161.007576 -0.19754,-197.618921 -1.03156,-201.162311 -1.40247,-5.958483 -4.46029,-10.856801 -9.03469,-14.47266 -7.35718,-5.81551 7.28445,-5.393405 -179.40652,-5.172138 l -167.568215,0.198602 -3.509604,1.729476 c -5.703031,2.81036 -9.627891,6.706683 -12.374076,12.284106 l -2.525066,5.128334 -0.21587,66.940391 -0.21587,66.94039 176.095831,0 c 150.30963,0 176.40312,0.1589 178.19421,1.08512 5.58015,2.8856 5.58015,11.81886 0,14.70446 -1.79167,0.92651 -28.68521,1.08511 -183.99953,1.08511 l -181.901159,0 -2.607906,-2.60791 -2.607905,-2.6079 0.01134,-72.36939 C 51.229917,29.874785 51.075419,32.55955 56.242403,22.726761 61.213586,13.266584 71.112916,5.0531312 81.471897,1.7939058 l 5.401068,-1.69932749 169.130355,0 169.13035,0 5.40108,1.69932749 c 10.48108,3.2976459 20.20662,11.3743352 25.24746,20.9670602 5.3832,10.244253 4.99452,-6.545712 5.00707,216.294404 0.0125,221.89446 0.38544,204.92272 -4.7356,215.50513 -4.49794,9.29479 -15.39682,18.41525 -25.68521,21.49401 l -3.20255,0.95835 -0.24909,14.8397 -0.24909,14.83969 -2.50757,2.50603 -2.50757,2.50603 -165.28606,0.19697 -165.28607,0.19696 -2.870784,-2.62946 z"
     id="path6851"
     inkscape:connector-curvature="0" /><path
     style="fill:#29b200;fill-opacity:1"
     d="m 87.830832,509.74414 -2.843299,-2.34369 -0.20783,-15.00028 -0.207831,-15.00027 -4.688218,-1.69697 C 73.020467,473.2187 68.245551,470.19382 63.395387,465.25772 58.258196,460.0295 54.993592,454.51547 52.813569,447.38466 51.211761,442.14519 51.20602,441.71174 51.20602,326.01409 l 0,-116.11231 2.109335,-2.36055 c 3.796947,-4.24916 9.960478,-3.77123 13.540861,1.04999 l 1.608003,2.16528 0.383516,115.57399 0.383515,115.57399 1.631345,3.45164 c 2.451163,5.18623 6.727143,9.63236 11.517972,11.9763 l 4.288952,2.09839 23.879691,0.58113 c 13.13382,0.31963 80.55663,0.60447 149.82845,0.63297 95.92125,0.0395 126.42825,0.27031 127.95995,0.9682 3.92008,1.7861 5.58747,9.02996 2.94645,12.80055 -2.89177,4.12857 4.76771,3.9248 -147.5286,3.9248 l -141.15836,0 0,8.05383 0,8.05382 153.35973,0 153.35973,0 0.23824,-14.55799 0.23825,-14.55801 2.03507,-2.03322 c 1.59438,-1.59293 3.4207,-2.27252 8.43374,-3.13826 10.63398,-1.83644 16.39955,-5.98603 20.5184,-14.76751 l 1.99513,-4.25367 0,-202.4962 0,-202.496211 -1.65747,-3.586384 c -2.23117,-4.827736 -7.27669,-10.150377 -11.61075,-12.24846 -3.4351,-1.662903 -4.55463,-1.737184 -33.11158,-2.196957 -16.25595,-0.261724 -92.54871,-0.34038 -169.53945,-0.174791 l -139.983175,0.30107 -3.943696,1.873424 c -4.426015,2.102545 -9.251349,6.932423 -11.917708,11.928932 l -1.780311,3.336135 -0.20802,67.306982 -0.208021,67.30697 174.707591,0.0433 c 133.2679,0.0331 175.33807,0.26045 177.36564,0.95879 3.08116,1.06123 6.16281,5.16271 6.16281,8.2023 0,3.03959 -3.08165,7.14106 -6.16281,8.20229 -2.0285,0.69867 -44.89592,0.92375 -180.99277,0.95034 -98.0841,0.0192 -179.651312,-0.1827 -181.260467,-0.44859 -1.748372,-0.2889 -3.831866,-1.38957 -5.177459,-2.73517 l -2.251724,-2.25173 0,-73.2735 c 0,-64.368094 0.147682,-73.846298 1.215125,-77.98641 3.655333,-14.177329 14.441854,-25.1073917 30.091077,-30.4915136 4.087163,-1.40619058 9.44716,-1.45099364 173.589098,-1.45099364 l 169.3717,0 6.11624,2.23215004 c 14.27361,5.2092258 24.46864,16.0284542 27.99624,29.7103572 1.09385,4.242553 1.21512,24.938291 1.21512,207.37119 0,225.03697 0.42705,206.96969 -5.12835,216.96321 -4.97841,8.95558 -13.47442,16.06824 -23.54929,19.71493 l -4.68821,1.69694 -0.20819,14.62219 -0.2082,14.6222 -2.56698,2.7218 -2.56699,2.7218 -165.60514,0 -165.605138,0 -2.8433,-2.34369 z"
     id="path6853"
     inkscape:connector-curvature="0" /><path
     style="fill:#29b200;fill-opacity:1"
     d="m 101.59678,339.56517 c -8.401245,-3.36665 -14.325993,-10.81769 -15.864918,-19.95192 -0.572306,-3.39689 -0.774326,-19.64584 -0.620704,-49.92484 l 0.227745,-44.88891 2.500279,-5.07732 c 4.649882,-9.44253 13.005418,-14.76298 23.231888,-14.79308 5.01163,-0.0147 6.47566,0.32082 10.898,2.49794 5.55692,2.73566 9.45745,6.66786 12.26441,12.36398 l 1.72947,3.5096 0,49.85702 0,49.85703 -2.1356,4.05326 c -2.6291,4.98988 -7.14824,9.47292 -11.90658,11.81148 -4.99479,2.45476 -15.06194,2.79444 -20.32399,0.68576 z m 13.29793,-16.56349 c 4.67275,-2.41637 4.57708,-1.37449 4.57708,-49.84404 0,-47.61051 0.0513,-46.97179 -4.00145,-49.81045 -0.94001,-0.65841 -3.04748,-1.19711 -4.68327,-1.19711 -2.35967,0 -3.51297,0.53882 -5.58206,2.6079 l -2.60791,2.60791 0,45.61161 c 0,45.43231 0.006,45.61981 1.64,47.69654 2.76465,3.51468 6.70004,4.37418 10.65761,2.32764 z"
     id="path6855"
     inkscape:connector-curvature="0" /><path
     style="fill:#29b200;fill-opacity:1"
     d="m 104.19358,340.63402 c -2.28595,-0.63962 -5.264276,-1.84774 -6.618514,-2.68471 -3.638786,-2.24889 -8.625491,-7.96082 -10.547564,-12.08152 -1.676231,-3.59364 -1.690202,-3.97518 -1.907416,-52.09204 l -0.218817,-48.47188 2.207931,-4.83678 c 2.762217,-6.05102 7.448359,-10.90711 13.06762,-13.54154 5.82576,-2.73123 15.47377,-2.89418 20.99565,-0.35461 5.0513,2.32315 10.66181,7.82905 13.31337,13.06515 l 2.24415,4.43157 0,49.08998 0,49.08999 -2.60722,4.80802 c -6.10875,11.26526 -18.34919,16.81854 -29.92919,13.57837 z m 12.52725,-19.5132 c 1.32255,-1.32255 1.61297,-3.11842 2.20278,-13.62134 0.91799,-16.34696 0.19469,-77.30417 -0.95455,-80.44549 -1.04127,-2.8462 -3.72192,-4.44369 -7.45667,-4.44369 -2.18704,0 -3.26999,0.5846 -5.41124,2.92111 l -2.67701,2.92112 0.28658,45.13007 0.28657,45.13006 2.20666,2.30326 c 1.21366,1.26679 2.93573,2.42107 3.82682,2.56507 2.42561,0.39197 5.97269,-0.7428 7.69006,-2.46017 z"
     id="path6857"
     inkscape:connector-curvature="0" /><path
     style="fill:#29b200;fill-opacity:1"
     d="m 104.844,152.88097 c -7.941698,-2.24432 -13.899469,-7.37166 -17.509963,-15.06931 l -1.995134,-4.25367 0,-22.64355 0,-22.643544 2.500279,-5.078789 c 4.649104,-9.443671 13.004318,-14.76444 23.231888,-14.794539 5.01163,-0.01475 6.47566,0.320822 10.898,2.497935 5.55692,2.735664 9.45745,6.667861 12.26441,12.363984 1.68373,3.41678 1.72947,4.148641 1.72947,27.671083 0,23.52244 -0.0457,24.2543 -1.72947,27.67108 -5.51485,11.19123 -18.31318,17.40948 -29.38948,14.27932 z m 10.62634,-17.83548 c 3.71329,-2.60089 4.00145,-4.33745 4.00145,-24.11492 0,-19.777466 -0.28816,-21.514026 -4.00145,-24.114917 -0.94001,-0.65841 -3.04748,-1.197109 -4.68327,-1.197109 -2.35967,0 -3.51297,0.538819 -5.58206,2.607906 l -2.60791,2.607906 0,20.096214 0,20.09621 2.60791,2.60791 c 2.06909,2.06909 3.22239,2.60791 5.58206,2.60791 1.63579,0 3.74326,-0.5387 4.68327,-1.19711 z"
     id="path6859"
     inkscape:connector-curvature="0" /><path
     style="fill:#29b200;fill-opacity:1"
     d="m 103.74765,152.8573 c -7.865866,-2.6054 -13.18569,-7.3682 -16.611391,-14.87204 l -2.180872,-4.7771 0,-22.27759 0,-22.277585 2.180872,-4.777102 c 2.73684,-5.994927 7.438158,-10.855339 13.040561,-13.481863 5.82576,-2.731234 15.47377,-2.894187 20.99565,-0.354612 4.69812,2.160716 10.57987,7.700625 12.71519,11.976196 2.67427,5.354708 3.22584,10.298709 3.22584,28.914966 0,18.61626 -0.55157,23.56026 -3.22584,28.91497 -2.15657,4.31811 -8.06349,9.85393 -12.71519,11.91633 -4.46043,1.97761 -13.11824,2.5219 -17.42482,1.09543 z m 12.63528,-19.36963 c 1.5647,-1.51836 1.99165,-2.88213 2.43828,-7.78845 0.69421,-7.62617 0.69421,-21.91113 0,-29.537298 -0.67219,-7.384214 -2.63274,-9.918295 -7.77789,-10.053206 -2.78232,-0.07295 -3.5676,0.300051 -5.83079,2.76962 l -2.61543,2.853929 0,19.128195 0,19.12819 2.04678,2.43245 c 1.12572,1.33785 2.76525,2.72697 3.64339,3.08693 2.35655,0.96598 5.93967,0.0718 8.09566,-2.02036 z"
     id="path6861"
     inkscape:connector-curvature="0" /><path
     style="fill:#29b200;fill-opacity:1"
     d="m 413.06844,117.85985 c -3.50389,-2.75617 -3.75173,-4.53729 -3.50545,-25.192457 l 0.23006,-19.294586 2.33912,-2.33775 c 3.09093,-3.089112 6.79975,-3.652126 10.17129,-1.544044 4.50739,2.818273 4.87423,4.858966 4.60466,25.615395 -0.20996,16.166072 -0.41164,18.760792 -1.59344,20.499882 -2.62694,3.86572 -8.76156,4.99461 -12.24624,2.25356 z"
     id="path6863"
     inkscape:connector-curvature="0" /><path
     style="fill:#29b200;fill-opacity:1"
     d="m 413.00587,57.982202 c -1.08887,-0.856507 -2.41284,-2.754909 -2.94214,-4.218671 -0.6326,-1.749425 -1.45545,-2.661386 -2.40135,-2.661386 -0.79143,0 -2.43024,-0.991264 -3.64178,-2.202809 -3.94049,-3.940485 -3.94049,-8.52858 0,-12.469065 4.99528,-4.99528 16.38034,-1.326303 20.5362,6.618048 4.45008,8.506761 1.28698,16.491168 -6.53313,16.491168 -1.8917,0 -3.78505,-0.587606 -5.0178,-1.557285 z"
     id="path6865"
     inkscape:connector-curvature="0" /><path
     style="fill:#29b200;fill-opacity:1"
     d="m 415.9293,59.654788 c -2.7197,-0.884337 -3.95447,-1.967382 -6.03425,-5.29276 -1.12135,-1.792936 -2.51648,-3.259883 -3.10029,-3.259883 -2.0775,0 -5.82257,-5.244594 -5.82257,-8.153927 0,-7.860004 8.00995,-11.292385 16.62264,-7.12305 7.82756,3.789253 12.02052,15.633837 7.37987,20.847191 -1.31924,1.482049 -5.66111,3.717053 -6.91143,3.557702 -0.32995,-0.04205 -1.29024,-0.300925 -2.13397,-0.575273 z"
     id="path6867"
     inkscape:connector-curvature="0" /><path
     style="fill:#29b200;fill-opacity:1"
     d="m 416.159,119.53228 c -1.18068,-0.1476 -3.0772,-1.40449 -4.41043,-2.92295 l -2.33903,-2.66401 0,-20.12897 c 0,-22.019232 0.0599,-22.340069 4.61065,-24.693355 4.93922,-2.554166 10.78303,-0.286969 12.27336,4.761643 0.56526,1.914853 0.77671,9.412688 0.61706,21.881041 l -0.24287,18.967991 -1.93999,1.93858 c -2.15985,2.15829 -5.43569,3.25168 -8.56875,2.86003 z"
     id="path6869"
     inkscape:connector-curvature="0" /><path
     style="fill:#29b200;fill-opacity:1"
     d="m 105.71573,341.10032 c -2.27809,-0.50295 -5.35871,-1.63982 -7.593218,-2.80218 -3.713661,-1.93181 -9.703089,-8.77464 -11.436418,-13.06593 -1.479699,-3.66336 -1.477192,-3.58367 -1.689101,-53.6843 l -0.195569,-46.23729 1.804526,-3.81676 c 2.695978,-5.70228 4.770723,-8.49378 8.542631,-11.49381 5.093359,-4.05106 11.825289,-5.89668 18.870969,-5.17366 4.86651,0.4994 7.74325,1.57114 11.3572,4.23117 4.15997,3.06193 6.94523,6.38845 9.64319,11.51715 l 1.74664,3.32028 -5.4e-4,49.25019 -5.4e-4,49.25018 -1.78843,3.25424 c -2.1934,3.99115 -3.83394,6.2368 -6.25413,8.56098 -3.46964,3.33199 -7.32077,5.47348 -11.95913,6.6501 -2.0966,0.53185 -3.21194,0.64827 -5.99835,0.6261 -1.88232,-0.015 -4.15481,-0.18889 -5.04973,-0.38646 z m 8.03826,-18.28542 c 3.28458,-1.22977 4.0609,-2.57343 4.55112,-7.87716 0.75579,-8.17685 0.89986,-16.45006 0.74852,-42.98305 -0.14913,-26.14532 -0.45061,-39.40908 -0.98587,-43.37371 -0.32202,-2.38523 -1.25594,-3.7937 -3.21668,-4.85121 -1.70226,-0.91809 -4.77035,-1.26982 -6.39615,-0.73326 -1.18098,0.38976 -5.5107,4.64945 -5.77222,5.67886 -0.0912,0.35909 -0.0337,20.57103 0.12772,44.91544 0.24582,37.06228 0.356,44.41194 0.6773,45.18093 0.46867,1.12168 3.18823,3.65892 4.66868,4.35569 1.31971,0.62113 3.41657,0.50405 5.59758,-0.31253 z"
     id="path6871"
     inkscape:connector-curvature="0" /><path
     style="fill:#29b200;fill-opacity:1"
     d="m 87.435336,509.74169 -2.859372,-2.35694 0,-14.8342 0,-14.83421 -5.257429,-2.00898 c -6.789488,-2.5944 -11.023507,-5.34675 -16.104701,-10.46894 -4.70591,-4.74387 -7.220768,-8.74336 -10.025901,-15.94463 l -1.977821,-5.07742 -0.208426,-116.79976 c -0.147946,-82.90718 0.03319,-117.25123 0.624227,-118.35559 1.177761,-2.20067 5.307712,-4.53612 8.021541,-4.53612 2.80298,0 6.842402,2.34994 8.160087,4.74716 0.766145,1.39382 1.059887,26.2208 1.391258,117.58856 l 0.420059,115.82169 1.757645,3.29171 c 2.399629,4.49401 6.973293,8.89865 11.830961,11.39375 l 4.053109,2.08185 83.989907,0.56727 c 46.19444,0.31201 113.39266,0.59503 149.32937,0.62897 40.43171,0.0382 66.08936,0.34679 67.30662,0.80959 2.41782,0.91926 5.02926,5.02819 5.03312,7.91928 0.005,3.32381 -2.12827,6.6807 -5.00914,7.88441 -2.22279,0.92873 -23.50598,1.09012 -143.76738,1.09012 l -141.15836,0 0,8.05382 0,8.05383 152.96294,0 152.96294,0 0.25152,-14.51349 c 0.3083,-17.79016 0.1597,-17.51555 10.80464,-19.96649 11.70597,-2.69523 16.62928,-6.34497 20.88184,-15.48007 l 1.9159,-4.11564 -0.009,-201.72918 c -0.009,-200.592681 -0.0181,-201.748371 -1.55519,-205.136741 -2.20864,-4.868604 -6.38874,-9.675913 -10.51739,-12.095463 -3.38298,-1.982554 -4.24708,-2.116236 -17.01862,-2.632896 -7.40008,-0.299363 -83.81983,-0.569504 -169.82166,-0.600315 l -156.366973,-0.05602 -4.610052,2.457132 c -4.819188,2.568601 -8.982826,6.880029 -11.904093,12.326635 l -1.72582,3.217735 0,66.935323 0,66.93533 173.924298,0.0183 c 103.80296,0.0109 175.16128,0.30446 176.99242,0.72808 3.35828,0.77689 6.18589,3.65767 6.93416,7.06453 0.58702,2.67268 -1.43552,7.0019 -4.12387,8.8271 -1.95699,1.32862 -9.74072,1.38719 -184.36227,1.38719 l -182.319021,0 -2.748908,-2.66433 -2.748907,-2.66432 0.213434,-74.4223 0.213434,-74.422298 1.765291,-4.985702 C 55.349349,22.164319 60.866476,14.186866 66.094536,9.899517 68.45478,7.9639631 73.319783,4.9684637 76.905653,3.2428514 l 6.519764,-3.13747687 172.581993,0 172.582,0 6.51976,3.13848197 c 3.58587,1.7261651 8.30501,4.5605573 10.48697,6.2986497 5.23431,4.1695058 10.68018,11.9251078 13.18517,18.7773248 l 2.0234,5.534911 0.20195,202.112688 c 0.22612,226.31543 0.59916,210.4005 -5.16003,220.13792 -5.34309,9.03391 -14.05592,16.32634 -23.71359,19.8477 l -4.69418,1.71158 0,14.23025 0,14.23025 -2.36555,2.98675 -2.36554,2.98674 -166.20654,0 -166.206521,0 -2.859373,-2.35693 z"
     id="path6873"
     inkscape:connector-curvature="0" /><path
     style="fill:#29b200;fill-opacity:1"
     d="m 87.068815,509.90225 -2.492851,-2.13402 0,-14.90515 0,-14.90515 -4.793944,-1.79677 c -9.38538,-3.51763 -18.569787,-11.10191 -23.358315,-19.28877 -0.863631,-1.47654 -2.476283,-4.98705 -3.583673,-7.80114 l -2.013436,-5.11652 0,-117.33723 0,-117.33724 2.80885,-2.4662 c 2.538466,-2.22881 3.172925,-2.43122 6.591024,-2.10278 2.924048,0.28096 4.321048,0.90229 6.157244,2.73848 l 2.37507,2.37508 0.667971,116.72952 0.667971,116.72953 2.523335,3.94461 c 2.959236,4.62602 6.150215,7.4731 11.301367,10.08339 l 3.726962,1.8886 129.43534,0.7371 c 71.18944,0.4054 138.66304,0.74449 149.94133,0.75353 l 20.50598,0.0164 2.38861,2.13422 c 3.03087,2.70808 3.94786,8.20125 1.89266,11.33787 -2.89088,4.41205 5.69426,4.16964 -147.66724,4.16964 l -141.15836,0 0,8.05571 0,8.05572 152.83094,-0.19365 152.83095,-0.19365 0.38469,-14.19007 c 0.2445,-9.01885 0.72299,-14.78068 1.31299,-15.8107 1.0744,-1.87569 2.89986,-2.66424 11.34185,-4.89945 10.32789,-2.73453 14.42687,-5.9255 18.83892,-14.66571 l 2.25443,-4.46601 -0.0919,-161.67367 C 442.63697,189.44725 442.3781,98.227826 442.11227,75.657936 l -0.48334,-41.036163 -2.06688,-3.515796 c -1.1368,-1.933689 -3.50477,-4.814832 -5.26217,-6.402539 -6.36561,-5.750946 0.30107,-5.313331 -89.70038,-5.888124 C 300.09252,18.53107 224.23126,18.260729 176.01892,18.214556 l -87.658798,-0.08395 -3.837197,1.944455 c -5.21546,2.642873 -9.387661,6.569129 -12.600055,11.857299 l -2.687528,4.424148 0,66.823123 0,66.82313 174.691328,0.0433 c 133.25529,0.0331 175.32181,0.26045 177.34938,0.95879 3.0513,1.05094 6.16421,5.15636 6.15994,8.12396 -0.004,2.52238 -2.44354,6.57592 -4.75003,7.89145 -1.44286,0.82295 -35.15029,1.04434 -183.81645,1.20735 l -182.049598,0.19964 -2.996658,-2.3734 -2.996658,-2.3734 0,-74.95915 0,-74.959154 1.892651,-4.82946 C 57.817922,15.922405 65.508677,8.1186442 79.491195,1.7673242 l 4.503119,-2.04546521 172.204776,0 172.20476,0 7.33622,3.59248191 c 11.69011,5.7245496 19.33275,14.1459371 23.66209,26.0731501 l 1.78607,4.92055 -0.003,201.886039 c -0.003,224.94388 0.31642,211.18294 -5.11239,220.07088 -4.71565,7.72037 -11.52287,13.89159 -19.72405,17.88123 -3.88475,1.88982 -7.47871,3.43604 -7.98659,3.43604 -0.68711,0 -0.92917,3.77854 -0.9459,14.76534 l -0.0225,14.76535 -2.2678,2.49285 -2.2678,2.49285 -166.64831,-0.0311 -166.648314,-0.0311 -2.492851,-2.13403 1.3e-4,-6e-5 z"
     id="path6875"
     inkscape:connector-curvature="0" /></svg>