<?xml version="1.0" encoding="UTF-8" standalone="no"?>
<!-- Generator: Adobe Illustrator 19.0.0, SVG Export Plug-In . SVG Version: 6.00 Build 0)  -->

<svg
   xmlns:dc="http://purl.org/dc/elements/1.1/"
   xmlns:cc="http://creativecommons.org/ns#"
   xmlns:rdf="http://www.w3.org/1999/02/22-rdf-syntax-ns#"
   xmlns:svg="http://www.w3.org/2000/svg"
   xmlns="http://www.w3.org/2000/svg"
   xmlns:sodipodi="http://sodipodi.sourceforge.net/DTD/sodipodi-0.dtd"
   xmlns:inkscape="http://www.inkscape.org/namespaces/inkscape"
   version="1.1"
   id="Capa_1"
   x="0px"
   y="0px"
   viewBox="0 0 512 512"
   style="enable-background:new 0 0 512 512;"
   xml:space="preserve"
   inkscape:version="0.91 r13725"
   sodipodi:docname="information-icon4.svg"><metadata
     id="metadata6061"><rdf:RDF><cc:Work
         rdf:about=""><dc:format>image/svg+xml</dc:format><dc:type
           rdf:resource="http://purl.org/dc/dcmitype/StillImage" /></cc:Work></rdf:RDF></metadata><defs
     id="defs6059" /><sodipodi:namedview
     pagecolor="#ffffff"
     bordercolor="#666666"
     borderopacity="1"
     objecttolerance="10"
     gridtolerance="10"
     guidetolerance="10"
     inkscape:pageopacity="0"
     inkscape:pageshadow="2"
     inkscape:window-width="1855"
     inkscape:window-height="926"
     id="namedview6057"
     showgrid="false"
     inkscape:zoom="0.65186406"
     inkscape:cx="402.85394"
     inkscape:cy="266.21935"
     inkscape:window-x="65"
     inkscape:window-y="24"
     inkscape:window-maximized="1"
     inkscape:current-layer="Capa_1" /><g
     id="g5865"><g
       id="g5867"><path
         d="M104.151,356.055l-14.699-22.049c-3.064-4.6-10.678-4.6-13.741,0l-14.691,22.041c-3.857,5.748-5.236,12.668-3.89,19.456    c1.346,6.788,5.26,12.66,11.025,16.516c4.294,2.849,8.968,4.6,14.443,4.369c14.286,0,25.914-11.619,25.93-25.914    C108.527,365.32,107.008,360.332,104.151,356.055z M82.597,379.871c-0.008,0-0.008,0-0.008,0c-0.008,0-0.008,0-0.008,0    c-1.875,0-3.691-0.545-5.252-1.586c-2.089-1.396-3.51-3.534-3.997-5.995s0.017-4.971,1.42-7.077l7.829-11.743l7.837,11.743    c1.041,1.569,1.594,3.378,1.594,5.244C92.003,375.651,87.783,379.871,82.597,379.871z"
         id="path5869" /></g></g><g
     id="g5871"><g
       id="g5873"><path
         d="M186.731,356.055l-14.699-22.049c-3.064-4.6-10.678-4.6-13.741,0l-14.691,22.041c-3.857,5.748-5.236,12.668-3.89,19.456    c1.346,6.788,5.26,12.66,11.025,16.516c4.286,2.849,9.274,4.369,14.419,4.369c0.008,0,0.017,0,0.025,0    c14.286,0,25.914-11.619,25.93-25.914C191.108,365.32,189.589,360.332,186.731,356.055z M165.178,379.871    c-0.008,0-0.008,0-0.008,0c-0.008,0-0.008,0-0.008,0c-1.875,0-3.691-0.545-5.252-1.586c-2.089-1.396-3.51-3.534-3.997-5.995    c-0.487-2.461,0.017-4.971,1.42-7.077l7.829-11.743l7.837,11.743c1.041,1.569,1.594,3.378,1.594,5.244    C174.584,375.651,170.364,379.871,165.178,379.871z"
         id="path5875" /></g></g><g
     id="g5877"><g
       id="g5879"><path
         d="M269.312,356.055l-14.699-22.049c-3.064-4.6-10.678-4.6-13.741,0l-14.691,22.041c-3.857,5.748-5.236,12.668-3.89,19.456    c1.346,6.788,5.26,12.66,11.024,16.516c4.286,2.849,9.274,4.369,14.419,4.369c0.008,0,0.016,0,0.025,0    c6.912,0,13.419-2.692,18.308-7.573c4.905-4.897,7.606-11.404,7.614-18.341C273.68,365.32,272.169,360.341,269.312,356.055z     M254.406,377.121c-1.776,1.775-4.137,2.75-6.648,2.75c-0.008,0-0.008,0-0.008,0c-0.008,0-0.008,0-0.008,0    c-1.875,0-3.691-0.545-5.252-1.586c-2.089-1.396-3.51-3.534-3.997-5.995c-0.487-2.461,0.017-4.971,1.42-7.077l7.829-11.743    l7.829,11.743c1.049,1.561,1.594,3.378,1.594,5.244C257.164,372.975,256.182,375.337,254.406,377.121z"
         id="path5881" /></g></g><g
     id="g5883"><g
       id="g5885"><path
         d="M280.774,412.903h-41.29v16.516h33.032v33.032h16.516v-41.29C289.032,416.595,285.341,412.903,280.774,412.903z"
         id="path5887" /></g></g><g
     id="g5889"><g
       id="g5891"><path
         d="M49.548,412.903c-4.558,0-8.258,3.691-8.258,8.258v41.29h16.516v-33.032h33.032v-16.516H49.548z"
         id="path5893" /></g></g><g
     id="g5895"><g
       id="g5897"><rect
         x="156.903"
         y="412.903"
         width="16.516"
         height="49.548"
         id="rect5899" /></g></g><g
     id="g5901"><g
       id="g5903"><path
         d="M305.548,454.194H24.774c-4.558,0-8.258,3.691-8.258,8.258v33.032c0,4.567,3.7,8.258,8.258,8.258h280.774    c4.567,0,8.258-3.691,8.258-8.258v-33.032C313.806,457.885,310.115,454.194,305.548,454.194z M297.29,487.226H33.032V470.71    H297.29V487.226z"
         id="path5905" /></g></g><g
     id="g5907"><g
       id="g5909"><path
         d="M322.065,198.194H8.258c-4.558,0-8.258,3.7-8.258,8.258v39.639c0,37.335,30.381,67.716,67.716,67.716h194.89    c37.335,0,67.716-30.381,67.716-67.716v-39.639C330.323,201.893,326.631,198.194,322.065,198.194z M313.806,246.09    c0,28.234-22.966,51.2-51.2,51.2H67.716c-28.234,0-51.2-22.966-51.2-51.2V214.71h297.29V246.09z"
         id="path5911" /></g></g><g
     id="g5913"><g
       id="g5915"><path
         d="M487.226,165.161H380.862c-8.712,0.091-16.822,4.839-21.099,12.238l-17.573,29.052h-20.125v16.516h24.774    c2.89,0,5.574-1.511,7.061-3.989l20.075-33.173c1.453-2.519,4.154-4.096,6.97-4.129h106.281c4.558,0,8.258,3.708,8.258,8.258    c0,4.55-3.7,8.258-8.258,8.258h-94.39c-5.805,0-11.256,3.105-14.179,8.052l-19.968,33.239h-36.625V256h41.29    c2.899,0,5.591-1.519,7.077-4.005l22.404-37.285h94.39c13.659,0,24.774-11.115,24.774-24.774S500.885,165.161,487.226,165.161z"
         id="path5917" /></g></g><g
     id="g5919"><g
       id="g5921"><path
         d="M140.387,206.452v57.806c0,4.558-3.708,8.258-8.258,8.258s-8.258-3.7-8.258-8.258v-16.516    c0-13.659-11.115-24.774-24.774-24.774c-13.659,0-24.774,11.115-24.774,24.774c0,4.55-3.708,8.258-8.754,8.258    c-4.278,0-7.763-3.485-7.763-7.763v-41.786H41.29v41.786c0,13.386,10.892,24.279,24.774,24.279    c13.659,0,24.774-11.115,24.774-24.774c0-4.55,3.708-8.258,8.258-8.258c4.55,0,8.258,3.708,8.258,8.258v16.516    c0,13.659,11.115,24.774,24.774,24.774s24.774-11.115,24.774-24.774v-57.806H140.387z"
         id="path5923" /></g></g><g
     id="g5925"><g
       id="g5927"><path
         d="M74.323,148.645h16.516c0-9.109,7.408-16.516,16.516-16.516v-16.516C89.138,115.613,74.323,130.428,74.323,148.645z"
         id="path5929" /></g></g><g
     id="g5931"><g
       id="g5933"><path
         d="M198.194,107.355c-13.659,0-24.774,11.115-24.774,24.774s11.115,24.774,24.774,24.774s24.774-11.115,24.774-24.774    S211.852,107.355,198.194,107.355z M198.194,140.387c-4.55,0-8.258-3.708-8.258-8.258c0-4.55,3.708-8.258,8.258-8.258    s8.258,3.708,8.258,8.258C206.452,136.679,202.744,140.387,198.194,140.387z"
         id="path5935" /></g></g><g
     id="g5937"><g
       id="g5939"><path
         d="M99.097,49.548c-18.217,0-33.032,14.815-33.032,33.032h16.516c0-9.109,7.408-16.516,16.516-16.516    c9.109,0,16.516,7.407,16.516,16.516h16.516C132.129,64.363,117.314,49.548,99.097,49.548z"
         id="path5941" /></g></g><g
     id="g5943"><g
       id="g5945"><path
         d="M280.774,99.097c-18.217,0-33.032,14.815-33.032,33.032v8.258c0,4.558,3.7,8.258,8.258,8.258h49.548    c4.567,0,8.258-3.7,8.258-8.258v-8.258C313.806,113.912,298.991,99.097,280.774,99.097z M264.258,132.129    c0-9.109,7.407-16.516,16.516-16.516s16.516,7.407,16.516,16.516H264.258z"
         id="path5947" /></g></g><g
     id="g5949"><g
       id="g5951"><path
         d="M272.516,140.387v16.516c0,4.55-3.7,8.258-8.258,8.258v16.516c13.659,0,24.774-11.115,24.774-24.774v-16.516H272.516z"
         id="path5953" /></g></g><g
     id="g5955"><g
       id="g5957"><path
         d="M140.387,148.645h-16.516c0,18.217,14.815,33.032,33.032,33.032v-16.516C147.795,165.161,140.387,157.754,140.387,148.645    z"
         id="path5959" /></g></g><g
     id="g5961"><g
       id="g5963"><path
         d="M165.161,8.258c-13.659,0-24.774,11.115-24.774,24.774c0,13.659,11.115,24.774,24.774,24.774    c13.659,0,24.774-11.115,24.774-24.774C189.935,19.373,178.82,8.258,165.161,8.258z M165.161,41.29    c-4.55,0-8.258-3.708-8.258-8.258c0-4.55,3.708-8.258,8.258-8.258c4.55,0,8.258,3.708,8.258,8.258    C173.419,37.582,169.711,41.29,165.161,41.29z"
         id="path5965" /></g></g><g
     id="g5967"><g
       id="g5969"><path
         d="M49.548,107.355c-18.217,0-33.032,14.815-33.032,33.032s14.815,33.032,33.032,33.032c4.558,0,8.258-3.7,8.258-8.258    v-49.548C57.806,111.054,54.107,107.355,49.548,107.355z M41.29,154.682c-4.93-2.857-8.258-8.192-8.258-14.295    s3.328-11.437,8.258-14.295V154.682z"
         id="path5971" /></g></g><g
     id="g5973"><g
       id="g5975"><path
         d="M214.71,49.548c0,9.109-7.407,16.516-16.516,16.516v16.516c18.217,0,33.032-14.815,33.032-33.032H214.71z"
         id="path5977" /></g></g><g
     id="g5979"><g
       id="g5981"><rect
         x="140.387"
         y="90.839"
         width="16.516"
         height="16.516"
         id="rect5983" /></g></g><g
     id="g5985"><g
       id="g5987"><rect
         x="256"
         y="57.806"
         width="16.516"
         height="16.516"
         id="rect5989" /></g></g><g
     id="g5991"><g
       id="g5993"><rect
         x="222.968"
         y="165.161"
         width="16.516"
         height="16.516"
         id="rect5995" /></g></g><g
     id="g5997"><g
       id="g5999"><rect
         y="487.226"
         width="495.484"
         height="16.516"
         id="rect6001" /></g></g><g
     id="g6003"><g
       id="g6005"><path
         d="M388.129,404.645h-49.548c-4.567,0-8.258,3.691-8.258,8.258v82.581c0,4.567,3.691,8.258,8.258,8.258h49.548    c4.567,0,8.258-3.691,8.258-8.258v-82.581C396.387,408.336,392.696,404.645,388.129,404.645z M379.871,487.226h-33.032v-66.065    h33.032V487.226z"
         id="path6007" /></g></g><g
     id="g6009"><g
       id="g6011"><path
         d="M454.194,339.629v-58.855c0-4.567-3.691-8.258-8.258-8.258h-33.032c-4.567,0-8.258,3.691-8.258,8.258v58.855    c-14.237,3.667-24.774,16.623-24.774,31.984v123.871c0,4.567,3.691,8.258,8.258,8.258h82.581c4.567,0,8.258-3.691,8.258-8.258    V371.613C478.968,356.253,468.43,343.296,454.194,339.629z M462.452,487.226h-66.065V371.613c0-9.109,7.407-16.516,16.516-16.516    c4.567,0,8.258-3.691,8.258-8.258v-57.806h16.516v57.806c0,4.567,3.691,8.258,8.258,8.258c9.109,0,16.516,7.408,16.516,16.516    V487.226z"
         id="path6013" /></g></g><g
     id="g6015"><g
       id="g6017"><path
         d="M470.71,379.871h-49.548c-4.567,0-8.258,3.691-8.258,8.258v74.323c0,4.567,3.691,8.258,8.258,8.258h49.548    c4.567,0,8.258-3.691,8.258-8.258v-74.323C478.968,383.562,475.276,379.871,470.71,379.871z M462.452,454.194h-33.032v-57.806    h33.032V454.194z"
         id="path6019" /></g></g><g
     id="g6021"><g
       id="g6023"><path
         d="M363.355,371.613c-18.217,0-33.032,14.815-33.032,33.032v8.258c0,4.567,3.691,8.258,8.258,8.258h49.548    c4.567,0,8.258-3.691,8.258-8.258v-8.258C396.387,386.428,381.572,371.613,363.355,371.613z M346.839,404.645    c0-9.109,7.407-16.516,16.516-16.516c9.109,0,16.516,7.407,16.516,16.516H346.839z"
         id="path6025" /></g></g><g
     id="g6027" /><g
     id="g6029" /><g
     id="g6031" /><g
     id="g6033" /><g
     id="g6035" /><g
     id="g6037" /><g
     id="g6039" /><g
     id="g6041" /><g
     id="g6043" /><g
     id="g6045" /><g
     id="g6047" /><g
     id="g6049" /><g
     id="g6051" /><g
     id="g6053" /><g
     id="g6055" /><path
     style="fill:#29b200;fill-opacity:1"
     d="M 56.821955,313.00064 C 29.381113,308.32788 7.4299785,287.3133 1.2813413,259.82967 0.30303061,255.45675 0.04373068,249.28954 -0.00269893,229.28998 c -0.0563906,-24.2902 -0.0087687,-25.12689 1.54982493,-27.2296 0.8844018,-1.19315 2.4376397,-2.59708 3.4516399,-3.11983 1.4522968,-0.74871 35.6815901,-0.91153 161.2572941,-0.76703 l 159.41366,0.18343 2.23814,2.50495 c 1.23098,1.37773 2.23815,3.18984 2.23815,4.02692 0,1.38889 0.52734,1.52196 6.03133,1.52196 l 6.03134,0 9.06018,-15.12007 c 10.21837,-17.05291 13.24153,-20.75629 19.42125,-23.79106 l 4.32721,-2.12504 59.0614,0 59.06139,0 4.21867,2.0041 c 5.08273,2.41457 9.41305,6.62101 12.15008,11.80246 1.75566,3.32362 2.02587,4.75593 2.02587,10.73844 0,5.9825 -0.27021,7.41482 -2.02587,10.73843 -2.73703,5.18146 -7.06735,9.38789 -12.15008,11.80246 l -4.21867,2.0041 -50.24054,0.22993 -50.24053,0.22993 -11.48219,19.25134 c -8.20004,13.74839 -12.1466,19.65652 -13.80656,20.6688 -2.0843,1.27106 -4.16633,1.41776 -20.15784,1.42033 -17.16364,0.003 -17.83348,0.059 -17.83348,1.49734 0,0.82195 -0.90346,4.35988 -2.00769,7.86206 -7.20638,22.85568 -23.45547,38.69769 -47.21547,46.0326 l -5.61956,1.7348 -107.00083,0.12056 c -58.85046,0.0663 -108.671522,-0.16394 -110.713465,-0.51165 z M 274.56686,295.76227 c 14.89842,-3.77438 28.72035,-15.327 34.76095,-29.05382 3.63133,-8.25195 4.08072,-11.46166 4.4956,-32.10928 l 0.39686,-19.75105 -78.67634,0 -78.67634,0 -0.22706,28.18839 -0.22707,28.18839 -2.03293,3.83516 c -4.71702,8.89874 -12.46844,13.72074 -22.14266,13.77451 -5.00005,0.0278 -6.44468,-0.30151 -10.86457,-2.47656 -5.86453,-2.88596 -9.24466,-6.37986 -12.00484,-12.4089 -1.76612,-3.85771 -1.97688,-5.4032 -2.2882,-16.77946 -0.32557,-11.89734 -0.437,-12.64221 -2.20542,-14.74386 -2.37099,-2.81778 -6.124663,-3.59674 -9.334182,-1.93703 -3.028845,1.56627 -4.383322,4.27542 -4.934004,9.86869 -1.211319,12.30339 -11.892579,22.018 -24.208898,22.018 -10.101091,0 -17.915383,-4.67423 -22.354346,-13.37157 l -2.684608,-5.26001 -0.249898,-19.44787 -0.249899,-19.44788 -12.288899,0 -12.288899,0 0.32148,20.13456 c 0.307948,19.28708 0.407115,20.39285 2.356008,26.27082 5.831065,17.5868 18.686999,29.59323 36.973697,34.53052 3.127388,0.84438 23.233633,1.04478 108.949018,1.08595 91.3271,0.0439 105.71348,-0.10143 109.68545,-1.1077 z M 136.1025,271.21696 c 1.23214,-0.63716 2.59565,-1.82255 3.03003,-2.63418 0.49734,-0.92928 0.78977,-11.15082 0.78977,-27.60518 l 0,-26.12948 -41.074917,0 -41.074907,0 0.230505,18.32982 c 0.211379,16.80895 0.352613,18.46462 1.70218,19.9544 1.885011,2.08086 5.562916,3.05707 8.499729,2.25605 3.685367,-1.00519 5.465639,-3.698 6.082547,-9.20038 1.56117,-13.92453 11.560257,-23.00249 25.314489,-22.98251 9.880024,0.0144 19.138174,6.51738 22.653074,15.9118 1.30796,3.49582 1.5601,5.98963 1.56251,15.45345 0.002,9.93664 0.18639,11.58594 1.53891,13.8043 2.38422,3.9105 6.54949,5.01205 10.74608,2.84191 z m 232.7519,-48.90683 c 5.51886,-9.18471 11.01615,-17.73976 12.21621,-19.01122 4.90434,-5.19615 1.70366,-4.90224 57.99381,-5.32548 53.53397,-0.40251 53.3836,-0.39215 55.20866,-3.8023 1.01183,-1.89064 1.00897,-6.61775 -0.005,-8.51268 -2.05469,-3.83961 -1.31058,-3.79267 -60.11481,-3.79267 -40.2599,0 -55.36881,0.23879 -56.81548,0.89794 -1.38051,0.629 -5.20256,6.23678 -12.76125,18.72351 -5.93477,9.80407 -11.64903,18.63313 -12.69836,19.62015 -1.76206,1.65742 -2.66533,1.81388 -11.81983,2.04728 l -9.91197,0.25271 0,8.0098 0,8.00979 14.33704,-0.20868 14.33705,-0.20868 10.0343,-16.69947 z"
     id="path6063"
     inkscape:connector-curvature="0" /><path
     style="fill:#29b200;fill-opacity:1"
     d="M 54.83195,312.95987 C 44.276093,310.88945 31.990148,304.90842 23.359696,297.63859 13.943542,289.70692 5.1608927,275.55934 1.7245994,262.78756 0.23677761,257.25773 0.04079602,254.19078 -0.25851584,231.75341 -0.62919175,203.96637 -0.38266688,201.91688 3.6243007,199.47368 6.03304,198.00498 8.8400547,197.97912 166.15408,197.9763 l 160.0787,-0.003 1.95661,2.56526 c 1.07614,1.41088 1.95662,2.95198 1.95662,3.42465 0,1.58515 3.07189,2.52469 7.49829,2.29336 l 4.39021,-0.22944 9.2478,-15.34062 c 10.17584,-16.88012 13.29063,-20.61807 19.7122,-23.65595 l 4.31133,-2.03959 58.80748,0 58.80747,0 4.80893,2.29509 c 5.17766,2.47107 9.25607,6.4171 12.0601,11.66866 1.49713,2.80393 1.75904,4.43649 1.75904,10.96476 0,6.52827 -0.26191,8.16082 -1.75904,10.96475 -2.80403,5.25156 -6.88244,9.1976 -12.0601,11.66867 l -4.80893,2.29509 -49.8954,0 -49.89539,0 -10.86223,18.21699 c -5.97422,10.01934 -12.0292,19.33877 -13.4555,20.70984 l -2.59328,2.49285 -14.39309,0.007 c -18.15658,0.008 -22.44693,0.46538 -22.44693,2.39186 0,3.01819 -4.71612,15.87934 -7.67124,20.91995 -9.09738,15.51754 -21.25167,25.32292 -39.00013,31.46304 l -7.9363,2.74558 -108.26891,-0.084 c -59.5479,-0.0462 -109.799596,-0.38426 -111.67044,-0.75121 z m 220.08782,-17.5839 c 6.6395,-1.57836 15.85796,-6.80481 21.81527,-12.36828 7.0817,-6.61353 10.80656,-12.1742 13.77883,-20.56976 l 2.32017,-6.55365 0.29221,-20.51808 0.29221,-20.51808 -77.85494,0 -77.85492,0 -0.28272,27.80488 -0.28272,27.80487 -2.11755,4.05445 c -4.81605,9.2213 -11.80069,13.94984 -21.49057,14.54895 -4.35857,0.26948 -6.41042,-0.003 -9.87505,-1.31078 -5.66657,-2.13914 -11.48019,-7.39905 -14.10291,-12.75972 -1.88487,-3.85251 -2.1163,-5.34436 -2.68932,-17.33623 -0.61465,-12.86288 -0.66819,-13.16398 -2.722,-15.30768 -3.34802,-3.49459 -9.46667,-2.67292 -11.740994,1.57669 -0.40727,0.761 -1.112624,3.71304 -1.567435,6.56008 -1.529936,9.57701 -6.420894,16.17777 -14.833714,20.01938 -12.066493,5.51002 -26.273646,0.30103 -32.864505,-12.04963 -1.69698,-3.17998 -1.798261,-4.26958 -2.163826,-23.27894 l -0.383515,-19.94281 -11.752273,-0.21203 -11.752271,-0.21203 0.254275,20.92187 c 0.248444,20.44212 0.301228,21.05088 2.301846,26.54774 5.549771,15.24845 16.157513,25.8319 32.216957,32.14315 2.799931,1.10035 7.642512,1.37495 31.685206,1.79672 43.702159,0.76665 187.265359,0.13569 191.374259,-0.84108 z M 137.85894,269.41048 c 1.34074,-1.34074 1.47446,-3.34268 1.87038,-28.00316 l 0.42641,-26.5592 -41.201477,0 -41.201483,0 0.518366,17.83347 c 0.559265,19.24053 0.859447,20.6273 4.796409,22.15823 2.83391,1.10199 6.955897,-0.0369 8.712607,-2.40718 0.781644,-1.05467 1.814685,-4.16114 2.295647,-6.90328 2.090037,-11.91604 7.948897,-18.77549 18.70828,-21.90333 11.052281,-3.21298 23.588781,2.51318 28.771421,13.1416 1.77607,3.64233 2.61153,11.25109 2.95584,26.91987 0.0804,3.65788 2.86865,7.64663 5.65749,8.09331 2.46091,0.39416 6.02383,-0.70404 7.69011,-2.37033 z m 214.53097,-30.81022 6.51976,-0.0338 10.35492,-17.30699 c 5.69521,-9.51885 11.46727,-18.2883 12.82681,-19.48766 1.35953,-1.19937 3.77568,-2.54274 5.36922,-2.98526 1.75732,-0.48802 13.91313,-0.82907 30.89396,-0.86678 15.39815,-0.0342 38.10399,-0.3159 50.45744,-0.62601 21.52014,-0.5402 22.52936,-0.63237 24.09756,-2.20057 2.30276,-2.30276 2.28505,-8.06219 -0.0319,-10.37915 -1.48131,-1.48132 -2.80896,-1.72699 -11.82506,-2.18814 -13.53641,-0.69236 -65.80006,-0.78276 -86.75233,-0.15007 -16.42945,0.49613 -16.80209,0.54363 -18.48252,2.35589 -0.94326,1.01726 -6.47025,9.60332 -12.2822,19.08014 -7.50635,12.23966 -11.19538,17.55543 -12.73592,18.35207 -1.53551,0.79405 -4.75527,1.12149 -11.02766,1.12149 l -8.85894,0 0,8.16951 0,8.16952 7.47855,-0.49524 c 4.1132,-0.27238 10.41245,-0.51042 13.99832,-0.52899 z"
     id="path6065"
     inkscape:connector-curvature="0" /><path
     style="fill:#29b200;fill-opacity:1"
     d="M 57.889812,313.34654 C 43.078783,311.55026 26.272249,302.4919 16.884738,291.24567 7.8136892,280.37856 1.7586462,267.55734 0.394076,256.32759 0.05938756,253.57327 -0.25308191,241.07604 -0.3110964,228.1242 c -0.099869,-22.29593 -0.0593288,-23.34573 0.98056971,-25.39197 0.59661019,-1.17397 1.77350849,-2.63837 2.61532969,-3.25424 1.5128027,-1.10674 2.1208433,-1.1236 52.338981,-1.45184 27.944624,-0.18266 100.272956,-0.36571 160.729626,-0.40678 l 109.92123,-0.0747 2.21436,3.31604 c 1.21791,1.82382 2.21437,3.52083 2.21437,3.77112 0,0.62547 3.64299,1.5841 6.0339,1.58778 5.03671,0.008 4.77441,0.2623 11.94115,-11.58852 12.68916,-20.98264 15.39583,-24.31307 22.79489,-28.0481 l 3.13133,-1.5807 59.45808,0 59.45807,0 4.28989,2.23185 c 10.76154,5.59877 15.68047,15.07701 13.97495,26.92821 -1.13269,7.87078 -6.08585,14.40204 -14.07385,18.55785 l -4.19099,2.1804 -50.08874,0 -50.08874,0 -6.7318,11.25424 c -10.36332,17.32542 -15.73777,25.68088 -18.14115,28.20339 l -2.19623,2.30508 -15.58919,0 c -17.07613,0 -21.06631,0.43211 -21.06631,2.28134 0,2.04497 -3.80014,12.58479 -6.51071,18.05764 -6.52912,13.18288 -17.92807,24.25086 -31.51562,30.60059 -2.50247,1.16945 -7.44487,3.12206 -10.98312,4.33912 l -6.43316,2.21284 -105.29565,-0.0588 c -81.625579,-0.0456 -106.575838,-0.21408 -110.990558,-0.7495 z m 193.355928,-17.59038 23.86441,-0.42752 4.33898,-1.69389 c 5.52369,-2.15639 13.53299,-7.32966 18.03261,-11.6474 6.63724,-6.36896 10.45277,-12.4964 13.57388,-21.79859 l 1.63782,-4.88136 0.28046,-20.20339 0.28047,-20.20339 -77.72481,0 -77.72482,0 -0.20459,27.79661 -0.2046,27.79661 -2.15964,4.03625 c -1.20082,2.24423 -3.60447,5.51441 -5.41389,7.3656 -5.25513,5.37645 -11.18727,7.57979 -19.4612,7.22835 -3.8849,-0.16501 -5.01955,-0.46435 -8.77163,-2.3141 -5.2997,-2.61272 -9.72953,-6.92958 -12.14423,-11.83453 -1.81392,-3.6846 -1.72322,-3.02146 -3.21673,-23.51901 -0.51969,-7.13257 -1.17895,-8.86229 -3.91745,-10.27842 -3.266191,-1.68901 -8.121578,-0.31243 -9.485342,2.68925 -0.419167,0.9226 -1.24678,3.96459 -1.839132,6.75998 -1.428323,6.74039 -3.136667,10.29381 -6.790476,14.12445 -4.701652,4.92918 -11.926584,8.18286 -18.170424,8.18286 -8.939092,0 -18.330604,-5.82021 -22.764179,-14.10766 l -1.882823,-3.51946 -0.372838,-10.84746 c -0.205061,-5.9661 -0.395079,-14.89886 -0.422262,-19.85058 l -0.04942,-9.00313 -11.447627,-0.3854 c -6.296194,-0.21198 -11.56934,-0.26369 -11.718103,-0.11493 -0.148761,0.14876 -0.02845,9.74309 0.267356,21.32073 0.51839,20.28938 0.586244,21.18749 1.877235,24.84687 4.968533,14.08356 15.031988,25.19236 28.247573,31.1818 5.513184,2.49863 7.653783,2.8288 20.976956,3.2355 17.646568,0.53867 153.37471,0.58728 182.50847,0.0654 z M 136.11102,270.42409 c 0.8115,-0.41527 1.76458,-1.29528 2.11796,-1.95557 0.69654,-1.3015 1.46613,-22.6511 1.52528,-42.31366 l 0.0339,-11.25424 -40.950647,0 -40.950644,0 0.30349,10.44068 c 0.459911,15.82199 1.18086,25.12794 2.081644,26.86987 1.398888,2.70515 5.079967,3.57423 8.711729,2.05679 2.562516,-1.07069 3.258413,-2.3867 5.128596,-9.69868 1.912271,-7.47652 3.67897,-11.05181 7.236876,-14.64537 3.135268,-3.16667 9.230861,-6.18925 14.197489,-7.04 7.080837,-1.21289 15.132737,1.45655 20.854017,6.91372 6.04943,5.77018 7.4334,10.15726 7.96186,25.23858 0.29679,8.46985 0.52346,10.40147 1.45415,12.39198 1.96596,4.20465 5.76931,5.31152 10.29434,2.9959 z m 213.72238,-31.99113 9.09613,-0.35632 5.24501,-8.74055 c 2.88476,-4.80731 7.53722,-12.40157 10.3388,-16.87615 8.72625,-13.93723 8.62019,-13.87414 24.25783,-14.43141 6.26441,-0.22324 20.90847,-0.42898 32.54237,-0.4572 26.11125,-0.0633 56.87202,-0.90364 59.31513,-1.62036 1.00297,-0.29424 2.15094,-0.97127 2.55104,-1.50453 1.11392,-1.48463 1.51265,-5.25172 0.78821,-7.44679 -0.94824,-2.8732 -2.81263,-3.58669 -10.80042,-4.13327 -8.87279,-0.60713 -84.96116,-0.60203 -96.59972,0.006 l -8.94915,0.4679 -1.8265,2.08501 c -1.00458,1.14676 -6.49611,9.50692 -12.20339,18.57813 -5.7073,9.07122 -11.03301,16.97881 -11.83494,17.57243 -1.95094,1.44418 -5.31153,1.9312 -13.5928,1.96992 l -6.91526,0.0323 0,7.93436 0,7.93437 4.74577,-0.32902 c 2.61017,-0.18096 8.83902,-0.48937 13.84189,-0.68534 z"
     id="path6067"
     inkscape:connector-curvature="0" /><path
     style="fill:#29b200;fill-opacity:1"
     d="M 58.540703,313.528 C 45.570119,312.29526 29.645266,304.44942 19.618323,294.35175 9.8142896,284.47856 2.0108656,269.28322 0.35514371,256.84122 c -0.37678535,-2.83137 -0.65179048,-14.12265 -0.6965139,-28.59776 -0.0711084,-23.01486 -0.0328939,-23.98873 1.0108435,-25.76072 0.59661019,-1.01289 1.77330369,-2.35526 2.61487449,-2.98305 1.4952261,-1.11541 2.1756622,-1.14913 29.8305082,-1.47863 15.565209,-0.18546 87.979454,-0.36851 160.920554,-0.40678 l 132.62018,-0.0696 2.37644,3.78729 c 2.61331,4.1648 3.49089,4.61173 8.95585,4.56095 2.38278,-0.0221 2.85581,-0.2367 4.33898,-1.96806 0.91556,-1.06876 3.71833,-5.32118 6.22838,-9.44983 7.2567,-11.93613 12.27204,-19.46415 14.78049,-22.1855 1.27958,-1.38817 4.15735,-3.59569 6.39505,-4.90559 l 4.06855,-2.38164 60.21473,0.007 60.21474,0.007 4.06779,2.25077 c 10.35911,5.73185 15.24966,15.21916 13.65562,26.49093 -0.96843,6.84795 -4.40275,12.47842 -10.04936,16.47565 -6.85866,4.85523 -0.74002,4.36121 -57.79865,4.66661 l -50.66697,0.27119 -8.21588,13.60384 c -9.17175,15.18658 -14.61196,23.53201 -16.97726,26.04361 l -1.58342,1.68134 -16.48713,0.3231 c -9.06791,0.1777 -17.20065,0.53197 -18.07274,0.78725 -1.88704,0.5524 -1.88914,0.55622 -4.09579,7.45916 -3.56925,11.16544 -8.57158,19.94559 -15.65609,27.47971 -8.87744,9.44086 -17.83556,14.86177 -33.13712,20.05259 l -4.57632,1.55245 -105.52538,-0.0737 C 111.07115,314.04055 61.314919,313.79166 58.540703,313.528 Z M 278.36439,293.87564 c 12.66111,-5.22343 23.91559,-15.08448 29.16185,-25.55129 0.74759,-1.49153 2.16998,-4.90848 3.16085,-7.59322 l 1.80158,-4.88136 0.19846,-20.47457 0.19845,-20.47458 -77.248,0 -77.24801,0 -0.34832,4.47458 c -0.19158,2.46101 -0.34979,14.9182 -0.35158,27.68262 -0.004,26.09508 0.31137,23.88375 -4.391,30.82328 -5.52542,8.15417 -12.86276,11.72657 -23.06416,11.22949 -4.12522,-0.20101 -5.36538,-0.50399 -8.61126,-2.10376 -6.86075,-3.38139 -13.08598,-10.94236 -14.04234,-17.05536 -0.18667,-1.19322 -0.70677,-7.00299 -1.15578,-12.91058 -0.86787,-11.41876 -1.45575,-13.81352 -3.76193,-15.32458 -2.672224,-1.75091 -8.117653,-0.68865 -9.475446,1.84841 -0.291959,0.54553 -1.155124,3.53283 -1.91815,6.63846 -2.651889,10.79359 -6.499922,16.03446 -14.788768,20.14175 -3.963184,1.96383 -5.095311,2.27348 -9.076192,2.48242 -10.210154,0.5359 -19.042288,-4.64578 -24.505066,-14.37673 l -1.88919,-3.36524 -0.323286,-19.49922 -0.323286,-19.49921 -1.609883,-0.32198 c -0.885436,-0.17709 -5.972595,-0.32198 -11.304799,-0.32198 l -9.694915,0 0.02595,12.61017 c 0.01428,6.9356 0.233043,16.63729 0.486153,21.55932 0.505292,9.82602 1.289581,12.81711 5.251964,20.02974 4.93732,8.98728 13.59025,17.31584 22.710506,21.85916 4.703332,2.343 8.329199,3.24011 14.836079,3.67071 3.474056,0.22991 52.933416,0.38468 109.909686,0.34394 l 103.59322,-0.0741 3.79661,-1.56632 z M 135.05978,270.57785 c 0.9599,-0.40124 2.06366,-1.11346 2.4528,-1.58269 0.92938,-1.12071 1.56304,-12.43465 2.00446,-35.78946 l 0.34597,-18.30508 -41.001705,0 -41.001703,0 0.272543,3.38983 c 0.149895,1.86441 0.409469,7.90508 0.576829,13.42373 0.367941,12.13249 1.118563,19.3621 2.178202,20.97932 1.00915,1.54016 3.982015,2.36692 6.482826,1.80289 3.552575,-0.80123 4.192976,-1.80388 6.756735,-10.57882 0.958709,-3.28136 2.49907,-7.38477 3.423024,-9.11869 4.050088,-7.60055 14.029852,-12.85573 23.112219,-12.17051 10.05264,0.75841 19.13355,7.55793 21.91304,16.40784 1.23101,3.91955 1.41438,5.41866 2.01078,16.43845 0.57497,10.62403 1.10074,12.73135 3.68324,14.76275 1.58006,1.24287 4.30504,1.37948 6.79074,0.34044 z m 211.64359,-32.14267 c 5.6678,-0.20077 10.79911,-0.54778 11.40291,-0.77114 0.62373,-0.23074 3.0588,-3.65259 5.63872,-7.92375 15.04308,-24.90435 17.82311,-28.8045 21.69161,-30.43152 2.65407,-1.11626 13.72023,-1.69744 33.13117,-1.74001 22.36212,-0.049 64.86635,-1.04304 69.50447,-1.62542 2.18146,-0.27391 4.23086,-0.85069 4.70406,-1.32389 0.49996,-0.49996 0.93393,-2.15752 1.07482,-4.10532 0.28823,-3.98485 -0.61307,-5.65277 -3.54941,-6.56838 -3.99069,-1.24439 -82.9813,-1.76851 -105.79815,-0.70201 -6.32453,0.29562 -6.74508,0.3872 -8.02308,1.74714 -0.74178,0.78934 -6.12844,8.87923 -11.97035,17.97754 -5.84192,9.0983 -11.23411,17.20042 -11.98265,18.00472 -1.8502,1.988 -5.16476,2.60545 -13.98641,2.60545 l -7.29534,0 0,7.93428 0,7.93428 2.57628,-0.32347 c 1.41695,-0.17791 7.21356,-0.48773 12.88135,-0.6885 z"
     id="path6069"
     inkscape:connector-curvature="0" /><path
     style="fill:#29b200;fill-opacity:1"
     d="m 160.13261,395.95813 c -9.30955,-1.7753 -17.27283,-9.3561 -20.0944,-19.12928 -1.20531,-4.17488 -0.85184,-11.25177 0.77356,-15.48755 1.37494,-3.5831 17.65549,-28.01887 19.59924,-29.41684 2.11682,-1.52246 5.05259,-1.78267 7.88944,-0.69926 2.35484,0.89932 2.86833,1.54177 11.15758,13.9598 4.77903,7.15941 9.15918,14.11367 9.73367,15.45391 5.07326,11.83542 -0.42809,26.87108 -11.96208,32.69342 -5.64611,2.85014 -11.33712,3.72418 -17.09701,2.6258 z m 8.56276,-16.90892 c 2.3749,-0.9923 5.12987,-4.24741 5.56703,-6.57767 0.61879,-3.29842 -0.22159,-5.48883 -4.71505,-12.28961 l -4.36565,-6.60734 -4.5612,6.91632 c -4.39162,6.65918 -4.5612,7.03246 -4.5612,10.04043 0,3.90565 1.45527,6.30772 4.86507,8.0303 2.75419,1.39137 5.23531,1.54704 7.771,0.48757 z"
     id="path6071"
     inkscape:connector-curvature="0" /><path
     style="fill:#29b200;fill-opacity:1"
     d="m 161.53448,396.25584 c -8.23207,-1.05162 -16.26959,-6.95494 -19.83286,-14.56666 -1.68617,-3.60194 -2.3064,-6.24611 -2.4464,-10.4295 -0.1592,-4.75756 0.53997,-8.10587 2.51843,-12.06067 1.3103,-2.6192 16.07615,-24.93809 17.43287,-26.35013 0.43664,-0.45445 1.41123,-1.13224 2.16575,-1.5062 2.97095,-1.47247 7.07715,-0.94735 9.47131,1.21123 1.09886,0.99074 16.55607,24.18022 17.71312,26.57389 1.70316,3.52345 2.40832,6.40404 2.54735,10.40606 0.15755,4.53529 -0.62163,8.19233 -2.61649,12.28024 -2.60473,5.33769 -6.64855,9.38509 -11.96302,11.97363 -4.66002,2.26976 -9.85147,3.12454 -14.99006,2.46811 z m 7.27035,-17.38448 c 1.76131,-0.82609 3.82175,-2.89241 4.73462,-4.74812 0.62176,-1.26393 0.65088,-1.41844 0.64753,-3.43581 -0.004,-2.34736 -0.19188,-2.94985 -1.82572,-5.85164 -1.38839,-2.46584 -7.14125,-11.14589 -7.28127,-10.98613 -0.56798,0.64805 -7.34716,11.22045 -7.97862,12.44296 -0.95561,1.85007 -1.20483,3.56177 -0.85125,5.84672 0.42654,2.75652 1.77048,4.69719 4.19875,6.06308 1.97834,1.11281 3.11884,1.40735 5.2084,1.34509 1.58955,-0.0474 1.99066,-0.13353 3.14756,-0.67615 z"
     id="path6073"
     inkscape:connector-curvature="0" /><path
     style="fill:#29b200;fill-opacity:1"
     d="m 160.75778,396.20709 c -5.26161,-1.00049 -9.67773,-3.28185 -13.56685,-7.00862 -5.36939,-5.14524 -7.99623,-11.34106 -7.99623,-18.86038 0,-4.29762 0.62972,-7.14916 2.37963,-10.77564 1.47812,-3.06322 15.79547,-24.79209 17.53788,-26.61654 1.72709,-1.80841 3.70217,-2.53059 6.54633,-2.39364 2.42703,0.11687 4.16308,0.86423 5.5613,2.3941 1.45456,1.59153 16.02537,23.56379 17.26367,26.03301 2.04241,4.07266 2.57853,6.44485 2.58036,11.41739 0.002,4.71073 -0.56323,7.32823 -2.43239,11.26943 -1.76109,3.71331 -5.31818,7.90739 -8.61405,10.1566 -2.82227,1.92602 -6.28972,3.40996 -9.75797,4.17605 -1.95753,0.43239 -7.66502,0.55748 -9.50168,0.20824 z m 8.15937,-17.45551 c 1.52235,-0.78756 3.81468,-3.15956 4.59457,-4.75426 0.62667,-1.28139 0.62997,-1.30308 0.54071,-3.54752 -0.10506,-2.64174 -0.30516,-3.18981 -2.46236,-6.74445 -2.23566,-3.68394 -6.20306,-9.51212 -6.47516,-9.51212 -0.1401,0 -1.59069,2.07099 -3.22353,4.60219 -5.7135,8.85697 -5.71882,8.86848 -5.58037,12.08074 0.11598,2.69107 0.57209,3.92887 2.02663,5.49995 1.0556,1.14018 2.85089,2.29178 4.31356,2.76698 0.53397,0.17348 1.53575,0.24251 3.00607,0.20714 1.99215,-0.0479 2.30712,-0.10575 3.25988,-0.59865 z"
     id="path6075"
     inkscape:connector-curvature="0" /><path
     style="fill:#29b200;fill-opacity:1"
     d="m 245.14087,396.27733 c -8.8994,-0.99597 -16.68454,-6.34147 -20.51687,-14.08746 -1.9022,-3.84478 -2.56828,-6.49584 -2.72345,-10.83957 -0.16713,-4.67846 0.63736,-8.50308 2.61658,-12.43955 1.12283,-2.2332 16.65789,-25.47089 17.58767,-26.30803 3.0381,-2.7354 8.28932,-2.71284 11.29616,0.0485 1.15087,1.05692 16.17864,23.54357 17.5124,26.20451 1.13307,2.26056 2.02933,4.99651 2.41424,7.36981 0.37558,2.31579 0.36902,6.31329 -0.0141,8.59578 -1.76464,10.51266 -10.11384,19.06252 -20.59066,21.08552 -2.26331,0.43703 -5.55155,0.5977 -7.58196,0.37047 l 0,0 z m 5.09471,-16.79346 c 5.36272,-1.59111 8.27216,-7.33791 6.24981,-12.34475 -0.45965,-1.13798 -8.47222,-13.42528 -8.75465,-13.42528 -0.16601,0 -7.88217,11.56554 -8.4216,12.62291 -1.76524,3.46016 -1.02541,7.87569 1.79234,10.69715 1.24085,1.24249 2.2285,1.84292 3.94351,2.39739 1.35468,0.43798 3.80788,0.46283 5.19059,0.0526 z"
     id="path6077"
     inkscape:connector-curvature="0" /><path
     style="fill:#29b200;fill-opacity:1"
     d="m 243.89444,396.19415 c -11.25853,-1.87127 -19.67617,-10.06697 -21.7692,-21.1952 -0.45529,-2.4207 -0.46496,-6.5605 -0.0211,-9.01261 0.40083,-2.21418 1.3925,-5.23968 2.32314,-7.08768 0.37929,-0.75318 4.38912,-6.91774 8.91073,-13.69903 8.9646,-13.44469 8.80622,-13.24554 11.27073,-14.17137 1.60895,-0.60443 4.87658,-0.58628 6.3807,0.0354 2.46434,1.01862 2.38814,0.9225 11.13124,14.0418 4.42741,6.64348 8.38384,12.74351 8.79206,13.55564 3.40652,6.77702 3.73518,14.68007 0.89974,21.63487 -3.285,8.05748 -10.55473,14.02802 -19.11948,15.70259 -2.23183,0.43637 -6.74609,0.5367 -8.7986,0.19555 z m 6.87421,-16.99171 c 4.73393,-1.62737 7.43126,-7.07454 5.75099,-11.61395 -0.20084,-0.54261 -0.97634,-1.96641 -1.72331,-3.164 -2.25802,-3.62017 -6.87914,-10.51889 -7.04609,-10.51889 -0.23875,0 -8.06166,11.81464 -8.59661,12.98314 -0.55435,1.21086 -0.78506,3.11602 -0.58737,4.85033 0.32306,2.83413 2.56352,5.87431 5.2584,7.1354 2.0118,0.94143 4.77922,1.07214 6.94399,0.32797 z"
     id="path6079"
     inkscape:connector-curvature="0" /><path
     style="fill:#29b200;fill-opacity:1"
     d="M 79.103648,396.28622 C 70.850253,395.242 62.905913,389.4389 59.213557,381.7571 c -1.745469,-3.63137 -2.536571,-7.17216 -2.538191,-11.36033 -0.0016,-4.13075 0.734263,-7.41059 2.485807,-11.07958 1.1866,-2.48559 16.576037,-25.5498 17.792671,-26.66595 2.9986,-2.75092 8.063242,-2.79559 11.213712,-0.0989 1.086479,0.92998 16.517694,24.04408 17.742064,26.57546 1.90628,3.94123 2.50711,6.69525 2.50033,11.46072 -0.005,3.19006 -0.0562,3.75126 -0.51283,5.56943 -1.31054,5.21832 -3.58425,9.2534 -7.24496,12.85741 -3.63276,3.5765 -8.542016,6.10994 -13.517908,6.97598 -2.113542,0.36785 -6.252578,0.51984 -8.030604,0.29488 z m 5.912774,-16.78727 c 3.497359,-0.91095 6.167895,-3.87775 6.831127,-7.58898 0.291564,-1.63149 0.04052,-3.62542 -0.653085,-5.18722 -0.250132,-0.56323 -2.288272,-3.77663 -4.529199,-7.1409 l -4.074412,-6.11685 -4.270196,6.42696 c -2.348607,3.53482 -4.419002,6.8483 -4.600876,7.36327 -0.450971,1.27692 -0.602826,3.9757 -0.296739,5.27365 0.7689,3.26047 3.493104,6.1042 6.693352,6.98702 1.231004,0.33958 3.562165,0.33152 4.900028,-0.017 l 0,10e-6 z"
     id="path6081"
     inkscape:connector-curvature="0" /><path
     style="fill:#29b200;fill-opacity:1"
     d="m 78.008958,396.1916 c -7.893486,-1.50192 -14.904195,-6.72919 -18.521646,-13.80997 -2.085809,-4.08276 -2.805831,-7.08522 -2.828114,-11.79311 -0.009,-1.90881 0.08878,-3.73454 0.246569,-4.60218 0.377,-2.07305 1.41417,-5.12059 2.42114,-7.11411 0.918964,-1.81928 16.23654,-24.97227 17.18067,-25.9691 0.808858,-0.85402 2.413471,-1.75969 3.713953,-2.09623 3.088169,-0.79915 6.358447,0.0337 8.377109,2.13335 1.194567,1.24251 16.360341,24.07446 17.373031,26.15495 1.79428,3.68623 2.54178,7.0406 2.54178,11.40612 0,3.21443 -0.33058,5.34326 -1.26276,8.13166 -2.60568,7.79429 -8.991883,14.13022 -16.695069,16.56365 -2.731102,0.86276 -4.413782,1.12 -7.833588,1.19755 -2.315834,0.0525 -3.68072,-0.006 -4.713075,-0.20258 z m 7.868892,-17.05421 c 3.528646,-1.29764 5.952677,-4.85102 5.952677,-8.72602 0,-2.7936 -0.159311,-3.11161 -5.806138,-11.58997 -1.887065,-2.83331 -3.497809,-5.07687 -3.579427,-4.9857 -0.406086,0.45363 -7.544791,11.46704 -8.186571,12.63003 l -0.740731,1.34231 0,2.59103 c 0,2.55035 0.01007,2.61153 0.641286,3.8954 1.421588,2.89148 4.316937,5.05402 7.085263,5.29199 1.629257,0.14006 3.533452,-0.0445 4.633641,-0.44907 z"
     id="path6083"
     inkscape:connector-curvature="0" /><path
     style="fill:#29b200;fill-opacity:1"
     d="m -0.08390276,495.23971 0,-8.43734 8.43734196,0 8.4373418,0 0,-13.63589 c 0,-11.36509 0.208296,-13.93328 1.250792,-15.42165 2.098263,-2.99568 5.609467,-3.9248 14.832225,-3.9248 l 8.461978,0 0,-17.30862 c 0,-17.94772 0.230065,-19.4577 3.349655,-21.98466 1.465645,-1.18722 3.972832,-1.32703 24.071706,-1.34231 l 22.435659,-0.017 0,8.05382 0,8.05383 -16.491168,0 -16.491168,0 0,12.2725 0,12.27249 49.4735,0 49.47351,0 0,-20.32632 0,-20.32632 8.05383,0 8.05382,0 0,20.32632 0,20.32632 49.47351,0 49.4735,0 0,-12.27249 0,-12.2725 -16.49117,0 -16.49116,0 0,-8.05383 0,-8.05382 22.43566,0.0244 c 23.73561,0.0258 23.49616,-0.009 26.11425,3.78967 1.13769,1.65068 1.30711,4.16096 1.30711,19.36754 l 0,17.47104 8.46198,0 c 9.22275,0 12.73395,0.92912 14.83222,3.9248 1.0425,1.48837 1.25079,4.05656 1.25079,15.42165 l 0,13.63589 8.44369,0 8.4437,0 -0.0254,-44.06927 c -0.0244,-42.38412 0.0343,-44.23926 1.53499,-48.51472 6.14839,-17.51643 25.07882,-26.72079 42.39022,-20.61101 l 5.17746,1.82729 0,-3.03436 c 0,-13.14508 8.29137,-25.79426 20.35177,-31.04834 l 4.96025,-2.16092 0,-30.85131 0,-30.8513 1.72582,-2.00051 c 2.48902,-2.88518 6.0443,-3.41766 22.81917,-3.41766 16.77488,0 20.33016,0.53248 22.81918,3.41766 l 1.72582,2.00051 0,30.8513 0,30.85131 5.17746,2.23818 c 9.73546,4.20858 17.33304,13.86103 19.29599,24.51487 0.55935,3.03582 0.83858,23.91508 0.83858,62.70479 l 0,58.15349 8.05382,0 8.05383,0 0,8.43734 0,8.43734 -247.75104,0 -247.75104276,0 0,-8.43734 z M 297.52416,478.74854 l 0,-8.05382 -132.31286,0 -132.312866,0 0,8.05382 0,8.05383 132.312866,0 132.31286,0 0,-8.05383 z m 82.07232,-24.54499 0,-32.59882 -16.49116,0 -16.49117,0 0,32.59882 0,32.59882 16.49117,0 16.49116,0 0,-32.59882 z m 82.83936,24.54499 0,-8.05382 -21.51496,0 c -18.02966,0 -21.89134,-0.19464 -23.83839,-1.2015 -4.46527,-2.30907 -4.50367,-2.69004 -4.50367,-44.6823 l 0,-38.26276 1.75238,-2.60629 c 2.76222,-4.10819 4.75832,-4.43239 27.58656,-4.48056 l 20.51808,-0.0433 -0.005,-4.79395 c -0.006,-6.59525 -1.14354,-10.11407 -4.4572,-13.78635 -3.26133,-3.61429 -5.90096,-4.89145 -11.69939,-5.66064 -3.04226,-0.40357 -4.70995,-1.11407 -6.26499,-2.66911 l -2.11881,-2.11913 0,-30.74024 0,-30.74025 -8.43735,0 -8.43734,0 0,30.62224 0,30.62224 -2.25518,2.25519 c -1.67599,1.67599 -3.28504,2.3918 -6.26499,2.78711 -7.42541,0.98501 -11.82008,4.00831 -14.58369,10.03281 -1.32612,2.89086 -1.40841,6.49165 -1.42429,62.32128 l -0.0168,59.25315 32.98233,0 32.98234,0 0,-8.05383 z m 0,-53.69217 0,-28.76367 -16.49117,0 -16.49117,0 0,28.76367 0,28.76366 16.49117,0 16.49117,0 0,-28.76366 z m -83.06595,-23.52164 c -1.66041,-12.3793 -19.34433,-17.57751 -27.87208,-8.19304 -2.84649,3.13246 -4.65005,7.77411 -4.20153,10.81308 0.0467,0.3164 7.37879,0.57527 16.29355,0.57527 l 16.20864,0 -0.42858,-3.19531 z"
     id="path6085"
     inkscape:connector-curvature="0" /><path
     style="fill:#29b200;fill-opacity:1"
     d="m 12.380352,503.87229 -12.46425476,-0.23324 0,-8.41834 0,-8.41834 8.05382636,0 8.0538264,0 0,-12.73185 c 0,-19.17239 0.876648,-20.25049 16.466532,-20.25049 l 8.845494,0 0,-17.85456 c 0,-15.26529 0.18139,-18.11353 1.250792,-19.64032 2.517553,-3.59431 4.832212,-3.9248 27.488237,-3.9248 l 21.117991,0 0,8.82086 0,8.82086 -16.491168,0 -16.491168,0 0,11.88898 0,11.88898 49.08999,0 49.08999,0 0,-20.73496 0,-20.73496 8.6291,0.21688 8.6291,0.21688 0.20428,20.51808 0.20429,20.51808 49.07746,0 49.07746,0 0,-11.88898 0,-11.88898 -16.49117,0 -16.49116,0 0,-8.82086 0,-8.82086 21.11799,0 c 22.65603,0 24.97068,0.33049 27.48824,3.9248 1.0694,1.52679 1.25079,4.37503 1.25079,19.64032 l 0,17.85456 8.89669,0 c 6.31845,0 9.5992,0.33336 11.32082,1.15033 4.36031,2.06909 4.68605,3.2643 4.96487,18.21721 l 0.25388,13.6148 7.60819,0 7.60819,0 0.006,-41.22792 c 0.004,-24.86681 0.32258,-43.18026 0.80403,-46.14756 2.8755,-17.72228 19.60532,-30.06954 37.37595,-27.58494 2.65095,0.37065 6.05845,1.1914 7.57222,1.82389 1.51377,0.6325 3.00993,1.14999 3.3248,1.14999 0.31487,0 0.73651,-2.55582 0.93699,-5.6796 0.73981,-11.52801 8.27487,-22.42561 19.0044,-27.48519 l 5.30581,-2.50215 0.2276,-30.85895 0.22759,-30.85894 2.50761,-2.50691 2.5076,-2.50691 19.9133,0 19.91331,0 2.5076,2.5068 2.50761,2.5068 0.23399,30.85905 0.23399,30.85906 5.29977,2.50215 c 9.09892,4.29584 16.27902,13.33035 18.31035,23.03938 0.57994,2.77194 0.85041,22.83663 0.85041,63.08831 l 0,59.02364 8.05382,0 8.05383,0 0,8.32246 0,8.32246 -20.13457,0.48966 c -19.37046,0.47107 -437.39314,0.41267 -462.903258,-0.0647 z m 284.376778,-25.12375 0,-8.05382 -131.54583,0 -131.545835,0 0,8.05382 0,8.05383 131.545835,0 131.54583,0 0,-8.05383 z m 82.83935,-24.54499 0,-32.59882 -16.10765,0 -16.10765,0 0,32.59882 0,32.59882 16.10765,0 16.10765,0 0,-32.59882 z m 82.83936,24.54499 0,-8.05382 -22.2318,0 -22.2318,0 -2.50495,-2.23776 -2.50495,-2.23776 -0.21174,-39.94841 c -0.18717,-35.31304 -0.07,-40.22249 1.00973,-42.31047 2.18105,-4.21766 4.15862,-4.5423 27.67007,-4.5423 l 21.23054,0 -0.47806,-5.65544 c -0.61384,-7.2618 -1.44383,-9.35851 -5.24612,-13.25278 -2.15264,-2.20472 -4.20329,-3.45725 -6.66697,-4.07219 -1.95695,-0.48847 -4.78683,-1.2071 -6.28863,-1.59696 -1.5018,-0.38988 -3.57278,-1.60499 -4.60219,-2.70024 l -1.87164,-1.99139 -0.22515,-30.23682 -0.22516,-30.23682 -7.59593,0 -7.59594,0 -0.23273,30.23688 -0.23274,30.23688 -1.87164,1.99133 c -1.02941,1.09523 -3.27298,2.35653 -4.9857,2.8029 -1.71274,0.44638 -4.49472,1.16455 -6.18219,1.59594 -4.336,1.10848 -7.61401,3.84411 -9.65278,8.05566 l -1.75599,3.62739 -0.34081,59.29001 -0.34081,59.29 33.08304,0 33.08304,0 0,-8.05383 z m 0,-53.30866 0,-28.38015 -16.49117,0 -16.49117,0 0,28.38015 0,28.38015 16.49117,0 16.49117,0 0,-28.38015 z m -83.17118,-23.01093 c -0.23937,-0.84373 -0.64785,-2.31068 -0.90775,-3.25988 -1.90429,-6.95487 -11.65752,-11.8834 -19.39395,-9.8002 -3.9994,1.07693 -8.34515,4.8591 -10.15128,8.83483 -2.74092,6.03341 -3.4419,5.75931 14.72884,5.75931 15.79306,0 16.14947,-0.0347 15.72414,-1.53406 z"
     id="path6087"
     inkscape:connector-curvature="0" /><path
     style="fill:#29b200;fill-opacity:1"
     d="m 1.6419172,503.90277 c -1.66420443,-0.32054 -1.72581996,-0.63174 -1.72581996,-8.71641 l 0,-8.38399 8.05382636,0 8.0538264,0 0,-12.68065 c 0,-19.34976 0.753488,-20.30169 16.069562,-20.30169 l 9.242464,0 0,-17.60562 c 0,-11.53178 0.301287,-18.26688 0.873308,-19.52233 1.800255,-3.95113 3.977222,-4.29173 27.431005,-4.29173 l 21.552707,0 0,8.82086 0,8.82086 -16.491168,0 -16.491168,0 0,11.88898 0,11.88898 49.08999,0 49.08999,0 0,-20.70984 0,-20.70984 8.82086,0 8.82085,0 0,20.70984 0,20.70984 49.08999,0 49.08999,0 0,-11.88898 0,-11.88898 -16.49117,0 -16.49116,0 0,-8.82086 0,-8.82086 21.11799,0 c 22.65603,0 24.97068,0.33049 27.48824,3.9248 1.0694,1.52679 1.25079,4.37503 1.25079,19.64032 l 0,17.85456 9.24246,0 c 9.94892,0 12.85997,0.79904 14.6997,4.03485 0.63976,1.12525 1.11067,6.34858 1.36504,15.14093 l 0.38834,13.42304 7.47855,0.21954 7.47855,0.21953 0.005,-41.63921 c 0.002,-22.90156 0.33349,-43.64834 0.73565,-46.10392 2.88087,-17.59031 20.15649,-30.12744 37.75239,-27.39734 2.94779,0.45737 6.52073,1.31672 7.93986,1.90967 l 2.58024,1.07809 0.45132,-3.58809 c 1.8701,-14.86863 7.89831,-23.83795 20.144,-29.97234 l 4.79395,-2.40149 0,-30.54237 0,-30.54236 2.81245,-2.81245 2.81244,-2.81244 19.68713,0 19.68714,0 2.81244,2.81244 2.81245,2.81245 0,30.54376 0,30.54376 5.51844,2.77905 c 9.17732,4.62162 16.02067,13.12818 18.21359,22.64021 0.4862,2.10898 0.78246,25.6092 0.79421,63.00036 l 0.0188,59.63667 8.05382,0 8.05383,0 0,8.32166 0,8.32165 -7.47855,0.49523 c -8.16373,0.54061 -483.4864801,0.50332 -486.2977128,-0.0381 l 0,-2e-5 z m 295.1152128,-25.15423 0,-8.05382 -131.54583,0 -131.545835,0 0,8.05382 0,8.05383 131.545835,0 131.54583,0 0,-8.05383 z m 82.83935,-24.54499 0,-32.59882 -16.10765,0 -16.10765,0 0,32.59882 0,32.59882 16.10765,0 16.10765,0 0,-32.59882 z m 82.83936,24.54499 0,-8.05382 -22.48927,0 -22.48926,0 -2.43925,-2.17776 -2.43924,-2.17775 0.0113,-40.20072 c 0.009,-30.59259 0.24031,-40.65902 0.96945,-42.11829 0.52699,-1.05466 2.16143,-2.52107 3.6321,-3.25869 2.35368,-1.18049 5.2298,-1.34125 24.01424,-1.3423 l 21.3403,-0.002 -0.47424,-4.41043 c -0.79884,-7.42895 -1.92908,-10.58259 -4.88702,-13.63594 -3.06168,-3.16043 -5.68309,-4.48821 -11.36214,-5.75509 -2.34505,-0.52314 -4.63185,-1.71607 -6.20615,-3.23751 l -2.49282,-2.40879 0,-30.14727 0,-30.14726 -7.67032,0 -7.67031,0 0,30.21827 0,30.21827 -2.67453,2.34828 c -1.471,1.29155 -4.14602,2.72737 -5.94449,3.19072 -8.90229,2.29354 -11.03273,3.62056 -13.92614,8.67433 l -1.83425,3.20379 -0.53266,59.63666 -0.53266,59.63667 33.04869,0 33.04869,0 0,-8.05383 z m 0,-53.30866 0,-28.38015 -16.49117,0 -16.49117,0 0,28.38015 0,28.38015 16.49117,0 16.49117,0 0,-28.38015 z m -83.98026,-22.38081 c 1.01711,-1.01823 -0.57725,-5.38859 -2.95289,-8.0943 -4.43563,-5.0519 -12.49795,-7.03439 -18.3665,-4.51626 -3.20647,1.37586 -7.06103,5.47216 -8.58313,9.12142 -1.27347,3.05316 -1.2823,3.038 2.27976,3.91311 2.28084,0.56036 27.0188,0.18065 27.62276,-0.42397 z"
     id="path6089"
     inkscape:connector-curvature="0" /><path
     style="fill:#29b200;fill-opacity:1"
     d="m 264.54182,173.08666 c 0,-8.03016 0.0769,-8.43735 1.59307,-8.43735 0.87618,0 2.602,-1.00894 3.83515,-2.24209 2.08355,-2.08355 2.24209,-2.65303 2.24209,-8.05382 l 0,-5.81174 -9.66459,0 -9.66459,0 -2.69999,-2.69999 -2.69999,-2.69999 0.31327,-9.41002 c 0.29774,-8.94318 0.45321,-9.70467 3.13387,-15.34938 12.17982,-25.647237 47.71444,-25.501876 59.93254,0.24517 2.1447,4.51949 2.39242,5.83105 2.64916,14.02596 0.46074,14.707 -0.6614,15.88825 -15.09332,15.88825 l -9.15325,0 -0.33566,7.47855 c -0.40477,9.01841 -2.18437,13.36615 -7.66807,18.73384 -3.83149,3.75044 -10.27526,6.76995 -14.44737,6.76995 l -2.27232,0 0,-8.43734 z m 32.09687,-44.67957 c -0.81322,-3.66975 -3.81355,-7.81449 -7.44918,-10.29051 -7.42796,-5.05877 -19.35947,-1.47026 -23.19584,6.97637 -0.77999,1.71731 -1.42574,3.89901 -1.435,4.84821 l -0.0169,1.72582 16.40964,0 16.40963,0 -0.7224,-3.25989 z"
     id="path6091"
     inkscape:connector-curvature="0" /><path
     style="fill:#29b200;fill-opacity:1"
     d="m 264.22681,181.72033 c -0.24861,-0.24861 -0.45202,-4.19128 -0.45202,-8.76151 0,-7.77613 0.0977,-8.30951 1.52196,-8.30951 0.83708,0 2.60408,-0.96687 3.92666,-2.14859 2.16248,-1.93218 2.4438,-2.69514 2.79292,-7.57451 l 0.38822,-5.42592 -9.49234,-0.36904 c -5.22079,-0.20297 -10.07828,-0.62123 -10.79443,-0.92946 -0.71615,-0.30823 -2.11977,-1.65222 -3.11916,-2.98664 -1.75517,-2.34357 -1.80085,-2.75372 -1.34097,-12.03938 0.42516,-8.58448 0.72924,-10.1541 2.84166,-14.66823 8.09211,-17.29245 28.05148,-24.441514 44.97606,-16.10957 6.03719,2.9721 12.22466,9.1472 15.10914,15.07893 3.59043,7.38347 4.9803,20.65317 2.72785,26.04403 -1.84677,4.41995 -4.14574,5.33034 -14.58611,5.77609 l -9.25592,0.39519 -0.44496,7.28679 c -0.51286,8.39865 -2.43765,13.05778 -7.35084,17.79339 -4.31246,4.1566 -15.70314,8.69253 -17.44772,6.94794 z m 32.51347,-51.39566 c -0.0521,-4.15485 -5.73415,-11.50196 -10.19625,-13.18424 -8.94797,-3.37351 -19.54094,2.53148 -21.58726,12.0337 l -0.53684,2.49285 16.1686,0 c 14.89373,0 16.16727,-0.10584 16.15175,-1.34231 z"
     id="path6093"
     inkscape:connector-curvature="0" /><path
     style="fill:#29b200;fill-opacity:1"
     d="m 191.29035,155.95235 c -5.0761,-1.68194 -7.58465,-3.2785 -11.03833,-7.0253 -4.99065,-5.41422 -6.59663,-9.54625 -6.55936,-16.87656 0.0373,-7.33389 1.6776,-11.58047 6.48957,-16.80084 4.88659,-5.30133 10.45459,-7.67349 18.0114,-7.67349 7.55681,0 13.12481,2.37216 18.0114,7.67349 4.8241,5.23352 6.46329,9.4719 6.4977,16.80084 0.0243,5.18391 -0.30044,6.80783 -2.09268,10.46346 -2.49618,5.09147 -7.67319,10.13218 -12.68143,12.34756 -4.40208,1.94725 -12.45935,2.4755 -16.63827,1.09084 z m 11.01072,-16.94105 c 2.44186,-1.26274 3.94639,-4.1057 3.94639,-7.45712 0,-1.64041 -0.78102,-3.12272 -2.60791,-4.94961 -3.62838,-3.62838 -7.26345,-3.62838 -10.89184,0 -6.76591,6.76592 0.98816,16.83596 9.55336,12.40673 z"
     id="path6095"
     inkscape:connector-curvature="0" /><path
     style="fill:#29b200;fill-opacity:1"
     d="m 188.79117,155.38666 c -2.30152,-0.90601 -5.61046,-3.12802 -7.70664,-5.17515 -12.33462,-12.04598 -9.7153,-31.90791 5.2798,-40.0359 4.59669,-2.4916 5.38755,-2.66909 11.8293,-2.65488 8.17346,0.018 12.27643,1.64387 17.61104,6.97848 5.33649,5.33649 6.93396,9.38001 6.93396,17.55128 0,5.77359 -0.30723,7.52762 -1.87739,10.71843 -2.39712,4.87132 -7.08812,9.55926 -11.94918,11.94136 -5.32537,2.60963 -14.43223,2.91577 -20.12089,0.67638 z M 201.314,138.98138 c 1.83677,-0.76746 3.04718,-1.98359 3.82351,-3.84162 1.4186,-3.39519 0.85465,-5.76362 -2.03057,-8.52784 -4.11392,-3.94139 -9.49065,-2.44128 -11.93274,3.32924 -1.46375,3.45874 0.19892,7.473 3.73084,9.00754 3.17773,1.38067 3.1827,1.38069 6.40896,0.0327 z"
     id="path6097"
     inkscape:connector-curvature="0" /><path
     style="fill:#29b200;fill-opacity:1"
     d="m 146.44583,179.96133 c -12.12877,-4.36129 -21.01041,-15.17129 -22.07053,-26.86244 l -0.41323,-4.55723 8.08385,0 8.08386,0 0.89231,3.71956 c 1.52351,6.35073 6.74788,11.28636 13.06726,12.34507 l 2.6846,0.44977 0.21771,8.23397 0.21771,8.23397 -3.28583,-0.0277 c -1.80721,-0.0152 -5.17218,-0.70597 -7.47771,-1.535 z"
     id="path6099"
     inkscape:connector-curvature="0" /><path
     style="fill:#29b200;fill-opacity:1"
     d="m 223.12214,173.47017 0,-8.05383 8.05383,0 8.05383,0 0,8.05383 0,8.05383 -8.05383,0 -8.05383,0 0,-8.05383 z"
     id="path6101"
     inkscape:connector-curvature="0" /><path
     style="fill:#29b200;fill-opacity:1"
     d="m 74.327216,146.43233 c 0.04132,-9.57297 8.264207,-22.25845 17.473739,-26.9568 3.493193,-1.78209 10.982395,-3.91621 13.743065,-3.91621 1.7241,0 1.75643,0.1553 1.75643,8.43735 l 0,8.43734 -2.00554,0 c -3.0865,0 -9.209554,3.7172 -11.451122,6.95179 -1.108194,1.59912 -2.203467,4.31338 -2.433939,6.03168 l -0.419041,3.12418 -8.336348,0 -8.336347,0 0.0091,-2.10933 z"
     id="path6103"
     inkscape:connector-curvature="0" /><path
     style="fill:#29b200;fill-opacity:1"
     d="m 45.059133,173.03938 c -10.261327,-1.18555 -20.160135,-8.40477 -25.027021,-18.25225 -2.800433,-5.66629 -2.857815,-5.96031 -2.857815,-14.64303 0,-8.52981 0.09644,-9.0528 2.582997,-14.00733 4.750885,-9.46625 13.949894,-16.40617 24.277314,-18.3153 5.805446,-1.0732 8.795702,-0.44466 11.548647,2.42748 l 2.243689,2.34083 0.242843,25.83801 c 0.156435,16.6444 -0.0459,26.81704 -0.56865,28.5895 -1.505343,5.1041 -5.14403,6.86527 -12.442004,6.02209 z m -3.723357,-32.56923 0,-14.20776 -1.949014,1.27705 c -2.312293,1.51507 -5.359254,6.56464 -6.097994,10.10589 -0.878035,4.20898 0.984515,9.99085 4.418519,13.7163 1.68126,1.82396 3.185458,3.31628 3.342662,3.31628 0.157205,0 0.285827,-6.39349 0.285827,-14.20776 z"
     id="path6105"
     inkscape:connector-curvature="0" /><path
     style="fill:#29b200;fill-opacity:1"
     d="M 66.283184,78.550074 C 69.031754,58.29216 89.290562,45.139789 108.67599,51.02793 c 12.70073,3.857729 23.16945,16.789256 23.16945,28.62015 l 0,2.928907 -7.99288,0 -7.99288,0 -0.53807,-2.492851 C 113.3391,70.89917 106.68632,65.941002 97.259539,66.622874 c -3.583238,0.259188 -5.102168,0.803405 -7.39727,2.650362 -3.8261,3.079011 -6.257794,6.768141 -6.833228,10.366712 l -0.469652,2.937039 -8.411286,0 -8.411286,0 0.546367,-4.026913 z"
     id="path6107"
     inkscape:connector-curvature="0" /><path
     style="fill:#29b200;fill-opacity:1"
     d="m 140.28279,99.068156 0,-8.053827 8.43734,0 8.43734,0 0,8.053827 0,8.053824 -8.43734,0 -8.43734,0 0,-8.053824 z"
     id="path6109"
     inkscape:connector-curvature="0" /><path
     style="fill:#29b200;fill-opacity:1"
     d="m 197.81012,74.499088 c 0,-5.805983 0.26966,-8.154356 0.95879,-8.349743 0.52733,-0.149513 2.43145,-0.671996 4.23138,-1.161073 5.73066,-1.557134 10.18554,-6.493346 11.3206,-12.543759 l 0.53464,-2.849862 8.36104,0 8.36104,0 -0.46126,3.259882 c -1.51836,10.730616 -7.27055,19.811387 -15.7703,24.896032 -4.20894,2.517835 -11.5732,4.826422 -15.39599,4.826422 l -2.13994,0 0,-8.077899 z"
     id="path6111"
     inkscape:connector-curvature="0" /><path
     style="fill:#29b200;fill-opacity:1"
     d="m 256.10448,66.085819 0,-8.053826 8.43734,0 8.43734,0 0,8.053826 0,8.053827 -8.43734,0 -8.43734,0 0,-8.053827 z"
     id="path6113"
     inkscape:connector-curvature="0" /><path
     style="fill:#29b200;fill-opacity:1"
     d="m 158.65361,56.987312 c -6.85847,-1.849744 -13.19364,-7.357209 -16.33644,-14.202053 -2.34056,-5.097609 -2.28284,-14.382843 0.12217,-19.653181 2.2905,-5.019387 7.846,-10.599311 12.73007,-12.786038 5.93052,-2.6552487 14.70532,-2.5108303 20.50535,0.337483 5.07089,2.490247 10.10297,7.646439 12.39171,12.697327 2.53351,5.591079 2.31117,14.5375 -0.49897,20.077552 -3.6338,7.16385 -8.3355,11.124446 -15.85799,13.358385 -4.79468,1.423869 -8.24182,1.468892 -13.0559,0.170525 z m 12.00361,-18.437909 c 6.65584,-6.65584 -0.64302,-16.528914 -9.30251,-12.583386 -2.43372,1.108878 -4.19724,4.285124 -4.19724,7.559593 0,1.724772 0.74605,3.161934 2.60791,5.023793 3.62838,3.628383 7.26345,3.628383 10.89184,0 z"
     id="path6115"
     inkscape:connector-curvature="0" /><path
     style="fill:#29b200;fill-opacity:1"
     d="m 65.682894,81.689975 c 0.114238,-0.580067 0.31456,-1.917578 0.445161,-2.972245 2.052895,-16.578138 16.39113,-29.33894 32.96569,-29.33894 13.702385,0 26.202005,8.763805 31.247465,21.908402 0.88351,2.301762 1.92663,7.701682 1.92663,9.973625 l 0,1.483826 -8.43734,0 -8.43734,0 0,-1.162645 c 0,-1.505815 -1.33722,-5.459915 -2.5413,-7.514523 -2.9374,-5.012297 -9.12234,-7.8441 -15.867451,-7.264994 -3.808519,0.326982 -6.184605,1.51379 -9.091507,4.541027 -2.762259,2.876607 -4.128784,5.418377 -4.762695,8.858732 l -0.468456,2.542403 -8.59328,0 -8.593281,0 0.207704,-1.054668 z"
     id="path6117"
     inkscape:connector-curvature="0" /><path
     style="fill:#29b200;fill-opacity:1"
     d="m 65.707993,80.539428 c 0.807992,-6.846804 3.661433,-13.983923 7.511912,-18.789034 4.317342,-5.38772 11.700893,-10.011485 18.587044,-11.639673 2.928316,-0.692382 4.207553,-0.785264 8.437341,-0.612613 5.96231,0.243369 8.349,0.838826 13.42305,3.348926 10.55687,5.222417 17.64549,15.477046 18.4799,26.733605 l 0.23453,3.164004 -8.49431,0 c -8.33923,0 -8.4943,-0.01452 -8.4943,-0.79529 0,-0.437409 -0.43946,-2.120084 -0.97657,-3.739277 -2.58405,-7.789911 -8.19284,-11.517377 -16.725484,-11.11535 -4.482075,0.211179 -6.449419,1.13648 -9.762432,4.591561 -2.765193,2.883771 -3.793498,4.752396 -4.61355,8.383698 l -0.604014,2.674658 -8.631678,0 -8.631677,0 0.260238,-2.205215 z"
     id="path6119"
     inkscape:connector-curvature="0" /><path
     style="fill:#29b200;fill-opacity:1"
     d="m 44.748986,173.24599 c -16.340489,-2.56296 -28.274193,-16.41041 -28.297802,-32.83577 -0.01001,-6.96604 1.679652,-12.54609 5.569013,-18.39144 5.925192,-8.90501 16.496853,-14.72914 26.73558,-14.72914 3.500573,0 5.532744,0.941 7.745483,3.58656 l 1.556322,1.86074 0,26.92888 0,26.92887 -1.156422,2.26237 c -2.066796,4.04338 -5.78758,5.3872 -12.152174,4.38893 z M 40.99114,140.46373 c 0,-9.37421 -0.127209,-13.6148 -0.408415,-13.6148 -0.916245,0 -4.245742,4.02509 -5.605766,6.77691 -3.059424,6.19032 -1.821704,12.43841 3.690723,18.63099 0.891888,1.00194 1.779529,1.8217 1.972536,1.8217 0.205629,0 0.350922,-5.63697 0.350922,-13.6148 z"
     id="path6121"
     inkscape:connector-curvature="0" /><path
     style="fill:#29b200;fill-opacity:1"
     d="m 43.100475,173.08969 c -10.649154,-2.45383 -18.580676,-8.61161 -23.340778,-18.12102 -2.176927,-4.34891 -2.976225,-7.67975 -3.205743,-13.35899 -0.413872,-10.24091 2.448702,-17.45125 9.818909,-24.73215 6.048624,-5.97534 12.927175,-9.13896 20.662943,-9.50341 4.988971,-0.23505 6.538206,0.29535 9.255828,3.16884 l 1.957705,2.06998 0,26.82221 c 0,29.20737 0.08007,28.06162 -2.169263,31.04221 -1.529391,2.0266 -3.661387,2.89693 -7.418625,3.02845 -1.844438,0.0646 -4.259019,-0.11612 -5.560976,-0.41612 z m -2.266509,-36.8012 c -0.111874,-4.82759 -0.313223,-8.88327 -0.447441,-9.01262 -0.435997,-0.42018 -4.011099,3.92137 -5.17511,6.28458 -2.980398,6.0509 -1.823381,12.5675 3.210106,18.08008 l 1.994346,2.18416 0.310753,-4.37938 c 0.170914,-2.40867 0.21922,-8.32924 0.107346,-13.15682 z"
     id="path6123"
     inkscape:connector-curvature="0" /><path
     style="fill:#29b200;fill-opacity:1"
     d="m 74.326779,148.42168 c -0.160436,-1.52737 0.194924,-5.55279 0.641573,-7.2676 1.590539,-6.10649 4.523908,-11.32748 8.784771,-15.63567 3.572373,-3.61205 6.414269,-5.57847 10.634204,-7.35821 3.002544,-1.26632 9.478833,-2.81674 11.765823,-2.81674 l 1.18618,0 0,8.58161 0,8.58161 -2.09298,0.17357 c -2.64026,0.21895 -6.342498,2.05718 -9.108674,4.52264 -2.487278,2.21687 -4.075906,5.26344 -4.637909,8.8943 l -0.404321,2.61213 -8.369227,0 c -4.603075,0 -8.382823,-0.12944 -8.39944,-0.28764 z"
     id="path6125"
     inkscape:connector-curvature="0" /><path
     style="fill:#29b200;fill-opacity:1"
     d="m 140.32167,99.24329 0,-8.444821 8.44482,0 8.44482,0 -0.10336,8.341463 -0.10336,8.341468 -8.34146,0.10335 -8.34146,0.10336 0,-8.44482 z"
     id="path6127"
     inkscape:connector-curvature="0" /><path
     style="fill:#29b200;fill-opacity:1"
     d="m 194.78087,156.90221 c -3.22828,-0.47135 -5.4749,-1.14145 -7.67977,-2.29066 -6.55104,-3.41448 -11.57612,-9.75931 -13.20613,-16.6745 -0.75786,-3.21516 -0.75196,-9.00617 0.0122,-11.99155 1.52731,-5.96663 5.45464,-11.36206 10.82278,-14.86852 4.1235,-2.69346 6.43633,-3.44959 11.2892,-3.69073 9.38108,-0.46616 15.06399,1.75731 20.97276,8.20569 4.78802,5.22527 6.75537,11.94431 5.86489,20.03024 -0.38137,3.46301 -0.67854,4.54079 -1.98003,7.18125 -2.58999,5.25453 -8.26044,10.6273 -13.22768,12.53325 -3.60545,1.38342 -9.33851,2.0809 -12.86825,1.56553 z m 6.67224,-18.1861 c 2.99368,-1.4072 4.84412,-5.22913 4.00433,-8.2706 -0.75101,-2.71994 -4.6222,-5.89767 -7.18468,-5.89767 -3.63694,0 -7.32704,3.93928 -7.32704,7.82182 0,3.2528 1.2447,5.1178 4.41043,6.60836 2.20533,1.03836 3.44394,0.98515 6.09696,-0.26191 z"
     id="path6129"
     inkscape:connector-curvature="0" /><path
     style="fill:#29b200;fill-opacity:1"
     d="m 222.86591,173.35019 0.10336,-8.34146 8.24558,0 8.24558,0 0.10336,8.34146 0.10336,8.34146 -8.4523,0 -8.4523,0 0.10336,-8.34146 z"
     id="path6131"
     inkscape:connector-curvature="0" /><path
     style="fill:#29b200;fill-opacity:1"
     d="m 150.70164,181.27402 c -10.85568,-2.12922 -20.69617,-10.30682 -24.60748,-20.44919 -1.33252,-3.45534 -2.26366,-7.82489 -2.26366,-10.62267 l 0,-1.89132 8.30962,0.10336 8.30963,0.10336 0.54122,2.68461 c 1.40372,6.96281 6.41765,11.89937 13.55175,13.34261 l 2.46187,0.49805 0.10336,8.32441 0.10336,8.32441 -2.40445,-0.042 c -1.32245,-0.0231 -3.1698,-0.19213 -4.10522,-0.37561 z"
     id="path6133"
     inkscape:connector-curvature="0" /><path
     style="fill:#29b200;fill-opacity:1"
     d="m 197.93724,74.508154 0.10351,-8.351355 2.87637,-0.745124 c 4.20306,-1.088804 5.88279,-1.943189 8.28275,-4.21297 3.14407,-2.973533 4.15912,-5.025873 5.32431,-10.765247 l 0.21411,-1.054668 8.43004,0 c 7.77351,0 8.42991,0.05227 8.42849,0.671153 -0.005,2.013461 -1.29806,8.152522 -2.29069,10.872416 -4.38003,12.001557 -15.82503,20.720283 -28.49253,21.705409 l -2.97988,0.23174 0.10352,-8.351354 z"
     id="path6135"
     inkscape:connector-curvature="0" /><path
     style="fill:#29b200;fill-opacity:1"
     d="m 161.99029,57.828501 c -7.97012,-1.25255 -15.2393,-6.277348 -18.71494,-12.936658 -5.23251,-10.025441 -3.47788,-21.473741 4.51542,-29.461479 4.90463,-4.90121 10.36807,-7.1858702 17.26765,-7.2208498 4.37176,-0.022164 6.78565,0.5508953 11.18421,2.6551448 5.86835,2.807389 10.61187,8.26322 12.6455,14.54441 1.16913,3.611055 1.43561,9.719815 0.57718,13.231286 -1.22719,5.019919 -4.63487,10.432425 -8.68275,13.791077 -4.73659,3.93008 -13.00912,6.30592 -18.79227,5.397069 z m 6.83337,-18.03243 c 1.00311,-0.636158 2.32755,-1.957579 2.97902,-2.972246 1.06379,-1.656862 1.16041,-2.065758 1.03818,-4.393979 -0.11382,-2.168235 -0.31523,-2.793936 -1.29622,-4.026913 -3.50917,-4.410547 -10.38309,-4.113014 -12.91577,0.559049 -2.02158,3.729243 -1.66111,6.648515 1.15939,9.389304 3.02841,2.942827 5.93928,3.408283 9.0354,1.444785 z"
     id="path6137"
     inkscape:connector-curvature="0" /><path
     style="fill:#29b200;fill-opacity:1"
     d="m 255.75984,66.061717 0,-8.245585 8.6291,0 8.6291,0 0,8.245585 0,8.245584 -8.6291,0 -8.6291,0 0,-8.245584 z"
     id="path6139"
     inkscape:connector-curvature="0" /><path
     style="fill:#29b200;fill-opacity:1"
     d="m 264.04646,181.46853 c -0.12803,-0.33365 -0.23279,-4.10933 -0.23279,-8.39038 0,-8.41642 -0.0168,-8.34773 2.16024,-8.81276 1.43909,-0.3074 4.1568,-2.54612 4.94781,-4.07577 0.42625,-0.82429 1.23851,-7.18725 1.32322,-10.36575 0.003,-0.12527 -3.12561,-0.34533 -6.95323,-0.48903 -13.42631,-0.50405 -13.67796,-0.56907 -16.5546,-4.27796 l -1.48028,-1.90854 0.24114,-7.67031 c 0.30653,-9.74988 0.81908,-12.66439 3.0216,-17.18172 8.86718,-18.18648 30.19247,-24.856734 47.20975,-14.76656 3.42638,2.03163 8.57088,6.97946 10.94036,10.52212 3.8839,5.80691 5.99452,14.33054 5.68543,22.96022 -0.23573,6.58117 -1.67995,9.56012 -5.38523,11.1079 -1.37832,0.57576 -6.43494,1.09955 -15.30124,1.58497 l -4.08616,0.22372 -0.26279,4.85541 c -0.54654,10.09798 -2.3276,14.84659 -7.3723,19.65583 -1.77914,1.69609 -4.06929,3.41372 -5.66946,4.25213 -5.48573,2.87424 -11.65645,4.27496 -12.23147,2.77648 z m 31.16755,-50.25711 c 1.0441,-0.20882 1.19848,-0.39854 1.19848,-1.47281 0,-3.12598 -4.91003,-9.71843 -8.87309,-11.91347 -1.93142,-1.06976 -2.31485,-1.13937 -6.27577,-1.13937 -3.94646,0 -4.38505,0.0788 -6.79717,1.22149 -5.12433,2.42749 -8.56455,6.82286 -9.62512,12.29743 l -0.24146,1.24643 14.70782,0 c 8.0893,0 15.24714,-0.10787 15.90631,-0.2397 z"
     id="path6141"
     inkscape:connector-curvature="0" /></svg>